{"glyphs":{"0":{"ha":655,"x_min":23,"x_max":632,"o":"m 328 971 q 543 827 454 971 q 632 479 632 682 q 543 131 632 275 q 328 -13 454 -13 q 112 131 201 -13 q 23 479 23 275 q 112 827 23 682 q 328 971 201 971 m 326 33 q 427 174 410 33 q 444 480 444 315 q 425 787 444 646 q 326 928 405 928 q 232 788 247 928 q 218 477 218 648 q 230 169 218 306 q 326 33 243 33 z "},"1":{"ha":446,"x_min":21,"x_max":429,"o":"m 47 690 q 21 683 28 671 q 26 707 14 696 q 254 945 163 820 q 262 950 257 950 l 293 950 q 304 939 304 950 l 303 222 q 416 35 304 37 q 429 17 429 34 q 414 1 428 1 l 62 1 q 47 19 47 1 q 62 37 47 37 q 161 227 161 33 l 162 627 q 47 690 162 771 z "},"2":{"ha":624,"x_min":23,"x_max":597,"o":"m 37 678 q 120 867 48 789 q 314 948 191 945 q 587 719 564 948 q 547 526 597 603 q 433 388 496 450 l 199 161 q 195 149 192 155 q 207 142 199 142 l 539 142 q 550 153 549 142 l 562 254 q 581 271 564 272 q 597 246 598 271 l 575 7 q 564 -2 574 -2 l 34 -2 q 23 3 26 -2 q 25 15 20 8 l 298 366 q 416 683 435 543 q 262 829 397 824 q 132 772 178 825 q 76 669 85 719 q 51 649 72 648 q 37 678 31 650 z "},"3":{"ha":648,"x_min":30,"x_max":623,"o":"m 62 811 q 162 919 93 873 q 332 964 232 966 q 494 923 419 964 q 585 783 570 882 q 546 637 591 680 q 440 576 500 595 q 623 328 621 525 q 529 92 625 191 q 318 -9 432 -7 q 127 27 204 -9 q 30 159 50 63 q 40 225 21 195 q 102 257 59 256 q 172 219 152 259 q 191 125 193 178 q 222 52 195 81 q 317 26 250 22 q 439 93 403 30 q 467 248 476 157 q 382 438 454 402 q 218 469 309 475 q 194 484 196 467 q 212 506 193 500 q 348 574 291 528 q 416 705 404 620 q 380 832 426 782 q 252 884 334 882 q 160 858 199 886 q 90 795 121 829 q 62 785 73 778 q 62 811 52 791 z "},"4":{"ha":635,"x_min":14,"x_max":616,"o":"m 467 935 l 467 392 q 477 382 467 382 l 606 382 q 616 370 616 382 l 616 296 q 606 285 616 285 l 477 285 q 467 273 467 285 l 467 222 q 579 35 467 35 q 592 17 593 34 q 578 1 592 1 l 225 1 q 210 18 210 1 q 225 37 211 37 q 325 227 326 35 l 325 273 q 321 281 325 278 q 314 285 319 285 l 24 285 q 14 296 14 285 l 14 378 q 15 384 14 380 l 372 941 q 382 945 377 945 l 456 945 q 467 935 467 945 m 81 382 l 314 382 q 326 392 326 382 l 326 755 q 317 765 326 764 q 305 761 310 768 l 72 398 q 72 387 68 393 q 81 382 75 382 z "},"5":{"ha":647,"x_min":31,"x_max":625,"o":"m 481 319 q 283 514 467 512 q 102 426 189 516 q 75 437 75 404 q 112 683 95 553 q 118 941 130 812 q 149 961 100 975 q 367 929 273 922 q 533 970 461 937 q 547 969 542 975 q 548 957 551 963 q 417 815 505 854 q 178 804 330 776 q 165 793 165 806 q 146 634 160 713 q 158 623 146 620 q 328 658 237 661 q 549 554 472 652 q 625 328 627 455 q 530 92 627 191 q 319 -9 433 -7 q 130 29 205 -9 q 31 159 55 67 q 41 225 22 195 q 103 257 60 256 q 168 220 145 257 q 193 125 191 183 q 224 52 196 81 q 318 26 252 22 q 449 111 404 30 q 481 319 494 193 z "},"6":{"ha":631,"x_min":35,"x_max":604,"o":"m 416 850 q 395 912 414 882 q 340 943 377 941 q 234 845 255 947 q 209 686 213 743 q 203 469 202 573 q 389 627 271 632 q 538 552 469 624 q 604 341 608 479 q 513 97 600 204 q 335 -10 427 -11 q 102 115 182 -8 q 35 486 22 237 q 96 770 45 665 q 205 924 146 874 q 357 975 265 975 q 512 924 451 975 q 578 817 559 883 q 567 749 587 780 q 506 719 548 719 q 438 762 463 718 q 416 850 413 806 m 336 27 q 422 99 396 26 q 448 268 449 172 q 423 472 446 385 q 335 557 400 560 q 209 332 237 551 q 222 178 214 243 q 253 65 230 104 q 336 27 275 27 z "},"7":{"ha":597,"x_min":22,"x_max":581,"o":"m 22 711 l 81 941 q 92 948 82 948 l 570 948 q 578 944 576 948 q 581 935 581 939 l 283 8 q 273 0 281 0 l 109 0 q 99 5 102 0 q 99 16 96 9 l 491 794 q 490 805 493 800 q 481 810 487 810 q 349 810 415 810 q 216 810 283 810 q 216 810 216 810 q 158 810 215 810 q 56 703 100 809 q 43 696 53 693 l 31 697 q 23 703 25 698 q 22 711 22 705 z "},"8":{"ha":649,"x_min":23,"x_max":611,"o":"m 191 505 q 54 751 51 600 q 135 909 55 841 q 336 974 216 977 q 509 915 442 974 q 576 766 576 856 q 533 654 576 701 q 444 583 496 613 q 438 572 438 579 q 439 567 438 568 q 444 563 441 565 q 578 417 539 503 q 611 244 618 328 q 504 56 591 112 q 302 0 416 0 q 105 65 188 0 q 23 249 23 131 q 73 395 23 334 q 191 495 119 452 q 194 500 194 496 q 191 505 194 503 m 227 473 q 126 246 114 387 q 177 82 123 134 q 304 29 231 29 q 432 70 378 29 q 490 227 486 111 q 429 358 493 302 q 302 444 365 414 q 242 474 258 466 q 235 476 239 476 q 227 473 230 476 m 492 764 q 336 948 490 945 q 215 905 264 948 q 167 798 165 861 q 237 684 168 728 q 378 601 301 644 q 391 598 382 598 q 402 602 399 599 q 492 764 476 661 z "},"9":{"ha":631,"x_min":26,"x_max":594,"o":"m 214 125 q 234 63 216 92 q 290 32 252 34 q 396 130 375 27 q 420 290 416 233 q 427 506 427 396 q 241 348 359 342 q 92 423 160 351 q 26 634 23 496 q 116 879 29 770 q 295 986 203 987 q 528 861 447 984 q 594 490 608 737 q 534 205 584 309 q 425 51 484 100 q 273 0 364 0 q 118 52 178 0 q 52 159 70 91 q 62 225 43 195 q 124 257 81 256 q 191 219 166 257 q 214 125 215 182 m 294 948 q 207 876 233 949 q 182 707 180 803 q 210 505 184 591 q 300 423 235 419 q 421 644 397 428 q 408 798 415 732 q 377 909 399 871 q 294 948 354 948 z "}," ":{"ha":407,"x_min":0,"x_max":0,"o":""},"!":{"ha":323,"x_min":52,"x_max":271,"o":"m 63 108 q 152 197 116 142 q 172 197 163 214 q 260 108 203 137 q 260 89 279 98 q 172 0 201 60 q 152 0 161 -20 q 63 89 123 54 q 63 108 47 97 m 52 886 q 151 985 111 923 q 172 985 162 1003 q 271 886 208 918 q 271 864 292 875 q 172 344 205 734 q 151 344 161 322 q 52 864 118 728 q 52 886 33 873 z "},"\"":{"ha":559,"x_min":52,"x_max":514,"o":"m 311 884 q 400 974 364 918 q 420 974 411 990 q 509 884 452 913 q 514 875 514 882 q 474 741 514 818 q 397 615 434 665 q 383 612 391 608 q 377 625 373 618 q 411 754 418 688 q 311 865 403 821 q 311 884 293 872 m 52 884 q 140 974 104 918 q 160 974 151 990 q 249 884 192 913 q 254 875 254 882 q 214 741 254 818 q 137 615 174 665 q 123 612 131 608 q 117 625 113 618 q 151 754 159 688 q 52 865 143 821 q 52 884 33 872 z "},"#":{"ha":715,"x_min":45,"x_max":666,"o":"m 630 310 l 501 310 l 470 98 l 369 98 l 399 310 l 275 310 l 245 98 l 142 98 l 173 310 l 45 310 l 45 416 l 183 416 l 208 592 l 85 592 l 85 699 l 218 699 l 241 889 l 343 889 l 321 699 l 445 699 l 467 889 l 568 889 l 546 699 l 666 699 l 666 592 l 536 592 l 511 416 l 630 416 l 630 310 m 311 592 l 286 416 l 410 416 l 435 592 l 311 592 z "},"$":{"ha":582,"x_min":49,"x_max":525,"o":"m 317 -63 l 266 -63 l 266 71 q 162 113 212 81 q 81 197 113 144 q 49 315 49 250 q 64 375 49 351 q 109 398 79 398 q 139 388 127 398 q 158 359 151 377 q 164 322 164 341 q 153 269 164 303 q 142 224 142 239 q 165 167 142 191 q 221 130 189 143 q 281 117 254 117 q 345 133 315 117 q 395 179 376 149 q 414 251 414 210 q 404 312 414 288 q 363 359 393 335 q 270 421 333 384 q 192 471 222 451 q 133 522 162 491 q 89 592 104 552 q 73 686 73 632 q 87 779 73 738 q 127 852 101 821 q 190 905 154 884 q 266 930 225 925 l 266 1057 l 317 1057 l 317 930 q 387 911 352 928 q 449 864 421 894 q 494 795 477 834 q 510 715 510 757 q 495 661 510 682 q 454 640 481 640 q 412 663 429 640 q 396 718 396 687 q 403 765 396 733 q 410 808 410 796 q 375 867 410 850 q 301 885 340 885 q 213 852 250 885 q 175 761 175 819 q 213 671 175 703 q 341 586 251 639 q 478 478 431 533 q 525 334 525 424 q 498 207 525 263 q 424 115 471 150 q 317 71 377 80 l 317 -63 z "},"%":{"ha":991,"x_min":37,"x_max":951,"o":"m 755 521 q 617 447 674 521 q 560 269 560 373 q 617 92 560 165 q 755 18 674 18 q 894 92 837 18 q 951 269 951 165 q 894 447 951 373 q 755 521 837 521 m 755 478 q 807 417 799 478 q 816 269 816 356 q 807 121 816 182 q 755 60 799 60 q 704 121 712 60 q 696 269 696 182 q 704 417 696 356 q 755 478 712 478 m 912 977 l 932 960 q 933 944 940 951 l 134 21 q 119 20 127 12 l 98 37 q 97 53 90 43 l 897 976 q 912 977 902 984 m 233 972 q 371 899 313 972 q 428 722 428 825 q 371 544 428 617 q 233 470 313 470 q 94 544 151 470 q 37 722 37 617 q 94 899 37 825 q 233 972 151 972 m 233 930 q 181 869 189 930 q 173 722 173 808 q 181 574 173 635 q 233 513 189 513 q 284 574 275 513 q 293 722 293 635 q 284 869 293 808 q 233 930 275 930 z "},"&":{"ha":796,"x_min":45,"x_max":759,"o":"m 180 297 q 200 183 180 242 q 256 86 220 124 q 340 47 293 47 q 387 56 361 47 q 429 80 413 65 q 360 188 390 134 q 303 299 330 241 q 248 427 276 357 q 180 297 180 394 m 527 501 l 751 501 l 751 463 q 706 445 721 454 q 678 410 692 436 q 648 330 664 384 q 563 151 616 218 q 656 74 602 74 q 741 122 693 74 l 759 102 q 712 41 739 68 q 655 1 686 15 q 590 -14 625 -14 q 525 1 553 -14 q 465 45 496 15 q 280 -14 385 -14 q 100 56 155 -14 q 45 208 45 125 q 98 366 45 298 q 229 474 152 433 q 192 641 192 570 q 220 755 192 706 q 294 829 248 804 q 391 854 340 854 q 465 837 429 854 q 524 784 501 819 q 547 700 547 749 q 522 618 547 654 q 468 557 498 581 q 388 501 437 534 q 421 420 402 463 q 459 339 440 378 q 496 266 478 300 q 536 190 514 232 q 590 275 570 227 q 610 374 610 323 q 587 441 610 419 q 527 463 564 463 l 527 501 m 456 719 q 439 790 456 762 q 389 817 422 817 q 338 791 356 817 q 321 722 321 764 q 369 544 321 651 q 433 617 410 572 q 456 719 456 662 z "},"'":{"ha":279,"x_min":41,"x_max":243,"o":"m 41 884 q 130 974 94 918 q 149 974 140 990 q 238 884 181 913 q 243 875 243 882 q 203 741 243 818 q 126 615 163 665 q 113 612 120 608 q 106 625 102 618 q 140 754 148 688 q 41 865 132 821 q 41 884 22 872 z "},"(":{"ha":345,"x_min":20,"x_max":311,"o":"m 300 -35 q 101 136 182 -28 q 20 529 20 300 q 101 921 20 757 q 300 1093 182 1084 q 307 1090 303 1094 q 300 1065 329 1068 q 212 995 248 1059 q 175 529 175 930 q 212 64 175 127 q 300 -6 248 0 q 311 -18 310 -7 q 307 -33 313 -28 q 300 -35 304 -36 z "},")":{"ha":345,"x_min":38,"x_max":329,"o":"m 50 1089 q 248 918 166 1082 q 329 526 329 754 q 248 133 329 297 q 50 -39 166 -31 q 42 -37 46 -40 q 48 -11 20 -14 q 137 59 100 -5 q 174 525 174 123 q 137 990 174 926 q 48 1060 100 1055 q 38 1072 39 1062 q 42 1087 37 1082 q 50 1089 45 1090 z "},"*":{"ha":488,"x_min":6,"x_max":458,"o":"m 149 947 q 222 1021 192 974 q 239 1021 231 1037 q 317 941 267 969 q 317 925 334 933 q 248 808 263 895 q 253 798 247 802 q 264 800 259 795 q 334 922 336 858 q 348 929 332 937 q 449 903 392 905 q 457 888 465 901 q 427 780 427 838 q 414 772 427 762 q 277 772 359 804 q 271 764 271 771 q 277 755 271 758 q 416 755 362 722 q 431 748 431 764 q 458 646 432 695 q 450 632 464 632 q 341 604 391 634 q 327 612 327 595 q 264 728 328 673 q 254 729 258 730 q 249 719 247 724 q 317 606 262 632 q 317 589 332 598 q 239 509 266 561 q 222 509 232 496 q 149 584 191 556 q 149 600 132 593 q 219 723 205 627 q 214 732 220 728 q 205 732 210 735 q 137 612 133 675 q 123 604 138 595 q 15 632 73 633 q 6 647 0 632 q 34 748 32 696 q 47 756 34 766 q 189 755 99 720 q 195 764 195 758 q 189 772 195 771 q 51 772 103 806 q 37 780 37 762 q 7 888 37 837 q 15 902 -2 902 q 116 929 72 905 q 130 921 132 936 q 205 795 125 855 q 214 795 210 791 q 219 804 220 798 q 149 930 206 900 q 149 947 132 937 z "},"+":{"ha":549,"x_min":52,"x_max":509,"o":"m 509 496 l 509 433 l 313 433 l 313 212 l 252 212 l 252 433 l 52 433 l 52 496 l 252 496 l 252 703 l 313 703 l 313 496 l 509 496 z "},",":{"ha":255,"x_min":24,"x_max":227,"o":"m 24 108 q 113 197 77 142 q 133 197 124 214 q 222 108 165 137 q 227 98 227 105 q 187 -35 227 41 q 110 -161 147 -112 q 96 -165 104 -168 q 90 -152 86 -159 q 124 -22 132 -88 q 24 89 116 44 q 24 108 6 96 z "},"-":{"ha":414,"x_min":40,"x_max":418,"o":"m 145 520 l 410 546 q 418 542 416 547 q 418 534 420 538 l 380 458 q 372 452 376 452 l 106 426 q 98 429 100 426 q 98 439 95 433 l 136 514 q 145 520 139 519 m 86 370 l 352 396 q 360 393 357 397 q 360 384 362 388 l 321 308 q 313 302 319 302 l 47 276 q 40 280 42 276 q 40 289 37 283 l 78 365 q 86 370 81 370 z "},".":{"ha":279,"x_min":36,"x_max":233,"o":"m 36 108 q 125 197 89 142 q 144 197 136 214 q 233 108 176 137 q 233 89 252 98 q 144 0 174 60 q 125 0 134 -20 q 36 89 96 54 q 36 108 20 97 z "},"/":{"ha":725,"x_min":43,"x_max":700,"o":"m 673 1034 l 696 1021 q 700 1005 705 1014 l 85 -49 q 70 -54 79 -59 l 47 -40 q 43 -24 37 -35 l 658 1030 q 673 1034 662 1039 z "},":":{"ha":279,"x_min":36,"x_max":233,"o":"m 36 554 q 125 644 89 588 q 144 644 136 660 q 233 554 176 583 q 233 535 252 545 q 144 446 174 506 q 125 446 134 427 q 36 535 96 500 q 36 554 20 543 m 36 108 q 125 197 89 142 q 144 197 136 214 q 233 108 176 137 q 233 89 252 98 q 144 0 174 60 q 125 0 134 -20 q 36 89 96 54 q 36 108 20 97 z "},";":{"ha":238,"x_min":24,"x_max":233,"o":"m 24 108 q 113 197 77 142 q 133 197 124 214 q 222 108 165 137 q 227 98 227 105 q 187 -35 227 41 q 110 -161 147 -112 q 96 -165 104 -168 q 90 -152 86 -159 q 124 -22 132 -88 q 24 89 116 44 q 24 108 6 96 m 36 554 q 125 644 89 588 q 144 644 136 660 q 233 554 176 583 q 233 535 252 545 q 144 446 174 506 q 125 446 134 427 q 36 535 96 500 q 36 554 20 543 z "},"<":{"ha":401,"x_min":5,"x_max":379,"o":"m 342 648 l 369 648 q 379 642 377 648 q 378 631 382 636 l 182 399 q 182 385 175 391 l 378 153 q 379 142 382 147 q 369 136 377 136 l 342 136 q 336 138 337 136 l 10 383 q 5 392 5 387 q 10 401 5 396 l 336 646 q 342 648 338 648 z "},"=":{"ha":538,"x_min":32,"x_max":510,"o":"m 43 364 l 499 364 q 510 353 510 364 l 510 275 q 499 264 510 264 l 43 264 q 32 275 32 264 l 32 353 q 43 364 32 364 m 43 566 l 499 566 q 510 554 510 566 l 510 477 q 499 465 510 465 l 43 465 q 32 477 32 465 l 32 554 q 43 566 32 566 z "},">":{"ha":401,"x_min":8,"x_max":382,"o":"m 45 136 l 18 136 q 8 142 10 136 q 9 153 5 148 l 205 385 q 205 399 212 393 l 9 631 q 8 642 5 637 q 18 648 10 648 l 45 648 q 52 646 50 648 l 377 401 q 382 392 382 397 q 377 383 382 388 l 52 138 q 45 136 50 136 z "},"?":{"ha":633,"x_min":45,"x_max":570,"o":"m 163 815 q 216 749 217 815 q 200 713 216 730 q 154 695 184 695 q 45 800 50 693 q 315 988 51 982 q 570 752 571 989 q 513 602 568 648 q 394 535 459 556 q 277 488 330 513 q 225 416 224 463 q 260 337 225 371 q 339 304 296 302 q 417 334 384 305 q 459 410 450 362 q 481 425 466 426 q 488 404 495 421 q 445 317 484 357 q 339 277 406 277 q 200 310 262 276 q 127 413 139 345 q 146 551 111 498 q 249 635 182 605 q 374 692 317 665 q 432 789 431 720 q 301 958 427 956 q 188 926 239 958 q 136 859 136 894 q 163 815 136 814 m 232 108 q 321 197 285 142 q 340 197 332 214 q 429 108 372 137 q 429 89 448 98 q 340 0 370 60 q 321 0 330 -20 q 232 89 292 54 q 232 108 216 97 z "},"@":{"ha":844,"x_min":22,"x_max":828,"o":"m 803 100 q 825 96 817 100 q 828 83 833 91 q 770 -26 808 24 q 675 -116 731 -76 q 559 -173 622 -153 q 427 -192 497 -192 q 265 -164 338 -192 q 137 -79 193 -136 q 22 205 22 37 q 37 320 22 265 q 80 428 52 375 q 149 516 107 476 q 241 585 190 555 q 346 628 290 612 q 458 643 401 643 q 711 549 630 643 q 795 332 795 451 q 728 117 795 221 q 529 13 660 13 q 437 83 437 13 q 300 13 362 13 q 222 48 249 13 q 195 127 195 84 q 217 233 195 179 q 284 339 240 286 q 372 417 327 390 q 460 444 416 444 q 527 427 502 444 q 535 430 530 429 q 545 432 541 432 l 614 441 q 637 437 629 443 q 642 425 646 432 l 591 252 q 552 91 552 121 q 559 71 552 71 q 662 151 609 71 q 716 340 716 229 q 643 528 716 465 q 461 595 564 595 q 271 531 357 595 q 153 374 195 472 q 116 195 116 284 q 203 -47 116 39 q 429 -139 295 -139 q 631 -73 547 -139 q 753 93 709 -10 q 763 98 755 96 q 777 100 770 100 l 803 100 m 493 348 q 465 397 493 397 q 438 387 452 397 q 408 357 424 376 q 377 311 393 338 q 346 250 361 283 q 324 189 332 218 q 316 140 316 160 q 323 106 316 120 q 340 92 330 92 q 411 140 366 92 q 447 192 431 163 q 474 252 464 220 q 488 306 484 281 q 493 348 493 330 z "},"A":{"ha":1131,"x_min":31,"x_max":1096,"o":"m 747 814 q 731 829 731 814 q 741 844 731 838 l 1025 980 q 1047 975 1042 987 q 1038 952 1053 962 q 977 853 991 916 q 964 706 964 791 l 964 237 q 1072 145 964 94 q 1096 143 1090 155 q 1090 121 1102 130 l 949 -7 q 918 -12 935 -17 q 798 139 816 17 q 791 148 797 145 q 780 145 785 150 q 746 109 764 129 q 656 29 728 88 q 527 -17 585 -30 q 435 25 470 -3 q 336 111 381 69 q 223 136 290 153 q 201 129 216 134 q 180 136 186 123 q 201 165 174 149 q 304 238 254 200 q 399 323 355 277 q 495 473 459 387 q 513 661 530 560 q 416 828 496 758 q 227 882 337 898 q 123 823 156 871 q 85 732 90 775 q 113 636 77 671 q 195 595 148 602 q 341 502 304 576 q 286 346 378 429 q 264 343 274 336 q 262 363 255 350 q 218 445 292 424 q 85 522 138 467 q 31 671 31 577 q 134 895 31 801 q 368 989 236 989 q 601 898 521 989 q 683 690 682 806 q 591 453 684 555 q 410 281 498 351 q 406 271 405 278 q 413 263 407 265 q 497 216 460 243 q 560 162 534 189 q 640 112 602 118 q 736 148 677 105 q 764 173 751 159 q 790 203 777 186 q 793 210 793 206 q 791 472 790 340 q 791 734 791 603 q 785 787 791 760 q 747 814 779 814 z "},"B":{"ha":1241,"x_min":21,"x_max":1205,"o":"m 262 194 q 250 188 256 191 q 239 182 243 184 q 232 180 235 180 q 217 196 217 180 q 224 209 217 204 q 442 352 332 268 q 551 581 552 436 q 490 768 551 672 q 307 865 430 865 q 153 806 224 865 q 81 675 81 747 q 125 543 81 600 q 264 473 168 487 q 387 505 340 471 q 402 519 393 509 q 418 529 410 529 q 431 520 429 529 q 428 505 434 511 q 384 471 412 488 q 281 442 339 442 q 68 518 127 440 q 21 718 9 595 q 133 925 33 840 q 363 1005 233 1010 q 543 957 475 1000 q 645 848 610 913 q 656 842 648 840 q 665 850 664 842 q 737 960 684 918 q 871 1002 789 1002 q 1007 952 949 1002 q 1092 791 1065 903 q 1147 718 1112 717 q 1163 707 1161 718 q 1152 689 1166 696 l 999 618 q 993 606 991 614 q 1002 597 994 599 q 1144 509 1082 578 q 1205 340 1205 439 q 999 63 1202 183 q 783 -14 887 -2 q 588 7 680 -25 q 409 130 484 43 q 262 194 335 216 m 711 514 l 976 639 q 982 648 982 644 q 977 659 982 655 q 907 776 930 686 q 861 884 889 842 q 780 920 833 925 q 695 842 708 903 q 692 703 683 781 q 621 476 707 578 q 440 304 536 375 q 567 242 501 305 q 663 158 613 197 q 768 94 713 119 q 908 68 838 60 q 1028 141 978 76 q 1066 252 1065 189 q 1018 380 1067 315 q 898 468 970 444 q 718 485 825 492 q 700 496 703 484 q 711 514 698 508 z "},"C":{"ha":954,"x_min":49,"x_max":920,"o":"m 518 163 q 494 166 501 156 q 500 187 486 176 q 581 287 578 245 q 555 353 583 315 q 458 454 528 391 q 319 665 318 581 q 436 815 319 743 q 469 834 440 817 q 511 861 498 852 q 516 873 517 867 q 399 966 495 966 q 254 846 302 966 q 220 583 206 726 q 380 211 245 335 q 690 86 516 86 q 892 138 787 86 q 916 134 908 145 q 909 111 923 123 q 538 -18 747 -18 q 195 146 330 -18 q 49 467 59 310 q 135 850 35 693 q 389 1008 235 1008 q 489 976 451 1008 q 541 901 526 945 q 557 895 545 887 q 668 991 617 939 q 719 993 690 1008 q 772 966 748 978 q 827 935 795 953 q 897 933 860 918 q 919 933 911 941 q 918 915 927 925 q 854 854 884 881 q 795 802 824 827 q 787 794 789 795 q 780 793 784 793 q 767 798 774 793 q 755 805 760 802 q 593 862 638 862 q 528 834 561 861 q 471 749 472 791 q 555 622 469 696 q 742 376 732 468 q 518 163 749 290 z "},"D":{"ha":1126,"x_min":32,"x_max":1080,"o":"m 145 71 q 118 72 127 60 q 124 98 109 84 q 333 235 241 205 q 576 170 425 265 q 812 96 709 84 q 963 218 916 108 q 915 599 1044 410 q 571 838 786 787 q 273 812 422 873 q 97 631 123 751 q 159 420 64 486 q 354 379 254 354 q 380 389 367 382 q 406 383 398 397 q 395 359 414 370 q 361 347 369 349 q 149 380 265 316 q 32 629 32 444 q 96 815 32 731 q 261 949 161 899 q 482 1007 361 1000 q 718 979 602 1015 q 929 842 844 932 q 1053 644 1014 753 q 1080 418 1091 534 q 1002 201 1069 301 q 755 -2 901 48 q 384 68 609 -53 q 268 111 327 98 q 145 71 208 123 m 534 230 q 508 233 515 220 q 515 256 500 245 q 544 366 593 309 q 452 460 494 423 q 361 666 313 578 q 515 812 409 753 q 542 809 534 822 q 533 785 550 795 q 574 603 432 722 q 687 401 702 496 q 534 230 672 306 z "},"E":{"ha":976,"x_min":50,"x_max":940,"o":"m 554 852 q 528 835 541 845 q 472 749 473 791 q 555 623 470 696 q 612 571 591 591 q 621 568 617 567 q 629 572 625 568 q 672 625 645 593 q 746 665 710 669 q 817 633 782 660 q 911 606 878 585 q 940 608 929 618 q 938 580 950 598 q 904 534 921 557 q 863 491 886 511 q 760 498 816 450 q 666 541 699 548 q 658 534 660 540 q 661 523 656 528 q 743 377 736 439 q 519 164 749 290 q 495 165 503 155 q 500 188 487 176 q 581 288 579 246 q 556 353 583 315 q 459 454 528 391 q 320 666 319 582 q 437 816 320 743 q 470 835 441 818 q 512 862 499 852 q 517 874 518 867 q 400 967 497 967 q 250 846 303 967 q 221 531 197 726 q 381 211 245 336 q 691 87 517 87 q 893 138 787 87 q 917 135 910 146 q 909 111 924 124 q 539 -17 747 -17 q 195 147 331 -17 q 50 467 60 311 q 136 851 35 694 q 389 1008 236 1008 q 489 977 452 1008 q 541 901 527 945 q 548 895 543 895 q 555 894 551 893 l 558 895 q 669 992 618 939 q 720 994 691 1009 q 773 966 749 979 q 829 936 795 954 q 897 934 863 918 q 921 936 913 944 q 919 916 929 927 q 854 855 884 882 q 796 802 825 828 q 780 797 789 797 q 756 806 771 798 q 594 863 639 863 q 554 852 574 862 z "},"F":{"ha":1049,"x_min":45,"x_max":1019,"o":"m 921 388 q 908 382 915 382 q 889 394 898 382 q 875 414 881 407 q 777 437 818 471 q 774 422 768 431 q 821 338 802 378 q 850 159 862 249 q 789 -3 838 68 q 660 -121 739 -75 q 488 -167 581 -167 q 281 -110 368 -167 q 186 52 194 -54 l 199 108 q 214 163 205 136 q 208 257 238 233 q 169 271 191 271 q 149 287 149 271 q 169 304 149 303 q 205 300 186 304 q 242 293 225 296 q 355 234 315 277 q 367 94 395 191 q 360 -59 340 3 q 485 -127 379 -121 q 629 -75 578 -132 q 694 73 681 -19 q 667 215 704 136 q 567 373 629 294 q 455 628 425 552 q 587 793 485 703 l 587 794 q 597 798 590 798 q 614 781 614 798 q 608 768 614 774 q 602 646 551 707 q 674 557 639 601 q 741 471 710 513 q 759 470 749 460 q 817 542 787 506 q 876 614 846 577 q 902 617 888 629 q 950 576 926 597 q 998 535 973 555 q 1011 524 1004 530 q 1019 509 1019 517 q 1009 493 1019 503 q 993 475 1000 484 l 921 388 m 460 395 q 197 389 325 335 q 45 599 67 443 q 138 887 24 755 q 458 1019 253 1019 q 652 987 554 1019 q 849 903 749 956 q 978 890 915 868 q 998 897 991 895 q 1017 889 1013 900 q 1004 865 1021 878 q 906 796 956 830 q 809 725 857 762 q 772 724 792 711 q 603 818 711 769 q 386 867 496 867 q 175 793 257 867 q 97 607 94 720 q 197 430 101 493 q 441 425 292 367 q 462 428 454 430 q 473 419 470 425 q 473 407 476 414 q 460 395 470 399 z "},"G":{"ha":1069,"x_min":41,"x_max":1029,"o":"m 777 988 q 869 884 817 931 q 977 794 920 837 q 985 789 983 791 q 981 768 992 776 l 819 655 q 825 635 798 638 q 977 528 920 632 q 1029 342 1034 425 q 889 90 1018 196 q 590 -26 761 -17 q 209 109 370 -38 q 41 467 47 256 q 153 844 36 694 q 423 994 270 994 q 593 889 545 994 q 610 885 599 878 l 756 992 q 777 988 768 1000 m 673 543 q 633 537 654 542 q 613 545 617 534 q 623 564 609 555 l 818 699 q 819 717 829 707 q 652 875 715 796 q 637 877 646 883 l 560 821 q 492 700 487 766 q 585 538 497 633 q 675 294 731 377 q 493 143 619 210 q 470 145 477 136 q 476 167 463 155 q 540 235 506 195 q 452 422 574 274 q 349 591 366 528 q 355 697 331 654 q 432 770 379 739 q 541 842 485 802 l 567 862 q 571 875 574 867 q 433 961 541 963 q 274 847 336 958 q 217 593 213 735 q 340 173 225 326 q 629 21 456 21 q 811 110 747 21 q 873 300 874 198 q 819 464 871 385 q 673 543 766 543 z "},"H":{"ha":1019,"x_min":25,"x_max":985,"o":"m 25 109 q 26 130 16 118 q 156 229 100 203 q 290 168 213 254 q 371 101 336 117 q 440 119 406 85 q 440 219 480 159 q 293 414 401 279 q 170 664 170 568 q 323 886 170 759 q 647 937 551 1076 q 701 886 669 905 q 746 876 732 867 q 770 877 761 886 q 765 852 779 867 q 641 775 698 791 q 519 837 585 758 q 433 900 474 892 q 342 863 393 909 q 307 730 281 808 q 438 528 332 652 q 453 526 445 521 l 740 714 q 753 718 749 720 q 759 709 758 715 q 806 652 761 690 q 935 500 879 590 q 985 292 991 410 q 826 -19 975 117 q 494 -186 677 -155 q 471 -176 473 -190 q 487 -157 469 -161 q 803 106 736 -96 q 715 485 870 309 q 621 547 669 536 q 500 511 574 558 l 479 498 q 476 482 469 492 q 569 292 558 376 q 471 105 580 208 q 306 -14 361 1 q 168 58 250 -28 q 114 106 146 79 q 47 108 81 133 q 25 109 35 100 z "},"I":{"ha":951,"x_min":33,"x_max":889,"o":"m 526 463 q 517 441 532 449 q 229 435 366 361 q 82 651 92 509 q 164 904 73 793 q 421 1019 256 1015 q 551 993 486 1021 q 644 941 616 966 q 763 843 713 880 q 864 833 812 807 q 889 830 881 842 q 872 801 897 817 q 713 633 724 706 q 815 392 703 561 q 889 120 920 234 q 747 -73 858 7 q 514 -162 641 -150 q 275 -75 387 -175 q 174 14 220 -26 q 61 12 128 54 q 33 9 43 -1 q 35 32 23 19 q 434 24 239 239 q 595 -85 524 -73 q 720 -49 667 -96 q 762 71 771 -1 q 673 265 752 143 q 565 522 562 433 q 697 713 569 610 q 703 727 705 720 q 690 733 701 734 q 533 806 607 734 q 351 881 458 879 q 198 813 251 875 q 156 633 145 751 q 278 466 167 515 q 503 467 389 416 q 526 463 519 474 z "},"J":{"ha":986,"x_min":33,"x_max":907,"o":"m 526 463 q 514 441 531 450 q 225 437 363 361 q 79 661 87 513 q 162 911 71 808 q 418 1019 254 1015 q 548 993 484 1021 q 642 941 613 966 q 759 845 710 880 q 862 833 808 810 q 888 830 880 842 q 878 808 895 818 q 728 615 721 706 q 838 349 735 524 q 907 -9 955 147 q 748 -247 859 -165 q 514 -336 642 -323 q 275 -250 387 -349 q 175 -160 221 -201 q 62 -161 129 -119 q 33 -163 41 -173 q 36 -142 24 -153 q 435 -149 239 66 q 596 -259 524 -248 q 721 -222 668 -271 q 795 -81 772 -174 q 693 231 819 11 q 576 536 568 452 q 696 713 584 620 q 701 726 703 719 q 689 733 699 734 q 520 811 605 733 q 440 864 484 844 q 348 881 397 884 q 188 811 248 875 q 142 629 128 747 q 266 461 156 511 q 500 467 376 412 q 526 463 519 475 z "},"K":{"ha":1127,"x_min":27,"x_max":1092,"o":"m 789 492 q 795 502 795 495 q 788 511 795 508 q 709 626 744 534 q 624 722 682 699 q 512 709 566 745 q 456 594 457 672 q 498 459 454 517 q 573 251 589 332 q 471 92 557 170 q 297 -17 368 -3 q 157 60 227 -32 q 54 104 98 138 q 27 101 37 92 q 32 125 18 111 q 94 178 38 131 q 195 224 149 224 q 300 153 241 224 q 369 92 336 109 q 443 111 402 76 q 441 213 481 144 q 328 364 401 283 q 230 528 262 437 q 217 684 199 619 q 389 907 256 825 q 676 987 522 989 q 968 881 854 988 q 1086 622 1081 774 q 1041 489 1088 546 q 925 395 994 431 q 897 397 904 384 q 907 420 889 410 q 995 509 977 463 q 1010 629 1013 556 q 915 853 1006 755 q 675 958 823 952 q 408 831 492 956 q 410 571 323 707 q 423 565 415 563 q 431 578 431 568 q 449 707 425 639 q 558 814 474 774 q 732 821 642 854 q 861 712 822 788 q 906 616 890 652 q 943 583 922 580 q 962 574 958 585 q 950 554 966 562 l 790 463 q 783 452 783 458 q 791 443 783 446 q 863 360 829 422 q 935 204 898 298 q 1063 109 983 79 q 1092 106 1084 118 q 1078 81 1099 94 l 916 -23 q 904 -23 910 -26 q 799 88 840 20 q 731 246 758 157 q 680 342 712 309 q 609 359 648 376 q 585 365 590 353 q 595 386 579 377 l 789 492 z "},"L":{"ha":794,"x_min":27,"x_max":756,"o":"m 49 130 q 27 139 32 125 q 45 161 23 153 q 121 204 83 177 q 205 291 158 231 q 216 410 253 351 q 138 530 179 469 q 87 639 102 581 q 87 747 72 696 q 209 914 117 851 q 444 977 302 977 q 755 700 758 977 q 646 512 754 570 q 418 513 538 453 q 401 536 395 524 q 425 542 407 549 q 557 549 494 513 q 626 688 620 585 q 581 874 633 808 q 441 947 529 941 q 302 900 356 947 q 248 790 248 853 q 265 709 248 747 q 305 636 283 671 q 365 486 346 570 q 243 292 385 402 q 238 281 237 287 q 247 273 239 275 q 426 170 343 239 q 594 104 505 103 q 729 174 682 106 q 753 183 740 190 q 756 159 766 176 q 676 64 723 112 q 566 -5 629 17 q 425 -14 503 -28 q 253 76 347 0 q 152 134 202 117 q 49 130 102 152 z "},"M":{"ha":1536,"x_min":35,"x_max":1494,"o":"m 382 375 q 365 422 384 413 q 283 417 345 431 q 111 460 186 394 q 35 656 35 526 q 129 880 35 785 q 353 974 222 974 q 481 945 412 974 q 599 858 550 916 q 608 853 603 852 q 616 859 612 854 q 693 941 646 908 q 818 972 740 975 q 999 848 919 968 q 1009 842 1003 842 q 1019 848 1015 842 q 1090 935 1047 901 q 1199 969 1134 969 q 1337 918 1282 968 q 1415 752 1391 869 q 1478 667 1430 671 q 1492 655 1491 666 q 1476 639 1493 644 q 1295 495 1344 594 q 1299 244 1245 397 q 1367 147 1322 175 q 1464 151 1411 119 q 1494 151 1484 163 q 1490 127 1503 139 q 1399 55 1444 91 q 1308 -18 1354 18 q 1294 -18 1301 -23 q 1120 240 1149 98 q 1307 576 1090 382 q 1311 585 1312 581 q 1305 593 1311 590 q 1235 757 1257 625 q 1129 888 1211 887 q 1030 803 1071 890 q 1030 793 1027 798 q 1068 668 1057 737 q 1069 522 1080 599 q 989 239 1042 334 q 863 49 936 144 q 680 22 766 -73 q 628 58 655 50 q 567 39 602 66 q 545 36 554 28 q 546 58 536 45 q 684 195 633 178 q 784 167 735 212 q 858 127 824 130 q 910 177 891 124 q 936 461 947 279 q 862 742 926 644 q 742 857 799 840 q 637 827 684 874 q 637 812 631 820 q 724 553 718 701 q 677 322 728 433 q 546 109 626 211 q 380 -18 458 -2 q 237 61 302 -35 q 121 82 180 146 q 95 81 106 70 q 98 108 84 93 q 389 157 283 296 q 421 115 406 134 q 467 96 437 95 q 550 182 507 98 q 593 396 593 267 q 505 692 592 565 q 307 831 418 819 q 130 789 195 843 q 68 663 66 736 q 107 543 70 588 q 247 525 145 498 q 417 380 443 575 q 398 360 414 360 q 382 375 382 359 z "},"N":{"ha":1226,"x_min":36,"x_max":1185,"o":"m 384 381 q 366 428 385 419 q 284 423 347 437 q 112 466 188 399 q 36 662 36 532 q 122 889 37 800 q 354 980 207 979 q 508 935 427 980 q 647 805 590 890 q 657 800 650 800 q 667 807 665 801 q 747 922 693 869 q 869 975 800 975 q 1023 924 977 975 q 1098 758 1069 873 q 1161 673 1114 679 q 1176 662 1175 673 q 1160 645 1177 651 q 981 502 1029 600 q 988 251 933 404 q 1058 154 1013 182 q 1156 158 1103 125 q 1185 159 1176 170 q 1181 135 1195 147 q 1092 62 1137 98 q 1002 -12 1046 25 q 987 -12 995 -17 q 809 245 832 103 q 991 583 785 388 q 997 592 998 588 q 991 600 996 597 q 917 764 943 630 q 877 853 903 831 q 801 876 851 876 q 729 841 760 876 q 680 755 697 806 q 681 746 679 749 q 725 559 721 660 q 681 322 729 439 q 550 111 633 206 q 381 -12 460 4 q 238 67 303 -28 q 122 88 181 153 q 96 86 107 74 q 100 114 85 99 q 391 163 285 302 q 423 121 408 140 q 469 103 438 101 q 551 189 508 104 q 595 402 595 273 q 507 698 593 571 q 308 837 420 825 q 132 796 196 849 q 69 669 67 743 q 109 549 71 594 q 248 531 146 505 q 418 387 444 581 q 399 363 414 361 q 384 381 383 364 z "},"O":{"ha":1047,"x_min":37,"x_max":986,"o":"m 41 162 q 247 276 190 280 q 444 169 304 272 q 683 81 583 67 q 850 189 783 94 q 883 438 913 277 q 691 716 854 600 q 457 819 576 798 q 238 780 338 841 q 184 672 175 741 q 292 566 193 602 q 486 423 477 498 q 383 256 494 348 q 362 253 370 245 q 363 271 354 260 q 363 335 397 309 q 214 405 330 360 q 46 596 42 470 q 207 804 50 722 q 369 889 305 850 q 466 989 433 928 q 477 995 469 996 q 773 883 640 974 q 960 654 907 792 q 986 383 1014 513 q 875 164 958 253 q 585 -9 736 14 q 282 64 433 -32 q 159 139 215 106 q 54 141 103 172 q 37 143 44 135 q 41 162 30 152 z "},"P":{"ha":1238,"x_min":21,"x_max":1201,"o":"m 390 509 q 414 511 404 521 q 407 482 425 500 q 345 450 380 458 q 273 441 309 442 q 93 506 165 439 q 21 690 21 574 q 111 890 21 806 q 356 973 201 973 q 513 926 450 971 q 613 821 577 882 q 627 817 618 811 l 921 969 q 949 967 941 978 q 945 945 958 956 q 932 849 897 910 q 1048 722 968 787 q 1201 452 1209 589 q 1101 188 1192 314 q 895 0 996 46 q 652 31 793 -47 q 642 32 647 35 q 636 24 637 29 q 601 -119 626 -62 q 526 -225 576 -177 q 508 -228 516 -234 q 507 -210 500 -222 q 541 82 559 -101 q 534 91 541 88 q 332 79 399 144 q 310 75 320 67 q 309 96 299 83 q 515 241 414 233 q 523 245 520 242 q 525 254 525 248 q 508 428 517 341 q 492 603 500 515 q 425 774 481 702 q 283 848 368 846 q 130 803 192 852 q 67 665 67 754 q 124 525 67 576 q 277 473 182 473 q 390 509 346 472 m 636 771 q 652 709 648 740 q 658 650 656 677 q 656 405 662 505 q 648 221 650 304 q 654 211 648 213 q 727 173 688 196 q 946 110 865 94 q 1076 203 1027 126 q 942 568 1183 373 q 804 693 860 633 q 744 820 748 753 q 739 830 744 828 q 728 829 733 832 l 642 785 q 636 771 632 780 z "},"Q":{"ha":1107,"x_min":36,"x_max":1067,"o":"m 40 162 q 245 276 189 280 q 443 170 302 273 q 746 98 619 41 q 752 107 753 101 q 749 116 752 113 q 681 164 716 153 q 600 147 645 176 q 575 146 584 138 q 579 167 566 155 q 740 274 684 266 q 851 222 796 283 q 861 219 855 218 q 870 226 867 220 q 875 466 912 321 q 690 718 838 611 q 456 821 575 799 q 237 781 336 842 q 182 672 174 742 q 290 566 191 602 q 484 424 475 498 q 382 257 493 349 q 362 253 370 246 q 362 272 353 260 q 362 335 396 310 q 212 406 328 361 q 45 596 41 471 q 205 804 49 722 q 369 893 306 857 q 465 991 431 930 q 476 996 469 997 q 772 884 639 975 q 959 655 905 793 q 987 400 1010 524 q 893 188 965 277 q 894 173 887 179 q 977 127 943 122 q 1041 170 1010 132 q 1065 176 1051 184 q 1067 149 1079 168 q 939 8 1000 52 q 786 71 878 -35 q 771 73 779 78 q 281 64 534 -96 q 158 139 214 106 q 53 142 102 172 q 36 144 43 136 q 40 162 29 153 z "},"R":{"ha":1292,"x_min":33,"x_max":1252,"o":"m 153 96 q 134 95 142 87 q 138 116 127 104 q 304 225 245 229 q 401 172 363 221 q 481 101 448 109 q 543 125 515 92 q 605 269 592 185 q 614 447 618 352 q 564 656 609 561 q 410 801 519 751 q 184 803 281 860 q 89 628 87 745 q 138 490 89 547 q 275 421 186 432 q 443 464 366 410 q 458 462 452 470 q 450 442 463 454 q 267 389 374 382 q 99 460 163 395 q 33 631 35 526 q 177 914 35 824 q 479 958 318 1004 q 671 798 598 923 q 682 790 675 790 q 692 800 688 790 q 806 946 720 892 q 995 948 893 1000 q 1133 776 1097 897 q 1193 694 1164 682 q 1214 689 1207 700 q 1203 668 1221 679 l 966 529 q 961 521 961 526 q 964 511 960 515 q 1073 310 1054 431 q 1141 141 1103 191 q 1229 132 1180 92 q 1252 132 1242 143 q 1244 107 1261 120 q 1158 44 1201 76 q 1073 -19 1116 12 q 1062 -20 1069 -22 q 897 237 946 21 q 852 384 878 334 q 782 423 827 434 q 763 428 765 418 q 776 447 760 438 l 1030 606 q 1036 614 1034 608 q 1032 624 1036 618 q 974 684 1000 652 q 939 755 947 715 q 874 861 922 829 q 776 866 826 892 q 718 783 727 840 q 721 676 709 725 q 735 427 751 556 q 672 243 722 328 q 539 69 623 158 q 385 -14 456 -20 q 269 51 315 -9 q 202 107 231 101 q 153 96 174 113 z "},"S":{"ha":1053,"x_min":38,"x_max":1002,"o":"m 937 914 q 969 921 953 933 q 966 890 985 908 q 881 810 915 842 q 817 762 846 779 q 714 744 764 732 q 571 804 663 757 q 396 856 475 852 q 249 794 317 860 q 162 665 182 730 q 144 531 142 600 q 289 259 149 368 q 635 155 429 149 q 884 220 779 157 q 971 406 988 282 q 869 511 957 505 q 675 450 782 517 q 473 371 536 361 q 298 535 410 381 q 297 560 284 553 q 322 549 310 568 q 427 513 363 489 q 568 582 491 537 q 667 635 621 611 q 784 642 713 659 q 917 570 852 625 q 1002 429 981 514 q 999 293 1019 354 q 947 183 979 232 q 784 38 886 92 q 551 -16 682 -16 q 196 114 358 -16 q 38 472 34 243 q 522 987 43 795 q 570 984 545 996 q 847 882 781 880 q 937 914 914 884 z "},"T":{"ha":1040,"x_min":33,"x_max":1002,"o":"m 366 482 q 261 457 330 457 q 99 521 165 459 q 33 673 33 583 q 137 898 33 805 q 399 991 241 991 q 652 928 533 992 q 861 800 771 865 q 976 800 923 753 q 1002 803 991 814 q 1000 781 1013 793 l 883 683 q 705 692 805 626 q 501 817 608 760 q 305 873 394 873 q 139 814 201 873 q 76 680 77 755 q 256 484 73 502 q 349 507 308 477 q 372 505 365 517 q 366 482 380 492 m 70 266 q 209 355 151 332 q 337 343 292 391 q 548 154 463 213 q 695 81 633 94 q 804 90 757 68 q 904 144 852 112 q 933 145 924 157 q 926 121 942 134 q 789 28 861 67 q 632 -12 718 -11 q 442 35 546 -13 q 210 205 338 83 q 125 246 167 247 q 78 234 103 246 q 56 239 62 227 q 70 266 50 251 m 532 755 q 505 673 482 716 q 604 572 528 630 q 725 378 736 470 q 540 222 715 287 q 519 226 526 216 q 526 244 513 236 q 574 336 592 287 q 472 450 556 386 q 364 607 373 524 q 514 776 355 690 q 538 775 530 785 q 532 755 547 766 z "},"U":{"ha":990,"x_min":33,"x_max":951,"o":"m 782 -9 q 690 53 713 24 q 663 168 666 85 q 657 179 663 177 q 644 174 650 181 q 587 114 616 144 q 530 53 558 83 q 251 70 397 -85 q 151 141 200 123 q 54 117 101 158 q 34 117 42 107 q 38 138 25 126 l 210 282 l 210 283 q 274 427 296 366 q 192 549 251 488 q 107 673 142 600 q 127 837 73 746 q 240 940 170 908 q 363 969 311 971 q 483 891 458 965 q 442 768 507 818 q 417 769 427 756 q 422 795 406 781 q 449 885 477 838 q 364 937 421 933 q 288 909 323 939 q 252 837 253 879 q 281 728 249 758 q 335 677 313 699 q 432 478 446 563 q 256 283 417 393 q 250 272 249 279 q 260 264 250 266 q 325 229 302 254 q 374 180 348 203 q 528 127 461 98 q 659 229 595 155 q 662 236 662 232 l 658 726 q 620 791 658 776 q 621 823 589 805 q 757 890 689 856 q 893 958 825 924 q 915 955 905 964 q 909 933 924 946 q 839 831 857 895 q 821 682 821 767 l 826 204 q 930 133 827 96 q 951 129 943 138 q 948 111 958 120 l 819 -6 q 800 -14 810 -13 q 782 -9 790 -14 z "},"V":{"ha":1232,"x_min":31,"x_max":1156,"o":"m 258 477 q 337 488 296 476 q 409 526 378 499 q 431 529 421 536 q 429 511 440 522 q 271 442 355 440 q 98 514 165 444 q 31 698 31 583 q 124 901 31 812 q 357 991 217 991 q 635 853 542 991 q 647 846 642 845 q 655 856 652 847 q 747 969 677 924 q 905 987 817 1013 q 1042 868 994 961 q 1075 801 1061 831 q 1115 767 1089 771 q 1123 741 1158 758 q 988 610 985 671 q 1059 491 991 548 q 1155 274 1199 372 q 1002 86 1112 176 q 710 -15 859 -30 q 425 119 561 -1 q 304 197 357 178 q 206 169 252 216 q 181 165 192 155 q 184 189 170 176 q 331 307 272 277 q 448 319 390 337 q 460 323 456 318 q 532 450 506 380 q 555 597 559 520 q 477 775 551 685 q 281 861 404 865 q 141 803 201 854 q 81 671 81 751 q 127 536 81 592 q 258 477 174 481 m 685 724 q 680 592 693 663 q 610 449 666 521 q 491 318 553 376 q 487 308 486 313 q 494 300 488 303 q 562 253 526 281 q 643 186 598 224 q 824 77 737 105 q 975 102 911 49 q 1026 222 1044 160 q 939 351 1008 285 q 861 517 842 441 q 972 669 879 593 q 977 679 977 673 q 969 687 976 684 q 908 745 931 705 q 868 829 884 785 q 817 902 852 872 q 737 910 782 932 q 686 851 701 892 q 685 724 671 810 z "},"W":{"ha":1497,"x_min":34,"x_max":1451,"o":"m 261 469 q 412 516 353 465 q 434 520 425 528 q 434 504 443 513 q 275 433 358 430 q 102 505 169 435 q 34 688 35 574 q 124 894 28 806 q 360 982 220 982 q 612 879 515 982 q 629 880 621 870 q 738 986 695 985 q 853 889 781 988 q 870 887 861 879 q 891 907 884 901 q 1124 984 989 997 q 1320 852 1259 972 q 1348 780 1338 814 q 1392 724 1358 745 q 1411 704 1411 713 q 1398 692 1411 694 q 1310 653 1353 682 q 1280 561 1263 604 q 1369 467 1297 518 q 1451 304 1461 400 q 1339 110 1441 208 q 1099 -16 1211 -15 q 897 77 987 -16 q 799 87 852 123 q 556 -8 652 -28 q 395 100 459 11 q 171 170 290 244 q 148 169 155 159 q 151 188 140 178 q 314 291 246 271 q 435 292 382 311 q 448 295 444 290 q 531 429 500 354 q 559 588 563 505 q 481 766 554 675 q 285 846 408 857 q 150 791 212 840 q 85 663 89 742 q 131 528 84 583 q 261 469 178 472 m 1245 652 q 1180 724 1202 684 q 1139 807 1159 765 q 1027 917 1095 893 q 915 892 960 941 q 871 779 869 842 q 940 624 873 715 q 1023 432 1015 518 q 967 257 1030 347 q 964 246 962 251 q 974 240 965 241 q 1042 199 1003 233 q 1212 80 1147 84 q 1316 124 1278 75 q 1339 208 1345 160 q 1223 345 1333 256 q 1182 576 1073 465 q 1246 633 1215 609 q 1250 643 1250 637 q 1245 652 1250 648 m 645 836 q 684 589 711 730 q 604 427 668 505 q 473 289 541 349 q 475 271 465 279 q 547 205 506 250 q 679 104 614 128 q 831 155 743 79 q 893 312 914 226 q 810 488 872 398 q 753 678 740 589 q 831 846 766 767 q 831 861 838 852 q 736 916 779 918 q 645 848 694 914 q 645 836 641 842 z "},"X":{"ha":1001,"x_min":49,"x_max":963,"o":"m 337 529 q 366 523 359 537 q 352 503 372 509 q 156 508 238 465 q 49 668 74 551 q 104 886 24 785 q 314 987 183 987 q 514 924 446 987 q 609 758 581 861 q 619 750 611 750 q 630 758 627 750 q 709 952 663 890 q 830 960 755 1014 q 938 956 899 909 q 958 961 946 966 q 963 937 969 956 q 875 794 924 821 q 775 807 825 768 q 706 822 733 838 q 662 767 678 805 q 638 684 645 730 q 631 613 631 639 q 634 605 631 608 q 642 602 637 602 l 852 602 q 860 583 870 602 l 806 490 q 776 471 795 471 l 647 471 q 639 468 643 471 q 636 460 635 464 q 741 182 652 246 q 910 165 829 118 q 932 166 923 173 q 934 151 941 160 q 857 60 899 104 q 796 -3 824 26 q 771 -13 787 -12 q 743 -9 756 -14 q 509 254 558 41 q 499 264 507 264 q 488 254 490 264 q 351 1 429 22 q 225 16 274 -20 q 111 31 140 79 q 94 27 104 21 q 92 51 84 33 q 214 207 160 197 q 315 174 268 216 q 404 150 370 121 q 457 239 438 179 q 483 366 476 299 q 491 460 490 433 q 488 468 492 465 q 481 471 485 471 l 399 471 q 391 490 373 471 l 474 583 q 490 596 479 589 q 494 606 494 599 q 436 784 486 718 q 302 851 386 851 q 149 798 203 850 q 96 670 94 745 q 167 543 98 594 q 337 529 235 491 z "},"Y":{"ha":1190,"x_min":31,"x_max":1154,"o":"m 258 481 q 409 529 349 477 q 431 533 420 541 q 431 517 441 526 q 271 446 355 444 q 98 518 165 448 q 31 701 31 587 q 124 905 31 815 q 357 995 217 995 q 527 954 448 995 q 650 838 606 912 q 699 936 660 892 q 801 996 737 979 q 963 970 888 1018 q 1067 831 1039 922 q 1133 710 1105 705 q 1153 700 1149 713 q 1133 678 1157 687 q 990 574 1004 625 q 1057 384 975 523 q 1117 101 1150 221 q 964 -111 1084 -18 q 810 -192 888 -165 q 653 -216 732 -218 q 435 -165 528 -213 q 273 -29 343 -117 q 274 -11 264 -18 q 294 -16 283 -3 q 448 -133 365 -93 q 645 -173 532 -173 q 921 -22 858 -163 q 869 304 983 119 q 829 486 802 413 q 976 622 856 558 q 982 632 982 627 q 976 642 982 637 q 926 685 951 654 q 887 787 901 717 q 846 882 875 842 q 758 916 817 922 q 690 864 710 909 q 682 762 671 819 q 681 602 699 684 q 594 387 650 464 q 475 253 537 309 q 471 243 471 250 q 478 235 472 236 q 547 192 501 224 q 655 151 611 141 q 736 203 699 161 q 764 210 751 219 q 766 184 777 201 q 704 112 730 144 q 661 56 679 80 q 558 3 621 -1 q 433 64 495 7 q 317 89 365 127 q 294 88 302 78 q 300 114 285 98 q 384 195 340 156 q 461 283 429 234 q 531 438 505 349 q 555 602 558 528 q 477 779 551 688 q 281 859 404 869 q 142 808 203 861 q 81 675 81 755 q 127 540 81 596 q 258 481 174 484 z "},"Z":{"ha":925,"x_min":32,"x_max":888,"o":"m 353 576 q 373 558 375 575 q 345 542 372 542 q 206 598 264 543 q 157 765 149 652 q 262 948 166 878 q 517 1015 359 1017 q 727 942 633 1015 q 823 768 821 869 q 777 626 823 678 q 661 545 730 574 q 654 533 653 541 q 664 524 654 526 q 825 427 764 496 q 888 262 886 357 q 850 78 890 157 q 743 -50 809 -1 q 431 -156 551 -187 q 222 -35 310 -125 q 130 41 163 24 q 56 28 96 58 q 32 29 42 17 q 41 58 22 41 q 229 150 149 159 q 383 56 310 142 q 553 -79 477 -54 q 705 -34 629 -105 q 762 101 762 19 q 709 265 762 184 q 373 418 577 464 q 343 433 347 414 q 369 457 340 453 q 590 539 507 481 q 678 691 672 597 q 614 829 684 779 q 422 877 544 878 q 275 836 326 876 q 217 725 223 796 q 249 617 212 654 q 353 576 286 580 z "},"[":{"ha":254,"x_min":23,"x_max":218,"o":"m 39 1027 q 121 1027 69 1027 q 203 1027 172 1027 q 218 1010 218 1027 l 218 1006 q 203 990 218 990 l 163 990 q 148 975 148 990 l 148 -14 q 163 -29 148 -29 l 203 -29 q 218 -45 218 -29 l 218 -50 q 203 -66 218 -66 q 121 -66 172 -66 q 39 -66 69 -66 q 23 -50 23 -66 l 23 1010 q 39 1027 23 1027 z "},"\\":{"ha":149,"x_min":-254,"x_max":582,"o":"m 561 899 l 581 882 q 582 866 589 873 l -217 -57 q -233 -58 -224 -66 l -253 -41 q -254 -25 -261 -35 l 545 898 q 561 899 551 906 z "},"]":{"ha":254,"x_min":23,"x_max":218,"o":"m 203 -66 q 121 -66 172 -66 q 39 -66 69 -66 q 23 -50 23 -66 l 23 -45 q 39 -29 23 -29 l 78 -29 q 94 -14 94 -29 l 94 975 q 78 990 94 990 l 39 990 q 23 1006 23 990 l 23 1011 q 39 1027 23 1027 q 121 1027 69 1027 q 203 1027 172 1027 q 218 1011 218 1027 l 218 -50 q 203 -66 218 -66 z "},"^":{"ha":581,"x_min":28,"x_max":541,"o":"m 541 642 l 541 615 q 535 605 541 607 q 524 606 529 602 l 292 802 q 278 802 284 809 l 46 606 q 35 605 40 602 q 28 615 28 607 l 28 642 q 31 648 28 647 l 276 974 q 285 979 279 979 q 294 974 289 979 l 539 648 q 541 642 541 646 z "},"_":{"ha":633,"x_min":-12,"x_max":644,"o":"m -1 -157 l 633 -157 q 644 -168 644 -157 l 644 -245 q 633 -257 644 -257 l -1 -257 q -12 -245 -12 -257 l -12 -168 q -1 -157 -12 -157 z "},"`":{"ha":694,"x_min":225,"x_max":431,"o":"m 277 840 q 225 924 225 890 q 290 972 225 972 q 338 955 317 972 q 377 876 355 940 l 431 715 l 406 715 l 277 840 z "},"a":{"ha":640,"x_min":36,"x_max":604,"o":"m 362 96 q 286 38 328 69 q 210 -20 245 6 q 190 -28 197 -30 q 184 -16 183 -27 q 142 38 184 -2 q 36 308 32 142 q 168 549 40 450 q 242 612 208 578 q 302 692 276 645 q 332 694 313 713 q 538 556 435 577 q 545 530 571 550 q 511 473 513 507 l 511 472 l 513 162 q 535 119 513 131 q 585 137 558 108 q 604 143 595 149 q 604 122 613 137 q 557 50 580 85 q 519 -23 534 15 l 518 -24 q 495 -24 509 -39 q 477 -13 488 -16 q 380 90 400 4 q 373 98 378 94 q 362 96 367 98 m 370 495 q 271 560 328 507 q 228 566 244 593 q 172 330 156 459 q 302 101 193 144 q 303 100 302 101 q 370 134 331 92 q 373 141 373 138 q 372 173 372 151 l 378 484 q 370 495 378 492 z "},"b":{"ha":617,"x_min":38,"x_max":587,"o":"m 38 888 q 40 908 30 901 q 60 903 50 915 q 109 821 92 862 q 118 812 112 813 q 129 819 124 810 q 372 957 203 939 q 389 945 387 958 q 373 930 390 932 q 275 893 304 927 q 248 759 247 859 l 250 583 q 254 573 250 575 q 266 574 259 570 q 351 623 308 596 q 431 685 394 650 q 460 676 455 711 q 481 631 462 651 q 515 593 500 612 q 587 376 593 492 q 510 187 581 259 q 445 129 481 157 q 385 70 410 100 l 384 71 q 323 -24 343 18 q 298 -24 313 -43 q 71 116 224 68 q 57 128 56 121 q 68 138 58 135 q 111 228 111 153 l 109 639 q 89 789 109 731 q 38 888 68 847 m 250 537 l 252 192 q 260 178 252 182 l 364 115 q 393 118 381 106 l 404 131 q 406 132 406 131 q 460 330 460 212 q 432 453 460 397 q 360 559 405 508 q 255 547 331 591 q 250 537 250 543 z "},"c":{"ha":492,"x_min":40,"x_max":458,"o":"m 231 -20 q 213 5 229 -3 q 186 21 197 13 q 76 150 109 74 q 40 312 44 227 q 144 606 32 505 q 237 665 184 642 q 344 702 289 688 q 369 685 359 705 l 448 525 q 444 503 458 505 q 352 467 393 495 q 321 479 333 455 l 250 626 q 226 630 243 640 q 169 504 181 604 q 174 321 157 404 q 285 120 206 164 q 442 106 363 76 q 458 105 452 111 q 454 92 463 96 q 350 35 399 64 q 260 -26 300 6 q 242 -28 254 -30 q 231 -20 231 -27 z "},"d":{"ha":631,"x_min":34,"x_max":607,"o":"m 175 945 q 123 882 121 930 q 158 825 123 851 q 238 790 192 799 q 239 789 239 790 q 487 651 382 736 q 607 403 593 566 l 607 401 q 548 197 593 279 q 442 73 503 116 l 441 72 q 374 28 413 47 q 306 -11 336 9 q 281 -11 287 -24 q 72 127 243 79 q 61 137 62 129 q 68 149 60 145 q 111 239 111 165 l 110 521 q 132 543 110 545 q 267 589 199 534 q 271 600 271 592 q 264 608 270 605 q 213 629 239 618 q 163 652 187 640 q 70 726 100 680 q 34 816 39 771 l 34 819 q 164 964 51 949 q 183 957 182 966 q 175 945 185 947 m 307 589 q 296 587 301 591 l 264 562 q 250 538 250 552 l 253 203 q 261 189 253 193 l 408 102 q 440 111 425 92 q 487 339 501 197 q 370 555 473 482 q 307 589 351 568 z "},"e":{"ha":503,"x_min":40,"x_max":467,"o":"m 231 -19 q 213 5 229 -3 q 186 22 197 14 q 76 151 109 75 q 40 313 44 227 q 144 607 32 506 q 237 666 184 643 q 344 703 289 688 q 369 686 361 706 l 467 456 q 462 433 473 438 l 460 433 l 182 326 q 176 313 174 321 q 287 120 209 162 q 442 107 365 77 q 459 105 456 113 q 454 93 463 97 q 350 36 399 65 q 260 -25 300 7 q 242 -28 254 -29 q 231 -19 231 -26 m 168 364 q 172 356 168 359 q 182 355 176 353 l 327 410 q 333 424 337 414 l 250 627 q 226 631 244 642 q 172 526 186 608 q 168 364 158 444 z "},"f":{"ha":339,"x_min":-13,"x_max":401,"o":"m 222 686 l 339 686 q 350 675 350 686 l 350 633 q 339 622 350 622 l 257 622 q 249 618 252 622 q 246 610 245 614 q 244 504 250 572 l 176 -210 q 162 -233 173 -233 q 149 -208 151 -233 q 114 206 132 -1 q 77 621 96 413 l -2 621 q -13 630 -12 621 q -5 642 -13 640 q 68 687 39 649 q 94 786 98 725 q 119 948 89 882 q 238 984 149 1013 q 329 955 288 967 q 387 968 370 942 q 401 981 395 983 q 399 954 408 979 q 336 850 375 877 q 215 863 297 823 q 122 826 136 899 q 151 731 108 753 q 206 693 193 708 q 222 686 214 686 z "},"g":{"ha":646,"x_min":39,"x_max":566,"o":"m 404 83 q 286 34 355 61 q 179 -22 218 6 q 159 -30 165 -32 q 154 -18 153 -28 q 143 23 155 -6 q 117 75 132 52 q 60 191 73 138 q 39 315 47 243 q 70 446 32 384 q 171 555 109 507 q 245 618 210 585 q 305 699 279 652 q 336 701 317 720 q 553 562 437 585 q 566 540 583 554 q 510 353 503 448 q 554 160 517 258 l 554 159 l 555 159 q 514 -165 616 -64 q 311 -276 412 -266 q 81 -186 138 -293 q 81 -140 68 -162 q 118 -115 94 -119 q 203 -177 166 -106 q 349 -239 253 -278 q 444 -119 432 -204 q 420 75 456 -35 q 419 77 420 77 l 418 78 q 404 83 414 88 m 443 462 q 353 510 405 477 q 276 565 300 543 l 275 566 q 275 567 275 566 q 231 573 250 603 q 174 336 159 466 q 212 178 184 250 q 296 83 239 105 l 296 82 l 297 82 q 395 111 335 72 q 400 123 402 114 q 379 282 372 201 q 448 446 386 362 q 443 462 454 456 z "},"h":{"ha":616,"x_min":37,"x_max":587,"o":"m 37 892 q 39 912 28 905 q 59 907 49 919 q 107 827 89 869 q 117 820 109 820 q 127 825 123 819 q 251 934 167 896 q 422 965 336 972 q 440 951 440 964 q 423 939 440 937 q 299 906 352 943 q 247 762 246 869 l 248 610 q 254 601 248 604 q 264 601 259 597 q 339 646 302 621 q 409 701 377 670 q 437 692 434 726 q 458 647 440 667 q 492 608 477 627 q 587 356 584 492 q 446 4 591 157 q 182 -230 301 -149 q 158 -234 166 -241 q 163 -216 151 -226 q 356 -31 258 -131 q 444 288 453 70 q 418 449 440 373 q 338 574 396 524 q 255 574 308 600 q 249 564 249 572 l 252 154 q 296 109 252 99 q 313 119 305 111 q 329 132 320 126 q 346 131 338 138 q 346 117 353 124 q 279 49 313 80 q 227 -20 245 18 q 202 -20 218 -36 q 71 78 142 45 q 67 100 47 90 q 110 190 111 115 l 109 643 q 88 793 108 734 q 37 892 68 851 z "},"i":{"ha":379,"x_min":27,"x_max":341,"o":"m 112 159 l 107 531 q 103 552 107 544 q 75 565 87 578 l 48 537 q 27 534 37 525 q 31 561 18 544 q 84 635 60 598 q 133 709 108 673 q 158 709 144 722 q 214 648 186 674 q 291 593 241 622 q 303 580 305 587 q 294 572 302 572 q 263 548 277 565 q 250 493 250 532 l 250 206 q 275 121 250 137 q 324 136 305 104 q 341 142 331 149 q 340 119 351 135 q 302 55 320 87 q 267 -9 285 22 q 235 -18 254 -28 q 143 54 174 12 q 112 159 112 96 m 210 964 q 279 892 286 964 q 233 818 275 855 q 167 782 191 781 q 130 821 142 782 q 119 892 117 859 q 150 944 121 923 q 210 964 178 964 z "},"j":{"ha":337,"x_min":-72,"x_max":312,"o":"m 91 530 q 85 570 90 562 q 59 585 71 598 l 32 557 q 11 555 21 545 q 15 581 1 566 q 68 655 45 618 q 117 729 92 692 q 142 728 129 743 q 197 666 170 692 q 275 612 224 639 q 287 600 289 607 q 278 591 286 592 q 246 569 259 587 q 233 513 233 551 l 233 60 q 252 -81 231 -24 q 311 -175 273 -137 q 312 -196 323 -189 q 290 -190 301 -203 q 258 -149 275 -171 q 230 -104 241 -127 q 220 -98 227 -98 q 210 -103 214 -98 q 99 -213 170 -171 q -55 -252 28 -254 q -72 -238 -72 -251 q -55 -226 -72 -226 q 53 -187 12 -226 q 93 -46 93 -149 l 91 530 m 194 984 q 262 911 271 984 q 217 838 258 875 q 151 802 175 801 q 114 840 126 802 q 103 911 101 879 q 133 963 105 943 q 194 984 161 984 z "},"k":{"ha":451,"x_min":28,"x_max":420,"o":"m 28 577 q 42 589 29 587 q 100 624 83 600 q 115 711 117 649 q 88 817 107 776 q 39 889 68 859 q 37 909 27 901 q 59 904 46 917 q 91 863 75 885 q 119 819 108 842 q 129 812 123 812 q 139 817 136 812 q 251 927 180 885 q 404 966 321 968 q 420 952 418 965 q 404 940 421 940 q 297 901 337 940 q 256 753 256 863 q 265 742 256 744 q 278 748 273 739 q 404 862 319 838 q 418 851 418 863 l 418 731 q 406 720 418 717 q 277 677 332 730 q 269 648 267 663 q 286 633 270 633 l 403 633 q 414 623 414 633 l 414 579 q 403 568 414 568 l 266 568 q 256 555 256 568 l 256 173 q 266 145 256 151 l 315 117 q 361 150 330 110 q 378 151 368 158 q 379 136 387 144 q 270 -20 308 57 q 245 -20 262 -34 q 179 49 211 26 q 78 85 146 73 q 67 95 67 87 q 74 107 66 104 q 105 130 91 113 q 119 185 119 146 l 118 554 q 104 568 118 568 l 43 568 q 28 577 27 568 z "},"l":{"ha":379,"x_min":35,"x_max":418,"o":"m 35 891 q 35 909 26 901 q 56 906 43 918 q 89 865 72 887 q 117 821 105 844 q 126 814 120 814 q 136 819 133 814 q 248 929 176 887 q 401 968 319 970 q 418 955 417 967 q 401 942 418 942 q 294 903 334 942 q 254 762 254 865 l 253 175 q 263 147 253 153 l 312 119 q 359 152 329 113 q 377 156 366 162 q 376 138 388 151 q 267 -18 305 59 q 243 -18 259 -32 q 174 50 210 25 q 75 87 139 75 q 64 97 64 89 q 71 109 64 106 q 102 132 88 115 q 116 187 116 149 l 115 643 q 94 797 115 741 q 35 891 73 853 z "},"m":{"ha":985,"x_min":45,"x_max":941,"o":"m 275 533 l 274 245 q 315 120 273 135 q 319 111 319 116 q 315 102 319 105 q 216 -20 255 58 q 205 -26 212 -26 q 195 -20 199 -26 q 92 101 156 57 q 88 111 88 105 q 93 120 88 116 q 137 245 138 135 l 137 485 q 111 570 137 554 q 62 555 81 589 q 45 548 55 541 q 46 572 35 554 q 84 636 66 604 q 121 701 102 669 q 151 709 132 721 l 152 709 q 270 589 250 661 q 277 582 272 583 q 288 583 283 580 q 358 645 321 612 q 410 701 395 677 q 439 709 420 720 q 558 592 537 661 q 566 583 561 583 q 576 587 572 583 q 648 649 612 616 q 698 709 684 681 q 722 709 705 727 q 792 641 763 666 q 890 604 821 616 q 901 595 901 602 q 894 583 901 583 q 863 559 876 576 q 849 504 849 543 l 849 209 q 875 124 849 140 q 924 139 905 106 q 940 145 930 152 q 941 121 950 138 q 902 57 920 90 q 865 -7 884 25 q 835 -16 853 -26 q 742 58 773 14 q 711 161 711 101 l 712 517 q 701 545 712 537 l 644 592 q 628 593 636 597 q 574 550 584 559 q 564 532 564 542 l 563 245 q 604 120 563 134 q 609 111 609 115 q 604 102 609 106 q 505 -20 545 59 q 494 -26 500 -26 q 485 -20 487 -26 q 382 101 446 56 q 377 110 377 104 q 382 120 377 115 q 427 245 430 135 l 426 485 q 400 570 426 535 q 336 586 368 612 l 279 543 l 276 538 l 275 533 z "},"n":{"ha":700,"x_min":42,"x_max":659,"o":"m 271 245 q 311 119 270 136 q 316 110 316 115 q 311 101 316 104 q 212 -22 250 55 q 202 -27 208 -27 q 192 -22 196 -27 q 89 100 154 55 q 85 109 85 103 q 90 119 85 115 q 134 245 134 136 l 134 470 q 108 555 134 539 q 59 541 78 574 q 42 534 52 526 q 43 557 33 541 q 80 621 62 589 q 117 686 98 654 q 148 694 128 706 l 149 694 q 268 571 248 644 q 275 562 269 564 q 286 565 280 561 q 362 631 323 596 q 416 694 401 665 q 440 694 423 712 q 510 626 481 651 q 608 589 538 601 q 620 578 620 586 q 612 568 621 570 q 581 544 594 561 q 567 489 567 528 l 567 202 q 593 117 567 133 q 641 132 623 99 q 658 138 648 145 q 658 115 668 131 q 620 51 637 83 q 583 -14 602 18 q 553 -22 571 -33 q 429 155 429 37 l 430 502 q 420 528 430 522 l 419 528 l 419 530 l 361 577 q 346 578 354 583 l 275 523 q 271 515 271 519 l 271 245 z "},"o":{"ha":574,"x_min":-1,"x_max":539,"o":"m 262 -12 q 237 -12 252 -29 q 11 127 163 81 q -1 138 -1 131 q 7 149 -1 146 q 50 239 50 164 l 48 585 q 47 597 48 593 q 48 605 45 602 q 57 610 50 609 q 378 708 237 625 q 389 710 384 711 q 395 701 394 709 q 467 557 406 627 q 522 446 500 516 q 539 328 544 375 q 503 230 532 273 q 437 149 474 186 q 342 76 393 106 q 262 -12 291 46 m 189 594 l 191 203 q 199 189 191 193 l 319 115 q 352 121 337 103 q 410 288 416 191 q 387 395 409 348 q 332 479 365 443 q 252 612 279 533 q 245 618 250 616 q 237 618 241 621 q 196 606 216 611 q 189 594 189 603 z "},"p":{"ha":626,"x_min":5,"x_max":596,"o":"m 118 803 q 92 742 88 772 q 140 699 95 713 q 218 653 199 682 q 241 588 237 625 q 247 579 241 581 q 257 579 252 577 q 434 699 343 629 q 445 701 439 703 q 452 692 450 698 q 479 630 458 656 q 522 579 500 604 q 596 368 606 485 q 496 149 587 225 q 343 -9 397 65 q 328 -12 336 -18 q 294 8 311 -1 q 260 28 277 18 q 249 28 254 31 q 244 19 244 26 q 223 -125 236 -54 q 197 -267 211 -195 q 185 -276 194 -276 q 174 -267 176 -275 q 148 -91 160 -184 q 128 88 135 2 q 121 98 127 96 q 24 92 52 123 q 11 88 18 85 q 5 100 5 90 q 111 217 5 210 q 121 228 121 217 l 121 249 q 118 394 121 350 q 113 501 115 438 q 97 548 111 532 q 68 576 83 564 q 17 689 7 627 q 98 814 28 750 q 119 820 110 827 q 118 803 127 812 m 252 189 q 258 178 252 180 q 326 141 293 161 q 393 102 359 121 q 408 106 403 98 q 446 185 429 138 q 465 302 464 232 q 437 432 467 374 q 373 541 408 489 q 249 549 337 591 q 242 538 242 545 q 243 514 243 530 l 252 245 q 252 189 252 226 z "},"q":{"ha":597,"x_min":26,"x_max":559,"o":"m 358 106 q 280 47 323 80 q 199 -14 236 14 q 180 -22 187 -24 q 174 -10 173 -21 q 132 44 174 4 q 26 314 22 148 q 158 555 30 456 q 232 618 197 585 q 292 699 266 651 q 322 700 303 720 q 430 604 370 645 q 544 552 490 562 l 546 553 q 559 549 553 555 q 558 535 566 538 q 507 480 515 519 q 500 400 499 441 l 507 124 q 493 -87 509 -23 q 451 -273 477 -151 q 440 -285 449 -286 q 430 -273 431 -285 q 394 -75 410 -157 q 376 98 378 8 q 370 108 375 105 q 358 106 364 111 m 263 564 l 261 566 q 218 572 238 602 q 161 336 146 465 q 292 107 183 151 q 320 105 306 102 q 374 155 334 109 q 376 162 376 158 q 373 343 375 254 q 368 483 370 433 q 363 491 368 490 q 263 564 316 515 z "},"r":{"ha":504,"x_min":37,"x_max":475,"o":"m 266 509 l 265 180 q 276 152 265 158 l 325 123 q 372 157 340 114 q 389 160 379 165 q 389 143 399 155 q 280 -13 318 64 q 255 -13 269 -28 q 184 54 217 31 q 87 92 151 77 q 75 103 75 96 q 84 114 75 111 q 129 192 130 121 l 129 479 q 103 564 129 548 q 54 549 73 583 q 37 543 47 535 q 38 566 28 550 q 76 630 58 597 q 113 695 94 663 q 143 703 124 715 q 262 581 243 654 q 271 572 264 574 q 281 576 277 570 l 386 696 q 395 700 390 701 q 404 694 401 700 l 475 558 q 474 547 478 552 l 393 449 q 382 445 388 444 q 374 451 376 446 l 319 553 q 311 558 317 557 q 300 554 305 559 l 269 515 q 266 509 266 513 z "},"s":{"ha":580,"x_min":35,"x_max":545,"o":"m 263 840 q 437 829 358 865 q 521 758 491 803 q 545 656 551 712 q 508 572 538 600 q 457 530 477 545 q 420 499 437 515 q 414 441 385 467 q 520 307 506 361 q 500 212 534 253 q 402 103 454 155 q 300 0 351 52 q 269 3 275 -24 q 190 68 260 40 q 40 122 119 96 q 38 142 26 127 q 76 180 56 161 q 115 218 96 199 q 136 268 146 246 q 100 318 126 290 q 36 448 33 387 q 79 554 38 508 q 166 632 118 597 q 258 712 215 668 q 273 709 264 717 q 424 627 363 628 q 503 663 485 627 q 500 741 522 701 q 429 808 478 781 q 267 814 355 844 q 246 822 250 808 q 263 840 243 836 m 155 231 q 159 214 148 220 q 255 170 207 191 q 352 127 303 148 q 420 166 386 113 q 309 342 462 233 q 250 329 285 357 l 155 231 m 248 372 q 263 373 256 366 l 389 496 q 393 509 395 503 q 382 515 391 515 q 297 545 344 519 q 199 603 222 588 q 140 576 176 618 q 139 473 94 522 q 248 372 184 425 z "},"t":{"ha":429,"x_min":20,"x_max":401,"o":"m 260 553 l 259 173 q 269 145 259 152 l 318 117 q 366 150 332 105 q 382 153 372 159 q 383 136 393 146 q 274 -20 311 57 q 249 -20 262 -34 q 178 47 211 25 q 81 85 146 70 q 70 96 71 87 q 78 107 69 104 q 123 185 123 118 l 122 552 q 112 564 123 564 l 32 564 q 20 572 22 564 q 26 585 17 579 q 192 724 107 642 q 345 878 276 805 q 362 882 354 888 q 363 865 371 876 q 300 765 332 827 q 262 652 269 703 q 262 642 260 646 q 272 638 267 638 l 389 638 q 397 635 394 638 q 401 626 401 630 l 398 575 q 387 564 397 564 l 269 564 q 260 553 260 564 z "},"u":{"ha":700,"x_min":41,"x_max":658,"o":"m 429 168 l 429 450 q 388 576 429 564 q 383 585 383 580 q 388 594 383 590 q 488 716 448 637 q 497 722 490 722 q 507 716 504 722 q 610 595 543 638 q 615 585 615 591 q 610 576 615 579 q 566 450 565 564 l 566 212 q 592 126 566 142 q 640 141 621 107 q 657 147 648 154 q 657 123 667 140 q 619 60 637 92 q 583 -4 601 27 q 551 -12 571 -24 q 432 111 450 37 q 424 118 431 116 q 414 116 417 120 q 337 51 376 85 q 284 -12 298 16 q 259 -12 273 -28 q 186 55 222 32 q 92 92 151 78 q 79 104 79 97 q 88 114 80 111 q 119 137 105 120 q 133 192 133 153 l 133 479 q 107 564 133 548 q 58 549 77 582 q 41 543 51 536 q 42 567 32 551 q 80 630 62 597 q 117 695 98 663 q 147 703 128 715 l 148 703 q 271 526 271 638 l 269 179 q 279 153 269 159 l 338 104 q 353 103 345 98 q 425 159 408 146 q 429 168 429 161 z "},"v":{"ha":627,"x_min":0,"x_max":589,"o":"m 84 71 q 70 75 71 66 q 80 95 68 84 q 158 290 158 199 q 94 448 159 382 q 0 624 -16 560 q 105 778 16 688 q 121 781 114 787 q 120 766 128 775 q 113 667 73 709 q 191 578 163 617 q 205 574 196 570 q 319 644 265 607 q 426 722 373 681 q 437 725 431 727 q 444 715 444 723 q 471 652 450 678 q 515 600 492 625 q 589 383 597 503 q 488 159 578 235 q 397 72 444 120 q 319 -18 350 24 q 304 -21 312 -26 q 203 46 267 3 q 84 71 139 89 m 207 182 q 286 143 243 169 q 370 94 333 115 q 385 98 378 88 q 430 187 404 131 q 458 315 456 243 q 429 448 458 389 q 365 561 400 507 q 218 556 326 618 q 214 541 209 551 q 256 353 272 440 q 201 199 242 271 q 200 190 199 196 q 207 182 201 184 z "},"w":{"ha":957,"x_min":47,"x_max":920,"o":"m 591 576 q 682 629 632 598 q 764 690 732 659 q 793 682 788 715 q 814 637 795 656 q 848 598 833 617 q 920 382 928 494 q 843 193 913 264 q 779 134 814 162 q 711 66 743 106 q 656 -18 680 27 q 631 -18 648 -37 q 404 121 558 74 q 394 133 394 126 q 401 143 394 140 q 444 233 444 158 q 442 368 444 300 q 442 503 440 435 l 442 503 q 420 549 441 524 q 356 566 389 591 l 283 510 q 279 500 279 506 q 279 370 279 435 q 280 239 280 304 q 322 113 280 132 q 326 104 326 110 q 322 96 326 98 q 222 -27 256 47 q 212 -33 217 -34 q 202 -27 206 -33 q 100 95 165 48 q 94 104 94 98 q 100 113 94 110 q 144 239 144 134 l 144 366 q 142 492 144 429 q 126 538 141 522 q 98 567 112 555 q 47 679 37 618 q 127 804 58 741 q 149 810 140 817 q 148 793 157 803 q 121 733 118 762 q 170 690 124 703 q 254 637 233 670 q 277 560 274 604 q 283 550 277 553 q 296 552 288 547 q 372 618 330 581 q 430 681 414 654 q 460 689 441 701 q 462 688 460 688 q 575 582 551 644 q 581 574 577 576 q 591 576 585 573 m 584 433 q 585 197 585 276 q 593 183 585 187 l 698 121 q 726 123 715 112 l 738 136 q 794 336 794 218 q 766 458 794 403 q 693 564 739 513 q 616 567 669 591 q 590 553 606 562 q 585 543 583 551 q 584 433 585 524 z "},"x":{"ha":547,"x_min":48,"x_max":517,"o":"m 307 524 l 307 195 q 317 167 307 173 l 366 139 q 413 172 380 132 q 431 173 422 180 q 431 158 439 166 q 357 73 396 124 q 299 -16 317 21 q 289 -23 296 -22 q 275 -16 282 -24 q 230 23 260 -1 q 171 46 200 47 q 102 19 130 47 q 75 -38 73 -9 q 148 -173 76 -125 q 298 -197 219 -222 q 341 -165 318 -191 q 399 -139 365 -139 q 452 -172 433 -138 q 450 -218 463 -196 q 409 -246 437 -239 q 138 -212 246 -288 q 48 -6 29 -136 q 78 75 56 43 q 144 130 101 106 q 171 212 170 149 l 170 494 q 144 578 170 563 q 96 564 115 598 q 78 557 88 550 q 79 581 68 565 q 117 645 99 612 q 153 710 135 677 q 185 718 165 730 q 304 595 284 669 q 312 587 306 589 q 323 591 318 585 l 427 711 q 437 715 431 715 q 446 709 442 715 l 517 573 q 516 562 520 567 l 434 464 q 416 466 425 452 l 360 568 q 352 573 358 572 q 342 569 346 574 l 310 530 q 307 524 307 528 z "},"y":{"ha":650,"x_min":41,"x_max":620,"o":"m 282 595 q 365 644 323 618 q 441 704 406 670 q 470 695 465 729 q 491 650 472 670 q 526 612 510 631 q 620 359 616 496 q 479 7 624 160 q 215 -227 334 -146 q 192 -229 199 -237 q 195 -212 184 -221 q 389 -27 291 -127 q 477 291 486 73 q 450 452 473 376 q 370 578 428 528 q 276 569 338 604 q 271 559 271 566 q 273 338 272 428 q 275 157 274 248 q 319 112 277 95 l 350 136 q 370 137 361 144 q 369 120 379 130 q 302 53 334 85 q 250 -16 270 20 q 225 -16 243 -32 q 176 36 193 21 q 94 81 159 51 q 81 94 81 86 q 90 104 81 101 q 133 193 134 119 q 135 350 133 271 q 134 504 136 429 q 118 551 133 535 q 90 580 104 568 q 42 692 29 631 q 123 818 54 754 q 145 824 136 831 q 145 807 154 817 q 118 746 115 776 q 167 703 121 717 q 240 662 220 687 q 266 604 260 637 q 272 596 267 599 q 282 595 277 593 z "},"z":{"ha":463,"x_min":38,"x_max":429,"o":"m 90 561 q 72 563 76 553 q 79 581 68 572 q 144 641 111 611 q 208 705 177 671 q 231 719 220 721 q 245 706 241 718 q 258 689 248 690 q 283 678 269 688 q 349 520 395 592 q 208 385 302 448 q 203 375 202 381 q 211 366 203 369 q 278 336 248 353 q 290 338 285 334 q 404 405 345 376 q 427 403 422 412 q 419 387 431 393 q 318 330 355 356 q 317 312 304 322 q 398 220 369 273 q 429 54 427 166 q 356 -159 431 -63 q 203 -255 281 -255 q 91 -197 144 -255 q 38 -50 38 -138 q 169 239 38 113 q 167 257 180 252 q 62 290 122 281 q 58 313 32 297 q 190 414 133 357 q 231 520 246 471 q 178 580 216 570 q 90 561 140 590 m 203 -231 q 282 -176 252 -231 q 301 12 313 -122 q 208 228 288 158 q 193 227 200 236 q 97 -51 98 117 q 121 -176 97 -122 q 203 -231 144 -231 z "},"{":{"ha":460,"x_min":27,"x_max":399,"o":"m 399 -22 q 392 -27 399 -25 q 374 -29 385 -30 q 205 50 268 -14 q 134 204 134 121 q 147 299 134 225 q 158 358 155 336 q 161 389 161 380 q 129 465 161 437 q 47 505 92 500 q 33 508 38 506 q 27 513 27 509 l 27 537 q 33 542 27 541 q 47 545 38 544 q 130 584 92 551 q 153 617 145 597 q 161 660 161 636 q 158 692 161 670 q 147 751 155 714 q 134 846 134 825 q 153 931 134 891 q 210 1004 173 972 q 286 1053 244 1034 q 374 1078 327 1072 q 392 1077 385 1079 q 399 1071 399 1074 l 399 1050 q 394 1046 399 1048 q 382 1043 389 1044 q 267 916 267 1015 q 270 882 267 905 q 279 823 273 858 q 289 764 286 789 q 292 728 292 739 q 252 609 292 659 q 123 526 212 559 q 190 490 159 511 q 241 446 220 470 l 241 447 q 292 321 292 387 q 289 286 292 311 q 279 227 286 261 q 270 168 273 192 q 267 134 267 144 q 382 5 267 35 q 394 2 389 5 q 399 -2 399 0 l 399 -22 z "},"|":{"ha":220,"x_min":66,"x_max":150,"o":"m 150 -59 q 144 -64 150 -62 q 130 -65 138 -65 l 85 -65 q 72 -64 77 -65 q 66 -59 66 -62 l 66 1076 q 72 1081 66 1080 q 85 1083 77 1083 l 130 1083 q 144 1081 138 1083 q 150 1076 150 1080 l 150 -59 z "},"}":{"ha":460,"x_min":27,"x_max":399,"o":"m 27 1071 q 35 1077 27 1074 q 53 1078 42 1079 q 222 999 159 1063 q 293 845 293 928 q 279 750 293 824 q 269 691 272 713 q 266 660 266 669 q 298 584 266 612 q 380 544 334 549 q 394 542 389 543 q 399 536 399 540 l 399 512 q 394 507 399 509 q 380 504 389 505 q 297 465 334 498 q 274 432 281 452 q 266 389 266 413 q 269 357 266 379 q 279 298 272 335 q 293 203 293 224 q 273 118 293 158 q 217 45 254 77 q 141 -4 182 15 q 53 -29 100 -23 q 35 -27 42 -30 q 27 -22 27 -25 l 27 -1 q 32 3 27 1 q 45 6 37 5 q 160 134 160 35 q 157 168 160 144 q 147 226 153 191 q 138 286 141 260 q 134 321 134 311 q 174 440 134 391 q 304 523 214 490 q 237 559 267 538 q 186 603 206 579 l 186 602 q 134 728 134 662 q 138 763 134 738 q 147 823 141 788 q 157 881 153 857 q 160 915 160 905 q 45 1044 160 1014 q 32 1047 37 1044 q 27 1051 27 1049 l 27 1071 z "},"~":{"ha":509,"x_min":32,"x_max":477,"o":"m 43 465 l 467 465 q 477 453 477 465 l 477 376 q 467 364 477 364 l 43 364 q 32 376 32 364 l 32 453 q 43 465 32 465 z "},"":{"ha":279,"x_min":27,"x_max":247,"o":"m 235 609 q 146 519 182 575 q 127 519 136 503 q 38 609 95 580 q 38 628 19 618 q 127 717 98 657 q 146 717 137 736 q 235 628 176 663 q 235 609 252 620 m 247 -169 q 148 -269 188 -206 q 126 -269 136 -286 q 27 -169 91 -201 q 27 -147 6 -158 q 126 373 94 -18 q 148 373 138 395 q 247 -147 180 -12 q 247 -169 265 -157 z "},"":{"ha":578,"x_min":40,"x_max":537,"o":"m 337 -65 l 294 -65 l 294 -2 q 260 -26 275 -14 q 242 -28 254 -30 q 231 -20 231 -27 q 213 5 229 -3 q 186 21 197 13 q 76 150 109 74 q 40 312 44 227 q 144 606 32 505 q 237 665 184 642 q 294 687 264 677 l 294 747 l 337 747 l 337 700 q 344 702 340 701 q 370 687 359 705 l 507 597 q 537 576 574 590 q 446 541 487 569 q 393 538 427 529 l 337 574 l 337 117 q 500 116 430 89 q 516 115 511 121 q 513 102 522 106 q 378 40 458 74 q 337 21 356 31 l 337 -65 m 226 630 q 169 504 181 604 q 174 321 157 404 q 294 134 203 179 l 294 601 l 253 627 q 226 630 243 640 z "},"":{"ha":794,"x_min":27,"x_max":756,"o":"m 382 418 l 383 418 l 469 418 q 503 392 503 418 q 469 365 503 365 l 340 365 q 320 363 330 365 q 302 352 309 361 q 243 300 278 327 q 238 288 237 294 q 247 280 239 282 q 426 177 343 246 q 594 112 505 111 q 729 182 682 113 q 753 190 740 197 q 756 167 766 183 q 676 72 723 119 q 566 2 629 24 q 425 -6 503 -20 q 253 83 347 7 q 152 142 202 124 q 49 137 102 159 q 27 146 32 132 q 45 169 23 161 q 121 211 83 184 q 205 298 158 238 q 230 347 225 323 q 230 354 231 351 q 225 359 229 357 q 217 363 221 362 q 208 365 212 365 l 83 365 q 52 392 52 365 q 83 418 52 418 l 186 418 q 201 427 197 417 q 197 446 205 437 q 138 538 169 492 q 87 646 102 589 q 87 755 72 704 q 209 922 117 859 q 444 985 302 985 q 755 707 758 984 q 646 519 754 578 q 418 521 538 460 q 401 544 395 531 q 425 549 407 556 q 557 557 494 521 q 626 695 620 593 q 581 882 633 815 q 441 955 529 949 q 302 908 356 955 q 248 798 248 861 q 265 717 248 755 q 305 644 283 679 q 365 494 346 578 q 363 446 370 471 q 367 427 360 435 q 382 418 374 418 z "},"":{"ha":926,"x_min":90,"x_max":837,"o":"m 94 164 l 220 291 q 145 492 145 383 q 218 689 145 596 l 90 817 l 133 861 l 260 733 q 463 808 357 808 q 665 734 570 808 l 792 860 l 836 817 l 709 690 q 781 491 781 597 q 708 293 781 387 l 837 164 l 794 121 l 665 250 q 465 176 573 176 q 263 248 361 176 l 136 121 l 94 164 m 460 742 q 286 668 360 742 q 214 492 214 595 q 287 316 214 389 q 463 243 360 243 q 639 316 566 243 q 711 491 711 389 q 640 668 711 597 q 460 742 565 742 z "},"":{"ha":796,"x_min":33,"x_max":769,"o":"m 73 561 l 230 561 l 96 880 l 33 880 l 33 926 l 395 926 l 395 880 l 336 880 l 492 506 l 595 755 q 621 833 621 819 q 597 877 621 870 q 547 880 587 880 l 547 926 l 769 926 l 769 880 q 721 876 728 878 q 684 838 703 871 q 649 768 653 781 l 564 561 l 729 561 l 729 503 l 539 503 l 513 438 l 513 351 l 729 351 l 729 292 l 513 292 l 513 46 l 595 46 l 595 0 l 212 0 l 212 46 l 294 46 l 294 292 l 73 292 l 73 351 l 294 351 l 294 408 l 254 503 l 73 503 l 73 561 z "},"":{"ha":694,"x_min":310,"x_max":384,"o":"m 310 926 l 384 926 l 384 470 l 310 470 l 310 926 m 310 213 l 384 213 l 384 -231 l 310 -231 l 310 213 z "},"":{"ha":655,"x_min":50,"x_max":616,"o":"m 545 908 q 567 823 568 876 q 505 765 566 770 q 450 774 475 762 q 418 800 425 785 q 413 848 408 820 q 430 897 418 876 q 332 964 466 962 q 221 932 257 964 q 191 854 185 900 q 233 789 195 818 q 333 733 271 760 q 455 683 394 706 q 550 640 517 660 q 615 565 607 606 q 607 485 624 525 q 558 411 589 446 q 505 354 527 376 q 502 345 500 351 q 507 337 503 340 q 590 259 560 303 q 609 153 620 216 q 521 37 595 79 q 338 -4 446 -4 q 177 20 228 -4 q 96 85 125 45 q 74 170 72 117 q 136 228 75 222 q 191 218 165 230 q 223 194 216 207 q 228 145 233 172 q 212 96 222 117 q 334 31 175 31 q 453 59 408 30 q 493 136 498 89 q 441 202 488 171 q 332 260 394 233 q 209 310 271 287 q 115 353 148 333 q 50 428 58 387 q 59 508 41 469 q 107 583 76 548 q 161 640 138 618 q 164 649 164 642 q 159 656 163 654 q 84 732 104 690 q 75 838 64 774 q 153 955 87 911 q 328 999 219 999 q 464 973 412 998 q 545 908 515 948 m 218 624 q 205 622 210 628 q 160 555 182 597 q 176 492 138 512 q 313 429 241 457 q 448 369 385 400 q 461 372 455 366 q 506 439 484 396 q 490 502 528 481 q 352 565 425 536 q 218 624 280 593 z "},"":{"ha":640,"x_min":120,"x_max":571,"o":"m 211 984 q 279 911 286 984 q 234 838 275 875 q 168 802 192 801 q 130 840 143 802 q 120 911 117 879 q 150 963 122 943 q 211 984 178 984 m 503 984 q 571 911 578 984 q 525 838 567 875 q 459 802 484 801 q 422 840 435 802 q 412 911 409 879 q 442 963 414 943 q 503 984 470 984 z "},"":{"ha":1138,"x_min":58,"x_max":1063,"o":"m 560 903 q 408 873 478 903 q 278 785 337 844 q 190 655 219 726 q 160 503 160 585 q 190 350 160 420 q 278 221 219 280 q 407 134 336 163 q 560 104 478 104 q 713 133 644 104 q 842 221 783 162 q 931 350 901 280 q 960 503 960 420 q 931 655 960 585 q 842 785 901 726 q 712 873 783 844 q 560 903 642 903 m 560 1007 q 752 970 663 1007 q 916 859 842 932 q 1026 696 989 785 q 1063 503 1063 607 q 1026 311 1063 399 q 916 149 989 222 q 752 37 842 75 q 560 0 663 0 q 368 37 457 0 q 205 149 279 75 q 94 311 131 222 q 58 503 58 399 q 94 696 58 607 q 205 859 131 785 q 368 970 279 932 q 560 1007 457 1007 m 315 356 q 360 299 334 325 q 417 255 386 273 q 485 227 449 237 q 561 216 522 216 q 672 239 620 216 q 763 300 724 261 q 824 391 802 339 q 846 503 846 444 q 824 614 846 562 q 763 705 802 666 q 672 766 724 744 q 561 789 620 789 q 483 778 520 789 q 413 747 446 767 q 354 700 380 728 q 310 640 328 673 l 408 594 q 471 660 431 635 q 563 685 512 685 q 632 671 600 685 q 688 633 665 657 q 726 576 712 609 q 740 507 740 544 q 726 438 740 471 q 688 382 712 406 q 632 344 665 358 q 563 330 600 330 q 477 352 516 330 q 414 410 437 374 l 315 356 z "},"":{"ha":500,"x_min":28,"x_max":484,"o":"m 290 365 q 229 318 262 344 q 168 272 196 293 q 152 266 158 264 q 148 275 146 267 q 114 319 148 287 q 28 534 26 401 q 134 727 32 648 q 194 778 166 751 q 242 842 221 804 q 266 843 251 859 q 431 733 349 750 q 436 713 457 728 q 408 667 411 694 l 408 666 l 410 418 q 428 384 410 393 q 468 398 446 374 q 483 402 476 407 q 484 386 490 398 q 446 329 464 357 q 415 270 427 300 l 414 269 q 396 269 407 257 q 382 278 390 276 q 304 360 320 292 q 298 366 302 363 q 290 365 294 367 m 296 684 q 217 736 262 694 q 182 741 195 762 q 137 552 125 656 q 241 369 155 404 q 243 368 242 369 q 296 395 264 361 q 298 401 298 398 q 298 427 298 409 l 302 675 q 296 684 302 682 m 43 205 l 467 205 q 477 194 477 205 l 477 117 q 467 105 477 105 l 43 105 q 32 117 32 105 l 32 194 q 43 205 32 205 z "},"":{"ha":676,"x_min":15,"x_max":648,"o":"m 352 648 l 378 648 q 389 642 387 648 q 387 631 391 636 l 192 399 q 192 385 184 391 l 387 153 q 389 142 391 147 q 378 136 387 136 l 352 136 q 345 138 347 136 l 20 383 q 15 392 15 387 q 20 401 15 396 l 345 646 q 352 648 347 648 m 611 648 l 637 648 q 648 642 646 648 q 646 631 650 636 l 451 399 q 451 385 444 391 l 646 153 q 648 142 650 147 q 637 136 646 136 l 611 136 q 604 138 606 136 l 279 383 q 274 392 274 387 q 279 401 274 396 l 604 646 q 611 648 606 648 z "},"":{"ha":694,"x_min":46,"x_max":648,"o":"m 574 0 l 574 303 l 46 303 l 46 370 l 648 370 l 648 0 l 574 0 z "},"":{"ha":538,"x_min":32,"x_max":510,"o":"m 43 465 l 499 465 q 510 453 510 465 l 510 376 q 499 364 510 364 l 43 364 q 32 376 32 364 l 32 453 q 43 465 32 465 z "},"":{"ha":746,"x_min":66,"x_max":654,"o":"m 360 946 q 271 929 312 946 q 195 877 230 911 q 143 801 161 842 q 126 712 126 760 q 143 623 126 664 q 195 547 161 582 q 271 496 229 513 q 360 479 312 479 q 450 496 409 479 q 525 547 491 513 q 577 623 559 582 q 594 712 594 664 q 577 801 594 760 q 525 877 559 842 q 449 929 490 912 q 360 946 408 946 m 338 829 l 323 829 l 323 747 l 338 747 q 384 757 368 747 q 400 789 400 768 q 385 819 400 809 q 338 829 370 829 m 353 884 q 456 860 422 884 q 491 789 491 837 q 470 732 491 755 q 412 703 450 710 q 442 679 428 694 q 467 640 456 663 l 511 552 l 420 552 l 378 637 q 351 681 363 668 q 328 694 340 694 l 323 694 l 323 552 l 239 552 l 239 884 l 353 884 m 360 1007 q 473 985 420 1007 q 568 920 525 964 q 632 825 611 877 q 654 712 654 773 q 632 600 654 652 q 568 505 611 549 q 473 440 525 462 q 360 418 420 418 q 248 440 300 418 q 153 505 196 462 q 88 600 109 549 q 66 712 66 652 q 88 825 66 773 q 153 920 109 877 q 248 985 196 964 q 360 1007 300 1007 z "},"":{"ha":700,"x_min":45,"x_max":633,"o":"m 56 905 l 622 905 q 633 894 633 905 l 633 817 q 622 805 633 805 l 56 805 q 45 817 45 805 l 45 894 q 56 905 45 905 z "},"":{"ha":465,"x_min":37,"x_max":428,"o":"m 233 972 q 371 899 313 972 q 428 722 428 825 q 371 544 428 617 q 233 470 313 470 q 94 544 151 470 q 37 722 37 617 q 94 899 37 825 q 233 972 151 972 m 233 930 q 181 869 189 930 q 173 722 173 808 q 181 574 173 635 q 233 513 189 513 q 284 574 275 513 q 293 722 293 635 q 284 869 293 808 q 233 930 275 930 z "},"":{"ha":538,"x_min":32,"x_max":510,"o":"m 220 288 l 220 465 l 43 465 q 32 477 32 465 l 32 554 q 43 566 32 566 l 220 566 l 220 744 q 232 755 220 755 l 309 755 q 321 744 321 755 l 321 566 l 499 566 q 510 554 510 566 l 510 477 q 499 465 510 465 l 321 465 l 321 288 q 309 277 321 277 l 232 277 q 220 288 220 277 m 43 201 l 499 201 q 510 190 510 201 l 510 113 q 499 101 510 101 l 43 101 q 32 113 32 101 l 32 190 q 43 201 32 201 z "},"":{"ha":412,"x_min":10,"x_max":397,"o":"m 18 810 q 77 936 33 882 q 205 991 121 991 q 390 836 375 991 q 391 822 391 829 q 391 809 391 816 q 363 706 391 749 q 328 658 347 681 q 288 615 309 635 l 135 467 l 135 467 q 136 465 135 465 q 136 467 134 467 l 352 467 q 353 467 353 467 q 356 500 354 484 q 360 533 359 517 q 382 549 362 552 q 397 527 399 545 l 382 370 q 369 359 380 359 l 23 359 q 10 367 12 359 q 12 381 9 374 l 189 609 q 240 693 222 652 q 258 772 258 735 q 252 813 258 791 l 252 812 q 172 901 229 901 q 121 891 142 900 q 88 867 100 882 q 57 802 64 832 q 33 784 54 783 q 18 810 12 785 z "},"":{"ha":427,"x_min":12,"x_max":414,"o":"m 35 889 q 65 929 46 911 q 108 962 83 947 q 160 985 132 977 q 218 993 188 993 q 275 984 246 993 q 329 958 303 975 q 371 918 355 941 q 389 869 387 896 q 360 779 393 812 q 305 734 336 752 q 414 571 412 694 q 399 486 415 525 q 351 412 384 447 q 209 345 284 346 q 138 351 170 345 q 81 371 106 357 q 39 406 56 385 q 14 459 22 428 q 13 486 11 473 q 21 509 14 498 q 40 525 28 519 q 68 532 52 532 q 115 498 99 532 q 127 468 123 483 q 133 439 132 454 q 151 396 134 414 q 207 380 168 378 q 281 422 259 383 q 295 457 291 438 q 300 498 300 476 q 300 508 300 503 q 299 518 300 513 q 245 635 289 611 q 198 652 223 647 q 144 656 173 658 q 128 660 134 656 q 121 672 122 663 q 138 694 120 689 q 224 737 189 709 q 251 771 241 751 q 266 817 262 792 q 243 895 270 863 q 210 919 229 911 q 165 927 190 926 q 109 910 133 928 q 64 871 84 893 q 48 860 56 861 q 36 861 41 858 q 31 872 31 864 q 35 890 30 880 l 35 889 z "},"":{"ha":694,"x_min":290,"x_max":496,"o":"m 315 714 l 290 714 l 344 876 q 383 954 366 939 q 431 972 404 972 q 496 923 496 972 q 444 839 496 889 l 315 714 z "},"":{"ha":689,"x_min":-17,"x_max":647,"o":"m 284 37 q 304 -81 286 -32 q 363 -175 325 -137 q 360 -194 372 -184 q 342 -190 350 -200 q 310 -149 326 -171 q 281 -104 293 -127 q 272 -98 278 -98 q 262 -103 265 -98 q 151 -213 222 -171 q -3 -252 79 -254 q -17 -243 -14 -252 q -3 -226 -20 -226 q 104 -187 64 -226 q 144 -46 144 -149 l 143 479 q 117 564 143 548 q 68 549 87 582 q 52 543 61 536 q 52 567 42 551 q 90 630 72 597 q 127 695 108 663 q 157 703 138 715 l 158 703 q 286 528 291 638 l 284 100 q 287 92 285 95 q 296 92 290 89 l 414 159 q 418 168 418 161 l 418 450 q 415 517 418 484 q 377 576 411 551 q 372 585 372 580 q 377 594 372 590 q 477 716 437 637 q 487 722 479 722 q 496 716 493 722 q 600 595 534 640 q 604 585 604 591 q 599 576 604 579 q 562 523 568 556 q 555 450 555 490 l 555 212 q 581 126 555 142 q 629 141 610 107 q 647 147 637 154 q 646 123 656 140 q 608 60 626 92 q 572 -4 590 27 q 541 -12 560 -24 l 540 -12 q 421 111 439 37 q 401 115 417 125 l 293 54 q 286 48 288 51 q 284 37 284 45 z "},"":{"ha":558,"x_min":21,"x_max":541,"o":"m 401 837 q 444 833 416 836 q 453 836 448 832 q 456 844 456 839 l 456 876 q 467 887 456 887 l 486 887 q 497 876 497 887 l 497 830 q 505 820 497 822 q 534 810 513 818 q 541 800 541 807 l 541 779 q 536 770 541 773 q 526 768 531 767 q 512 773 526 768 q 502 772 506 774 q 497 763 497 767 l 497 283 q 502 275 497 278 q 512 273 507 271 q 526 277 512 273 q 536 277 532 279 q 541 267 541 272 l 541 237 q 534 227 541 229 q 505 218 513 219 q 497 208 497 215 l 497 71 q 486 59 497 59 l 467 59 q 456 71 456 59 l 456 193 q 453 201 456 198 q 444 205 450 205 q 401 201 429 201 q 391 190 391 201 l 391 71 q 379 59 391 59 l 360 59 q 349 71 349 59 l 349 192 q 339 203 349 202 q 113 308 204 218 q 21 519 21 397 q 113 729 21 640 q 339 834 204 819 q 349 845 349 835 l 349 876 q 360 887 349 887 l 379 887 q 391 876 391 887 l 391 848 q 401 837 391 837 m 446 785 q 416 787 427 787 q 408 787 412 787 q 401 787 404 787 q 391 775 391 785 l 391 271 q 401 260 391 260 q 408 260 404 260 q 416 260 412 260 q 446 261 437 260 q 456 272 456 262 l 456 774 q 446 785 456 784 m 335 774 q 234 680 260 749 q 208 523 208 611 q 234 366 208 435 q 335 272 260 297 q 345 273 340 270 q 349 283 349 277 l 349 764 q 345 773 349 770 q 335 774 340 776 z "},"":{"ha":279,"x_min":36,"x_max":233,"o":"m 36 554 q 125 644 89 588 q 144 644 136 660 q 233 554 176 583 q 233 535 252 545 q 144 446 174 506 q 125 446 134 427 q 36 535 96 500 q 36 554 20 543 z "},"":{"ha":694,"x_min":218,"x_max":541,"o":"m 376 0 l 422 0 l 355 -104 q 420 -94 392 -94 q 503 -119 469 -94 q 541 -190 541 -146 q 480 -279 541 -252 q 372 -298 439 -298 q 270 -287 328 -298 q 218 -273 237 -281 l 232 -243 q 312 -256 270 -256 q 374 -242 351 -256 q 402 -193 402 -226 q 385 -156 402 -169 q 345 -144 369 -144 q 309 -153 326 -144 l 288 -133 l 376 0 z "},"":{"ha":294,"x_min":4,"x_max":288,"o":"m 35 810 q 16 803 24 803 q 6 807 9 803 q 4 818 3 811 q 14 831 6 824 q 95 906 58 867 q 161 985 132 945 q 172 991 165 991 l 192 991 q 207 978 207 991 l 205 511 q 273 395 205 400 q 284 390 280 395 q 288 376 288 385 q 271 359 287 359 l 42 359 q 25 378 25 359 q 41 396 25 396 q 88 426 77 397 q 100 513 100 455 l 100 774 q 74 825 99 825 q 35 810 60 825 l 35 810 z "},"":{"ha":492,"x_min":31,"x_max":468,"o":"m 243 263 q 222 263 235 250 q 41 374 163 337 q 32 383 31 377 q 38 392 32 389 q 73 464 73 404 l 71 741 q 70 750 71 747 q 71 757 69 754 q 78 760 73 760 q 335 839 222 772 q 344 841 340 842 q 349 833 348 840 q 406 718 357 774 q 450 629 433 686 q 464 535 468 572 q 435 456 458 491 q 382 392 412 421 q 306 333 347 357 q 243 263 265 309 m 183 748 l 186 435 q 192 424 186 427 l 288 364 q 314 370 302 355 q 361 503 366 425 q 342 589 359 551 q 298 656 324 627 q 234 762 256 699 q 229 767 233 765 q 222 768 225 769 q 189 757 205 762 q 183 748 183 755 m 47 205 l 457 205 q 468 194 468 205 l 468 117 q 457 105 468 105 l 47 105 q 36 117 36 105 l 36 194 q 47 205 36 205 z "},"":{"ha":667,"x_min":8,"x_max":641,"o":"m 304 136 l 277 136 q 267 142 269 136 q 269 153 264 148 l 464 385 q 464 399 471 393 l 269 631 q 267 642 264 637 q 277 648 269 648 l 304 648 q 311 646 309 648 l 636 401 q 641 392 641 397 q 636 383 641 388 l 311 138 q 304 136 309 136 m 45 136 l 18 136 q 8 142 10 136 q 9 153 5 148 l 205 385 q 205 399 212 393 l 9 631 q 8 642 5 637 q 18 648 10 648 l 45 648 q 52 646 50 648 l 377 401 q 382 392 382 397 q 377 383 382 388 l 52 138 q 45 136 50 136 z "},"":{"ha":1023,"x_min":101,"x_max":968,"o":"m 948 906 l 968 889 q 968 873 975 880 l 170 -50 q 154 -50 161 -58 l 134 -33 q 133 -18 125 -26 l 932 905 q 948 906 937 913 m 614 77 q 609 81 610 77 q 609 87 606 83 l 749 305 q 756 308 751 309 q 761 302 761 307 l 761 83 q 754 77 761 77 l 614 77 m 846 410 q 840 416 846 416 l 795 416 q 789 413 791 416 l 574 79 q 574 75 574 77 l 574 26 q 580 19 574 19 l 754 19 q 759 17 757 19 q 761 12 761 15 l 761 -15 q 701 -130 761 -130 q 692 -140 692 -130 q 701 -151 692 -151 l 913 -151 q 921 -142 921 -151 q 913 -130 922 -131 q 846 -18 845 -130 l 846 12 q 852 19 846 19 l 930 19 q 936 26 936 19 l 936 70 q 930 77 936 77 l 852 77 q 846 83 846 77 l 846 410 m 118 800 q 101 795 106 786 q 104 810 97 802 q 246 958 188 878 q 252 962 248 962 l 270 962 q 277 955 277 962 l 277 509 q 347 391 277 393 q 355 381 355 391 q 346 370 354 370 l 127 370 q 117 382 117 370 q 126 393 117 393 q 189 511 189 390 l 189 760 q 118 800 189 850 z "},"":{"ha":1030,"x_min":101,"x_max":981,"o":"m 948 906 l 968 889 q 968 873 975 880 l 170 -50 q 154 -50 161 -58 l 134 -33 q 133 -18 125 -26 l 932 905 q 948 906 937 913 m 118 800 q 101 795 106 786 q 104 810 97 802 q 246 958 188 878 q 252 962 248 962 l 270 962 q 277 955 277 962 l 277 509 q 347 391 277 393 q 355 381 355 391 q 346 370 354 370 l 127 370 q 117 382 117 370 q 126 393 117 393 q 189 511 189 390 l 189 760 q 118 800 189 850 m 633 265 q 684 382 640 333 q 805 433 728 429 q 975 290 959 433 q 949 171 981 217 q 879 85 916 119 l 733 -55 q 732 -63 728 -59 q 739 -66 732 -66 l 945 -66 q 951 -60 950 -66 l 958 1 q 970 12 960 13 q 981 -3 981 12 l 967 -151 q 960 -157 966 -157 l 631 -157 q 625 -153 627 -157 q 626 -146 623 -149 l 795 71 q 868 268 880 181 q 773 359 856 355 q 692 323 720 355 q 657 260 663 290 q 642 247 654 245 q 633 265 629 248 z "},"":{"ha":1023,"x_min":50,"x_max":968,"o":"m 948 906 l 968 889 q 968 873 975 880 l 170 -50 q 154 -50 161 -58 l 134 -33 q 133 -18 125 -26 l 932 905 q 948 906 937 913 m 551 72 q 545 75 546 72 q 545 81 542 78 l 685 300 q 692 302 687 303 q 697 296 697 301 l 697 78 q 690 72 697 72 l 551 72 m 783 405 q 776 411 783 411 l 732 411 q 726 408 728 411 l 511 73 q 510 70 510 71 l 510 21 q 516 14 510 14 l 690 14 q 695 12 693 14 q 697 7 697 9 l 697 -20 q 637 -135 697 -135 q 628 -146 628 -135 q 637 -157 628 -157 l 850 -157 q 857 -147 857 -157 q 850 -136 858 -136 q 783 -24 781 -136 l 783 7 q 789 14 783 14 l 866 14 q 872 21 872 14 l 872 64 q 866 72 872 72 l 789 72 q 783 78 783 72 l 783 405 m 70 875 q 132 941 90 913 q 236 968 174 969 q 336 943 290 968 q 391 857 382 918 q 368 768 396 793 q 303 730 340 742 q 415 577 414 699 q 357 432 416 493 q 228 370 298 371 q 110 392 159 369 q 50 473 63 414 q 56 514 45 495 q 94 534 68 532 q 138 510 125 534 q 149 452 150 484 q 169 408 152 425 q 227 391 185 389 q 302 433 279 394 q 319 528 324 471 q 267 645 311 623 q 166 664 221 667 q 152 673 153 663 q 163 686 149 683 q 246 728 212 701 q 288 809 281 757 q 266 887 294 856 q 186 920 237 918 q 130 903 153 920 q 87 865 106 885 q 71 859 77 854 q 70 875 63 861 z "},"":{"ha":607,"x_min":28,"x_max":594,"o":"m 477 -87 q 423 -21 422 -87 q 439 15 423 -3 q 486 33 456 33 q 594 -73 589 35 q 307 -257 589 -254 q 28 -21 31 -260 q 97 129 31 83 q 228 196 163 175 q 346 243 293 218 q 397 315 399 269 q 362 394 397 360 q 283 427 327 429 q 211 395 239 426 q 163 321 182 365 q 142 307 157 305 q 134 327 127 310 q 182 409 148 364 q 283 454 216 454 q 422 421 361 455 q 496 318 484 387 q 469 189 512 233 q 359 115 427 144 q 230 51 292 85 q 167 -58 169 17 q 321 -227 172 -224 q 452 -198 401 -230 q 504 -131 503 -166 q 477 -87 504 -87 m 391 623 q 302 534 338 589 q 282 534 291 517 q 193 623 250 594 q 193 642 174 633 q 282 731 253 671 q 302 731 292 751 q 391 642 331 677 q 391 623 407 634 z "},"":{"ha":1131,"x_min":31,"x_max":1096,"o":"m 747 814 q 731 829 731 814 q 741 844 731 838 l 1025 980 q 1047 975 1042 987 q 1038 952 1053 962 q 977 853 991 916 q 964 706 964 791 l 964 237 q 1072 145 964 94 q 1096 143 1090 155 q 1090 121 1102 130 l 949 -7 q 918 -12 935 -17 q 798 139 816 17 q 791 148 797 145 q 780 145 785 150 q 746 109 764 129 q 656 29 728 88 q 527 -17 585 -30 q 435 25 470 -3 q 336 111 381 69 q 223 136 290 153 q 201 129 216 134 q 180 136 186 123 q 201 165 174 149 q 304 238 254 200 q 399 323 355 277 q 495 473 459 387 q 513 661 530 560 q 416 828 496 758 q 227 882 337 898 q 123 823 156 871 q 85 732 90 775 q 113 636 77 671 q 195 595 148 602 q 341 502 304 576 q 286 346 378 429 q 264 343 274 336 q 262 363 255 350 q 218 445 292 424 q 85 522 138 467 q 31 671 31 577 q 134 895 31 801 q 368 989 236 989 q 601 898 521 989 q 683 690 682 806 q 591 453 684 555 q 410 281 498 351 q 406 271 405 278 q 413 263 407 265 q 497 216 460 243 q 560 162 534 189 q 640 112 602 118 q 736 148 677 105 q 764 173 751 159 q 790 203 777 186 q 793 210 793 206 q 791 472 790 340 q 791 734 791 603 q 785 787 791 760 q 747 814 779 814 m 578 1086 q 526 1171 526 1137 q 591 1219 526 1219 q 639 1202 618 1219 q 678 1123 656 1187 l 732 962 l 707 962 l 578 1086 z "},"":{"ha":1131,"x_min":31,"x_max":1096,"o":"m 747 814 q 731 829 731 814 q 741 844 731 838 l 1025 980 q 1047 975 1042 987 q 1038 952 1053 962 q 977 853 991 916 q 964 706 964 791 l 964 237 q 1072 145 964 94 q 1096 143 1090 155 q 1090 121 1102 130 l 949 -7 q 918 -12 935 -17 q 798 139 816 17 q 791 148 797 145 q 780 145 785 150 q 746 109 764 129 q 656 29 728 88 q 527 -17 585 -30 q 435 25 470 -3 q 336 111 381 69 q 223 136 290 153 q 201 129 216 134 q 180 136 186 123 q 201 165 174 149 q 304 238 254 200 q 399 323 355 277 q 495 473 459 387 q 513 661 530 560 q 416 828 496 758 q 227 882 337 898 q 123 823 156 871 q 85 732 90 775 q 113 636 77 671 q 195 595 148 602 q 341 502 304 576 q 286 346 378 429 q 264 343 274 336 q 262 363 255 350 q 218 445 292 424 q 85 522 138 467 q 31 671 31 577 q 134 895 31 801 q 368 989 236 989 q 601 898 521 989 q 683 690 682 806 q 591 453 684 555 q 410 281 498 351 q 406 271 405 278 q 413 263 407 265 q 497 216 460 243 q 560 162 534 189 q 640 112 602 118 q 736 148 677 105 q 764 173 751 159 q 790 203 777 186 q 793 210 793 206 q 791 472 790 340 q 791 734 791 603 q 785 787 791 760 q 747 814 779 814 m 728 959 l 703 959 l 758 1120 q 797 1199 779 1184 q 845 1217 817 1217 q 909 1168 909 1217 q 858 1084 909 1134 l 728 959 z "},"":{"ha":1131,"x_min":31,"x_max":1096,"o":"m 747 814 q 731 829 731 814 q 741 844 731 838 l 1025 980 q 1047 975 1042 987 q 1038 952 1053 962 q 977 853 991 916 q 964 706 964 791 l 964 237 q 1072 145 964 94 q 1096 143 1090 155 q 1090 121 1102 130 l 949 -7 q 918 -12 935 -17 q 798 139 816 17 q 791 148 797 145 q 780 145 785 150 q 746 109 764 129 q 656 29 728 88 q 527 -17 585 -30 q 435 25 470 -3 q 336 111 381 69 q 223 136 290 153 q 201 129 216 134 q 180 136 186 123 q 201 165 174 149 q 304 238 254 200 q 399 323 355 277 q 495 473 459 387 q 513 661 530 560 q 416 828 496 758 q 227 882 337 898 q 123 823 156 871 q 85 732 90 775 q 113 636 77 671 q 195 595 148 602 q 341 502 304 576 q 286 346 378 429 q 264 343 274 336 q 262 363 255 350 q 218 445 292 424 q 85 522 138 467 q 31 671 31 577 q 134 895 31 801 q 368 989 236 989 q 601 898 521 989 q 683 690 682 806 q 591 453 684 555 q 410 281 498 351 q 406 271 405 278 q 413 263 407 265 q 497 216 460 243 q 560 162 534 189 q 640 112 602 118 q 736 148 677 105 q 764 173 751 159 q 790 203 777 186 q 793 210 793 206 q 791 472 790 340 q 791 734 791 603 q 785 787 791 760 q 747 814 779 814 m 905 1006 l 905 989 q 901 982 905 983 q 894 983 897 981 l 745 1108 q 736 1108 740 1114 l 587 983 q 580 982 583 981 q 576 989 576 983 l 576 1006 q 577 1010 576 1009 l 734 1219 q 741 1222 737 1222 q 746 1219 743 1222 l 903 1010 q 905 1006 905 1008 z "},"":{"ha":1131,"x_min":31,"x_max":1096,"o":"m 747 814 q 731 829 731 814 q 741 844 731 838 l 1025 980 q 1047 975 1042 987 q 1038 952 1053 962 q 977 853 991 916 q 964 706 964 791 l 964 237 q 1072 145 964 94 q 1096 143 1090 155 q 1090 121 1102 130 l 949 -7 q 918 -12 935 -17 q 798 139 816 17 q 791 148 797 145 q 780 145 785 150 q 746 109 764 129 q 656 29 728 88 q 527 -17 585 -30 q 435 25 470 -3 q 336 111 381 69 q 223 136 290 153 q 201 129 216 134 q 180 136 186 123 q 201 165 174 149 q 304 238 254 200 q 399 323 355 277 q 495 473 459 387 q 513 661 530 560 q 416 828 496 758 q 227 882 337 898 q 123 823 156 871 q 85 732 90 775 q 113 636 77 671 q 195 595 148 602 q 341 502 304 576 q 286 346 378 429 q 264 343 274 336 q 262 363 255 350 q 218 445 292 424 q 85 522 138 467 q 31 671 31 577 q 134 895 31 801 q 368 989 236 989 q 601 898 521 989 q 683 690 682 806 q 591 453 684 555 q 410 281 498 351 q 406 271 405 278 q 413 263 407 265 q 497 216 460 243 q 560 162 534 189 q 640 112 602 118 q 736 148 677 105 q 764 173 751 159 q 790 203 777 186 q 793 210 793 206 q 791 472 790 340 q 791 734 791 603 q 785 787 791 760 q 747 814 779 814 m 931 1113 l 959 1113 q 927 1036 948 1065 q 831 987 890 987 q 699 1018 795 987 q 637 1030 661 1030 q 591 990 602 1030 l 565 990 q 591 1063 575 1038 q 688 1115 627 1115 q 761 1103 718 1115 q 820 1084 779 1098 q 882 1072 861 1072 q 918 1086 905 1072 q 931 1113 924 1094 z "},"":{"ha":1131,"x_min":31,"x_max":1096,"o":"m 578 1231 q 647 1158 654 1231 q 601 1085 643 1122 q 535 1048 559 1048 q 498 1087 511 1048 q 488 1158 485 1126 q 518 1210 490 1190 q 578 1231 546 1231 m 870 1231 q 939 1158 945 1231 q 893 1085 935 1122 q 827 1048 851 1048 q 789 1087 802 1048 q 779 1158 777 1126 q 809 1210 781 1190 q 870 1231 838 1231 m 747 827 q 731 842 731 827 q 741 856 731 850 l 1025 992 q 1047 987 1042 999 q 1038 964 1053 975 q 977 865 991 928 q 964 718 964 803 l 964 249 q 1072 157 964 106 q 1096 155 1090 168 q 1090 134 1102 142 l 949 5 q 918 0 935 -5 q 798 151 816 29 q 791 160 797 157 q 780 157 785 162 q 746 121 764 141 q 656 41 728 100 q 527 -4 585 -18 q 435 37 470 9 q 336 123 381 81 q 223 149 290 165 q 201 141 216 146 q 180 149 186 136 q 201 177 174 161 q 304 251 254 212 q 399 336 355 289 q 495 486 459 399 q 513 673 530 572 q 416 840 496 770 q 227 894 337 910 q 123 835 156 883 q 85 744 90 787 q 113 649 77 683 q 195 608 148 614 q 341 514 304 588 q 286 358 378 441 q 264 355 274 348 q 262 376 255 362 q 218 457 292 436 q 85 534 138 479 q 31 683 31 589 q 134 907 31 813 q 368 1002 236 1001 q 601 910 521 1002 q 683 703 682 819 q 591 465 684 568 q 410 294 498 363 q 406 283 405 290 q 413 275 407 277 q 497 228 460 256 q 560 174 534 201 q 640 124 602 130 q 736 160 677 117 q 764 185 751 171 q 790 215 777 199 q 793 222 793 218 q 791 484 790 353 q 791 747 791 615 q 785 800 791 772 q 747 827 779 827 z "},"":{"ha":1131,"x_min":31,"x_max":1096,"o":"m 713 1223 q 827 1179 780 1223 q 874 1071 874 1134 q 827 962 874 1007 q 713 918 780 918 q 600 962 647 918 q 553 1071 553 1007 q 600 1179 553 1134 q 713 1223 647 1223 m 713 1178 q 671 1146 678 1178 q 665 1069 665 1114 q 671 991 665 1023 q 713 960 678 960 q 756 991 749 960 q 763 1069 763 1023 q 756 1146 763 1114 q 713 1178 749 1178 m 747 814 q 731 829 731 814 q 741 844 731 838 l 1025 980 q 1047 975 1042 987 q 1038 952 1053 962 q 977 853 991 916 q 964 706 964 791 l 964 237 q 1072 145 964 94 q 1096 143 1090 155 q 1090 121 1102 130 l 949 -7 q 918 -12 935 -17 q 798 139 816 17 q 791 148 797 145 q 780 145 785 150 q 746 109 764 129 q 656 29 728 88 q 527 -17 585 -30 q 435 25 470 -3 q 336 111 381 69 q 223 136 290 153 q 201 129 216 134 q 180 136 186 123 q 201 165 174 149 q 304 238 254 200 q 399 323 355 277 q 495 473 459 387 q 513 661 530 560 q 416 828 496 758 q 227 882 337 898 q 123 823 156 871 q 85 732 90 775 q 113 636 77 671 q 195 595 148 602 q 341 502 304 576 q 286 346 378 429 q 264 343 274 336 q 262 363 255 350 q 218 445 292 424 q 85 522 138 467 q 31 671 31 577 q 134 895 31 801 q 368 989 236 989 q 601 898 521 989 q 683 690 682 806 q 591 453 684 555 q 410 281 498 351 q 406 271 405 278 q 413 263 407 265 q 497 216 460 243 q 560 162 534 189 q 640 112 602 118 q 736 148 677 105 q 764 173 751 159 q 790 203 777 186 q 793 210 793 206 q 791 472 790 340 q 791 734 791 603 q 785 787 791 760 q 747 814 779 814 z "},"":{"ha":1446,"x_min":31,"x_max":1417,"o":"m 747 742 q 731 757 731 742 q 741 771 731 766 q 1112 992 1062 941 q 1163 994 1134 1009 q 1216 966 1192 979 q 1272 936 1238 954 q 1340 934 1306 918 q 1364 936 1356 944 q 1362 916 1372 927 q 1297 855 1327 882 q 1239 802 1267 828 q 1223 797 1232 797 q 1199 806 1214 798 q 1037 863 1082 863 q 1007 844 1027 862 q 977 781 987 827 q 964 633 964 718 l 964 568 q 1017 625 1000 605 q 1090 665 1055 669 q 1162 633 1126 660 q 1256 606 1223 585 q 1284 608 1274 618 q 1282 580 1295 598 q 1248 534 1265 557 q 1208 491 1231 511 q 1104 498 1160 450 q 998 553 1022 578 q 964 524 977 536 l 964 266 q 1108 169 1050 234 q 1255 106 1166 104 q 1390 176 1343 107 q 1414 184 1401 191 q 1417 161 1428 177 q 1337 66 1384 113 q 1227 -4 1290 18 q 1100 -14 1164 -26 q 945 75 1035 -2 q 857 132 907 114 q 785 134 813 147 q 745 109 756 121 q 656 29 728 88 q 527 -17 585 -30 q 435 25 470 -3 q 336 111 381 69 q 223 136 290 153 q 201 129 216 134 q 180 136 186 123 q 201 165 174 149 q 304 238 254 200 q 399 323 355 277 q 495 473 459 387 q 513 661 530 560 q 416 828 496 758 q 227 882 337 898 q 123 823 156 871 q 85 732 90 775 q 113 636 77 671 q 195 595 148 602 q 341 502 304 576 q 286 346 378 429 q 264 343 274 336 q 262 363 255 350 q 218 445 292 424 q 85 522 138 467 q 31 671 31 577 q 134 895 31 801 q 368 989 236 989 q 601 898 521 989 q 683 690 682 806 q 591 453 684 555 q 410 281 498 351 q 406 271 405 278 q 413 263 407 265 q 497 216 460 243 q 560 162 534 189 q 640 112 602 118 q 736 148 677 105 q 764 173 751 159 q 790 203 777 186 q 793 210 793 206 q 791 472 790 340 q 791 662 791 603 q 785 715 791 688 q 747 742 779 742 z "},"":{"ha":954,"x_min":49,"x_max":920,"o":"m 518 163 q 494 166 501 156 q 500 187 486 176 q 581 287 578 245 q 555 353 583 315 q 458 454 528 391 q 319 665 318 581 q 436 815 319 743 q 469 834 440 817 q 511 861 498 852 q 516 873 517 867 q 399 966 495 966 q 254 846 302 966 q 220 583 206 726 q 380 211 245 335 q 690 86 516 86 q 892 138 787 86 q 916 134 908 145 q 909 111 923 123 q 538 -18 747 -18 q 195 146 330 -18 q 49 467 59 310 q 135 850 35 693 q 389 1008 235 1008 q 489 976 451 1008 q 541 901 526 945 q 557 895 545 887 q 668 991 617 939 q 719 993 690 1008 q 772 966 748 978 q 827 935 795 953 q 897 933 860 918 q 919 933 911 941 q 918 915 927 925 q 854 854 884 881 q 795 802 824 827 q 787 794 789 795 q 780 793 784 793 q 767 798 774 793 q 755 805 760 802 q 593 862 638 862 q 528 834 561 861 q 471 749 472 791 q 555 622 469 696 q 742 376 732 468 q 518 163 749 290 m 474 0 l 520 0 l 453 -104 q 517 -94 490 -94 q 601 -119 567 -94 q 638 -190 638 -146 q 578 -279 638 -252 q 470 -298 536 -298 q 368 -287 426 -298 q 316 -273 335 -281 l 330 -243 q 410 -256 368 -256 q 472 -242 449 -256 q 500 -193 500 -226 q 483 -156 500 -169 q 443 -144 467 -144 q 406 -153 423 -144 l 386 -133 l 474 0 z "},"":{"ha":976,"x_min":50,"x_max":940,"o":"m 554 852 q 528 835 541 845 q 472 749 473 791 q 555 623 470 696 q 612 571 591 591 q 621 568 617 567 q 629 572 625 568 q 672 625 645 593 q 746 665 710 669 q 817 633 782 660 q 911 606 878 585 q 940 608 929 618 q 938 580 950 598 q 904 534 921 557 q 863 491 886 511 q 760 498 816 450 q 666 541 699 548 q 658 534 660 540 q 661 523 656 528 q 743 377 736 439 q 519 164 749 290 q 495 165 503 155 q 500 188 487 176 q 581 288 579 246 q 556 353 583 315 q 459 454 528 391 q 320 666 319 582 q 437 816 320 743 q 470 835 441 818 q 512 862 499 852 q 517 874 518 867 q 400 967 497 967 q 250 846 303 967 q 221 531 197 726 q 381 211 245 336 q 691 87 517 87 q 893 138 787 87 q 917 135 910 146 q 909 111 924 124 q 539 -17 747 -17 q 195 147 331 -17 q 50 467 60 311 q 136 851 35 694 q 389 1008 236 1008 q 489 977 452 1008 q 541 901 527 945 q 548 895 543 895 q 555 894 551 893 l 558 895 q 669 992 618 939 q 720 994 691 1009 q 773 966 749 979 q 829 936 795 954 q 897 934 863 918 q 921 936 913 944 q 919 916 929 927 q 854 855 884 882 q 796 802 825 828 q 780 797 789 797 q 756 806 771 798 q 594 863 639 863 q 554 852 574 862 m 450 1128 q 398 1213 398 1179 q 463 1261 398 1261 q 511 1244 490 1261 q 550 1165 528 1229 l 604 1004 l 579 1004 l 450 1128 z "},"":{"ha":976,"x_min":50,"x_max":940,"o":"m 554 852 q 528 835 541 845 q 472 749 473 791 q 555 623 470 696 q 612 571 591 591 q 621 568 617 567 q 629 572 625 568 q 672 625 645 593 q 746 665 710 669 q 817 633 782 660 q 911 606 878 585 q 940 608 929 618 q 938 580 950 598 q 904 534 921 557 q 863 491 886 511 q 760 498 816 450 q 666 541 699 548 q 658 534 660 540 q 661 523 656 528 q 743 377 736 439 q 519 164 749 290 q 495 165 503 155 q 500 188 487 176 q 581 288 579 246 q 556 353 583 315 q 459 454 528 391 q 320 666 319 582 q 437 816 320 743 q 470 835 441 818 q 512 862 499 852 q 517 874 518 867 q 400 967 497 967 q 250 846 303 967 q 221 531 197 726 q 381 211 245 336 q 691 87 517 87 q 893 138 787 87 q 917 135 910 146 q 909 111 924 124 q 539 -17 747 -17 q 195 147 331 -17 q 50 467 60 311 q 136 851 35 694 q 389 1008 236 1008 q 489 977 452 1008 q 541 901 527 945 q 548 895 543 895 q 555 894 551 893 l 558 895 q 669 992 618 939 q 720 994 691 1009 q 773 966 749 979 q 829 936 795 954 q 897 934 863 918 q 921 936 913 944 q 919 916 929 927 q 854 855 884 882 q 796 802 825 828 q 780 797 789 797 q 756 806 771 798 q 594 863 639 863 q 554 852 574 862 m 574 991 l 549 991 l 603 1152 q 642 1231 625 1216 q 690 1249 663 1249 q 755 1200 755 1249 q 703 1116 755 1166 l 574 991 z "},"":{"ha":976,"x_min":50,"x_max":940,"o":"m 554 852 q 528 835 541 845 q 472 749 473 791 q 555 623 470 696 q 612 571 591 591 q 621 568 617 567 q 629 572 625 568 q 672 625 645 593 q 746 665 710 669 q 817 633 782 660 q 911 606 878 585 q 940 608 929 618 q 938 580 950 598 q 904 534 921 557 q 863 491 886 511 q 760 498 816 450 q 666 541 699 548 q 658 534 660 540 q 661 523 656 528 q 743 377 736 439 q 519 164 749 290 q 495 165 503 155 q 500 188 487 176 q 581 288 579 246 q 556 353 583 315 q 459 454 528 391 q 320 666 319 582 q 437 816 320 743 q 470 835 441 818 q 512 862 499 852 q 517 874 518 867 q 400 967 497 967 q 250 846 303 967 q 221 531 197 726 q 381 211 245 336 q 691 87 517 87 q 893 138 787 87 q 917 135 910 146 q 909 111 924 124 q 539 -17 747 -17 q 195 147 331 -17 q 50 467 60 311 q 136 851 35 694 q 389 1008 236 1008 q 489 977 452 1008 q 541 901 527 945 q 548 895 543 895 q 555 894 551 893 l 558 895 q 669 992 618 939 q 720 994 691 1009 q 773 966 749 979 q 829 936 795 954 q 897 934 863 918 q 921 936 913 944 q 919 916 929 927 q 854 855 884 882 q 796 802 825 828 q 780 797 789 797 q 756 806 771 798 q 594 863 639 863 q 554 852 574 862 m 741 1046 l 741 1029 q 737 1023 741 1024 q 730 1024 733 1021 l 581 1149 q 572 1149 576 1154 l 423 1024 q 416 1023 419 1021 q 412 1029 412 1024 l 412 1046 q 413 1050 412 1050 l 570 1260 q 576 1263 573 1263 q 582 1260 579 1263 l 739 1050 q 741 1046 741 1049 z "},"":{"ha":976,"x_min":50,"x_max":940,"o":"m 554 852 q 528 835 541 845 q 472 749 473 791 q 555 623 470 696 q 612 571 591 591 q 621 568 617 567 q 629 572 625 568 q 672 625 645 593 q 746 665 710 669 q 817 633 782 660 q 911 606 878 585 q 940 608 929 618 q 938 580 950 598 q 904 534 921 557 q 863 491 886 511 q 760 498 816 450 q 666 541 699 548 q 658 534 660 540 q 661 523 656 528 q 743 377 736 439 q 519 164 749 290 q 495 165 503 155 q 500 188 487 176 q 581 288 579 246 q 556 353 583 315 q 459 454 528 391 q 320 666 319 582 q 437 816 320 743 q 470 835 441 818 q 512 862 499 852 q 517 874 518 867 q 400 967 497 967 q 250 846 303 967 q 221 531 197 726 q 381 211 245 336 q 691 87 517 87 q 893 138 787 87 q 917 135 910 146 q 909 111 924 124 q 539 -17 747 -17 q 195 147 331 -17 q 50 467 60 311 q 136 851 35 694 q 389 1008 236 1008 q 489 977 452 1008 q 541 901 527 945 q 548 895 543 895 q 555 894 551 893 l 558 895 q 669 992 618 939 q 720 994 691 1009 q 773 966 749 979 q 829 936 795 954 q 897 934 863 918 q 921 936 913 944 q 919 916 929 927 q 854 855 884 882 q 796 802 825 828 q 780 797 789 797 q 756 806 771 798 q 594 863 639 863 q 554 852 574 862 m 433 1228 q 502 1156 509 1228 q 456 1082 498 1119 q 390 1046 414 1045 q 353 1084 366 1046 q 342 1156 340 1123 q 373 1207 345 1187 q 433 1228 401 1228 m 725 1228 q 793 1156 800 1228 q 748 1082 789 1119 q 682 1046 706 1045 q 644 1084 657 1046 q 634 1156 631 1123 q 664 1207 636 1187 q 725 1228 692 1228 z "},"":{"ha":951,"x_min":33,"x_max":889,"o":"m 526 463 q 517 441 532 449 q 229 435 366 361 q 82 651 92 509 q 164 904 73 793 q 421 1019 256 1015 q 551 993 486 1021 q 644 941 616 966 q 763 843 713 880 q 864 833 812 807 q 889 830 881 842 q 872 801 897 817 q 713 633 724 706 q 815 392 703 561 q 889 120 920 234 q 747 -73 858 7 q 514 -162 641 -150 q 275 -75 387 -175 q 174 14 220 -26 q 61 12 128 54 q 33 9 43 -1 q 35 32 23 19 q 434 24 239 239 q 595 -85 524 -73 q 720 -49 667 -96 q 762 71 771 -1 q 673 265 752 143 q 565 522 562 433 q 697 713 569 610 q 703 727 705 720 q 690 733 701 734 q 533 806 607 734 q 351 881 458 879 q 198 813 251 875 q 156 633 145 751 q 278 466 167 515 q 503 467 389 416 q 526 463 519 474 m 482 1160 q 431 1244 431 1210 q 495 1293 431 1293 q 543 1275 523 1293 q 583 1196 561 1260 l 637 1035 l 612 1035 l 482 1160 z "},"":{"ha":951,"x_min":33,"x_max":889,"o":"m 526 463 q 517 441 532 449 q 229 435 366 361 q 82 651 92 509 q 164 904 73 793 q 421 1019 256 1015 q 551 993 486 1021 q 644 941 616 966 q 763 843 713 880 q 864 833 812 807 q 889 830 881 842 q 872 801 897 817 q 713 633 724 706 q 815 392 703 561 q 889 120 920 234 q 747 -73 858 7 q 514 -162 641 -150 q 275 -75 387 -175 q 174 14 220 -26 q 61 12 128 54 q 33 9 43 -1 q 35 32 23 19 q 434 24 239 239 q 595 -85 524 -73 q 720 -49 667 -96 q 762 71 771 -1 q 673 265 752 143 q 565 522 562 433 q 697 713 569 610 q 703 727 705 720 q 690 733 701 734 q 533 806 607 734 q 351 881 458 879 q 198 813 251 875 q 156 633 145 751 q 278 466 167 515 q 503 467 389 416 q 526 463 519 474 m 611 1034 l 586 1034 l 640 1195 q 680 1274 662 1259 q 728 1291 700 1291 q 792 1242 792 1291 q 741 1158 792 1208 l 611 1034 z "},"":{"ha":951,"x_min":33,"x_max":889,"o":"m 526 463 q 517 441 532 449 q 229 435 366 361 q 82 651 92 509 q 164 904 73 793 q 421 1019 256 1015 q 551 993 486 1021 q 644 941 616 966 q 763 843 713 880 q 864 833 812 807 q 889 830 881 842 q 872 801 897 817 q 713 633 724 706 q 815 392 703 561 q 889 120 920 234 q 747 -73 858 7 q 514 -162 641 -150 q 275 -75 387 -175 q 174 14 220 -26 q 61 12 128 54 q 33 9 43 -1 q 35 32 23 19 q 434 24 239 239 q 595 -85 524 -73 q 720 -49 667 -96 q 762 71 771 -1 q 673 265 752 143 q 565 522 562 433 q 697 713 569 610 q 703 727 705 720 q 690 733 701 734 q 533 806 607 734 q 351 881 458 879 q 198 813 251 875 q 156 633 145 751 q 278 466 167 515 q 503 467 389 416 q 526 463 519 474 m 678 1074 l 678 1057 q 675 1050 678 1051 q 667 1051 671 1048 l 518 1176 q 509 1176 513 1181 l 361 1051 q 353 1050 357 1048 q 349 1057 349 1051 l 349 1074 q 351 1078 349 1077 l 508 1287 q 514 1290 511 1290 q 519 1287 517 1290 l 677 1078 q 678 1074 678 1076 z "},"":{"ha":951,"x_min":33,"x_max":889,"o":"m 526 463 q 517 441 532 449 q 229 435 366 361 q 82 651 92 509 q 164 904 73 793 q 421 1019 256 1015 q 551 993 486 1021 q 644 941 616 966 q 763 843 713 880 q 864 833 812 807 q 889 830 881 842 q 872 801 897 817 q 713 633 724 706 q 815 392 703 561 q 889 120 920 234 q 747 -73 858 7 q 514 -162 641 -150 q 275 -75 387 -175 q 174 14 220 -26 q 61 12 128 54 q 33 9 43 -1 q 35 32 23 19 q 434 24 239 239 q 595 -85 524 -73 q 720 -49 667 -96 q 762 71 771 -1 q 673 265 752 143 q 565 522 562 433 q 697 713 569 610 q 703 727 705 720 q 690 733 701 734 q 533 806 607 734 q 351 881 458 879 q 198 813 251 875 q 156 633 145 751 q 278 466 167 515 q 503 467 389 416 q 526 463 519 474 m 339 1231 q 408 1158 414 1231 q 362 1085 404 1122 q 296 1048 320 1048 q 258 1087 271 1048 q 248 1158 245 1126 q 278 1210 250 1190 q 339 1231 307 1231 m 631 1231 q 699 1158 706 1231 q 653 1085 695 1122 q 587 1048 612 1048 q 550 1087 563 1048 q 540 1158 537 1126 q 570 1210 542 1190 q 631 1231 598 1231 z "},"":{"ha":1126,"x_min":32,"x_max":1080,"o":"m 490 424 q 452 460 470 444 q 361 666 313 578 q 515 812 409 753 q 542 809 534 822 q 533 785 550 795 q 574 603 432 722 q 670 470 646 531 l 885 529 q 893 525 890 530 q 893 517 895 521 l 894 494 q 886 488 890 488 l 681 431 q 682 395 684 412 q 534 230 672 306 q 508 233 515 220 q 515 256 500 245 q 543 366 593 309 q 522 391 532 379 q 149 380 265 316 q 32 629 32 444 q 96 815 32 731 q 261 949 161 899 q 482 1007 361 1000 q 718 979 602 1015 q 929 842 844 932 q 1053 644 1014 753 q 1080 418 1091 534 q 1002 201 1069 301 q 755 -2 901 48 q 384 68 609 -53 q 268 111 327 98 q 145 71 208 123 q 118 72 127 60 q 124 98 109 84 q 333 235 241 205 q 576 170 425 265 q 812 96 709 84 q 963 218 916 108 q 915 599 1044 410 q 571 838 786 787 q 273 812 422 873 q 97 631 123 751 q 159 420 64 486 q 490 424 254 354 z "},"":{"ha":1226,"x_min":36,"x_max":1185,"o":"m 384 381 q 366 428 385 419 q 284 423 347 437 q 112 466 188 399 q 36 662 36 532 q 122 889 37 800 q 354 980 207 979 q 508 935 427 980 q 647 805 590 890 q 657 800 650 800 q 667 807 665 801 q 747 922 693 869 q 869 975 800 975 q 1023 924 977 975 q 1098 758 1069 873 q 1161 673 1114 679 q 1176 662 1175 673 q 1160 645 1177 651 q 981 502 1029 600 q 988 251 933 404 q 1058 154 1013 182 q 1156 158 1103 125 q 1185 159 1176 170 q 1181 135 1195 147 q 1092 62 1137 98 q 1002 -12 1046 25 q 987 -12 995 -17 q 809 245 832 103 q 991 583 785 388 q 997 592 998 588 q 991 600 996 597 q 917 764 943 630 q 877 853 903 831 q 801 876 851 876 q 729 841 760 876 q 680 755 697 806 q 681 746 679 749 q 725 559 721 660 q 681 322 729 439 q 550 111 633 206 q 381 -12 460 4 q 238 67 303 -28 q 122 88 181 153 q 96 86 107 74 q 100 114 85 99 q 391 163 285 302 q 423 121 408 140 q 469 103 438 101 q 551 189 508 104 q 595 402 595 273 q 507 698 593 571 q 308 837 420 825 q 132 796 196 849 q 69 669 67 743 q 109 549 71 594 q 248 531 146 505 q 418 387 444 581 q 399 363 414 361 q 384 381 383 364 m 782 1182 l 810 1182 q 778 1105 799 1135 q 682 1056 741 1056 q 549 1087 646 1056 q 488 1099 511 1099 q 441 1059 452 1099 l 416 1059 q 442 1132 426 1107 q 539 1184 478 1184 q 612 1172 569 1184 q 671 1154 629 1167 q 733 1141 712 1141 q 768 1155 756 1141 q 782 1182 775 1163 z "},"":{"ha":1047,"x_min":37,"x_max":986,"o":"m 41 162 q 247 276 190 280 q 444 169 304 272 q 683 81 583 67 q 850 189 783 94 q 883 438 913 277 q 691 716 854 600 q 457 819 576 798 q 238 780 338 841 q 184 672 175 741 q 292 566 193 602 q 486 423 477 498 q 383 256 494 348 q 362 253 370 245 q 363 271 354 260 q 363 335 397 309 q 214 405 330 360 q 46 596 42 470 q 207 804 50 722 q 369 889 305 850 q 466 989 433 928 q 477 995 469 996 q 773 883 640 974 q 960 654 907 792 q 986 383 1014 513 q 875 164 958 253 q 585 -9 736 14 q 282 64 433 -32 q 159 139 215 106 q 54 141 103 172 q 37 143 44 135 q 41 162 30 152 m 642 1090 q 591 1175 591 1141 q 655 1223 591 1223 q 703 1206 683 1223 q 743 1127 721 1191 l 797 966 l 772 966 l 642 1090 z "},"":{"ha":1047,"x_min":37,"x_max":986,"o":"m 41 162 q 247 276 190 280 q 444 169 304 272 q 683 81 583 67 q 850 189 783 94 q 883 438 913 277 q 691 716 854 600 q 457 819 576 798 q 238 780 338 841 q 184 672 175 741 q 292 566 193 602 q 486 423 477 498 q 383 256 494 348 q 362 253 370 245 q 363 271 354 260 q 363 335 397 309 q 214 405 330 360 q 46 596 42 470 q 207 804 50 722 q 369 889 305 850 q 466 989 433 928 q 477 995 469 996 q 773 883 640 974 q 960 654 907 792 q 986 383 1014 513 q 875 164 958 253 q 585 -9 736 14 q 282 64 433 -32 q 159 139 215 106 q 54 141 103 172 q 37 143 44 135 q 41 162 30 152 m 345 964 l 320 964 l 374 1125 q 414 1204 396 1189 q 462 1221 434 1221 q 526 1173 526 1221 q 475 1088 526 1139 l 345 964 z "},"":{"ha":1047,"x_min":37,"x_max":986,"o":"m 41 162 q 247 276 190 280 q 444 169 304 272 q 683 81 583 67 q 850 189 783 94 q 883 438 913 277 q 691 716 854 600 q 457 819 576 798 q 238 780 338 841 q 184 672 175 741 q 292 566 193 602 q 486 423 477 498 q 383 256 494 348 q 362 253 370 245 q 363 271 354 260 q 363 335 397 309 q 214 405 330 360 q 46 596 42 470 q 207 804 50 722 q 369 889 305 850 q 466 989 433 928 q 477 995 469 996 q 773 883 640 974 q 960 654 907 792 q 986 383 1014 513 q 875 164 958 253 q 585 -9 736 14 q 282 64 433 -32 q 159 139 215 106 q 54 141 103 172 q 37 143 44 135 q 41 162 30 152 m 688 1011 l 688 994 q 684 987 688 989 q 677 989 680 986 l 528 1114 q 519 1114 523 1119 l 370 989 q 363 987 366 986 q 359 994 359 989 l 359 1011 q 360 1015 359 1015 l 517 1225 q 524 1227 520 1227 q 529 1225 526 1227 l 686 1015 q 688 1011 688 1014 z "},"":{"ha":1047,"x_min":37,"x_max":986,"o":"m 41 162 q 247 276 190 280 q 444 169 304 272 q 683 81 583 67 q 850 189 783 94 q 883 438 913 277 q 691 716 854 600 q 457 819 576 798 q 238 780 338 841 q 184 672 175 741 q 292 566 193 602 q 486 423 477 498 q 383 256 494 348 q 362 253 370 245 q 363 271 354 260 q 363 335 397 309 q 214 405 330 360 q 46 596 42 470 q 207 804 50 722 q 369 889 305 850 q 466 989 433 928 q 477 995 469 996 q 773 883 640 974 q 960 654 907 792 q 986 383 1014 513 q 875 164 958 253 q 585 -9 736 14 q 282 64 433 -32 q 159 139 215 106 q 54 141 103 172 q 37 143 44 135 q 41 162 30 152 m 692 1182 l 720 1182 q 688 1105 709 1135 q 593 1056 652 1056 q 460 1087 556 1056 q 398 1099 422 1099 q 352 1059 363 1099 l 326 1059 q 353 1132 336 1107 q 450 1184 389 1184 q 522 1172 479 1184 q 581 1154 540 1167 q 644 1141 623 1141 q 679 1155 667 1141 q 692 1182 686 1163 z "},"":{"ha":1047,"x_min":37,"x_max":986,"o":"m 387 1231 q 455 1158 462 1231 q 409 1085 451 1122 q 343 1048 368 1048 q 306 1087 319 1048 q 296 1158 293 1126 q 326 1210 298 1190 q 387 1231 354 1231 m 678 1231 q 747 1158 753 1231 q 701 1085 743 1122 q 635 1048 659 1048 q 597 1087 610 1048 q 587 1158 585 1126 q 617 1210 589 1190 q 678 1231 646 1231 m 41 162 q 247 276 190 280 q 444 169 304 272 q 683 81 583 67 q 850 189 783 94 q 883 438 913 277 q 691 716 854 600 q 457 819 576 798 q 238 780 338 841 q 184 672 175 741 q 292 566 193 602 q 486 423 477 498 q 383 256 494 348 q 362 253 370 245 q 363 271 354 260 q 363 335 397 309 q 214 405 330 360 q 46 596 42 470 q 207 804 50 722 q 369 889 305 850 q 466 989 433 928 q 477 995 469 996 q 773 883 640 974 q 960 654 907 792 q 986 383 1014 513 q 875 164 958 253 q 585 -9 736 14 q 282 64 433 -32 q 159 139 215 106 q 54 141 103 172 q 37 143 44 135 q 41 162 30 152 z "},"":{"ha":538,"x_min":73,"x_max":468,"o":"m 145 611 l 271 486 l 396 611 q 412 610 404 618 l 467 556 q 467 540 475 548 l 342 414 l 468 288 q 467 273 475 281 l 412 218 q 397 217 404 210 l 271 343 l 144 217 q 129 218 137 210 l 74 273 q 73 288 66 281 l 199 414 l 74 540 q 75 556 66 548 l 129 610 q 145 611 137 618 z "},"":{"ha":1047,"x_min":37,"x_max":986,"o":"m 825 1034 l 848 1021 q 852 1005 857 1014 l 779 880 q 960 654 907 789 q 986 383 1014 513 q 875 164 958 253 q 585 -9 736 14 q 297 54 440 -31 l 237 -49 q 222 -54 231 -59 l 199 -40 q 195 -24 189 -35 l 256 80 q 159 138 203 112 q 54 141 103 172 q 37 143 44 135 q 41 162 30 152 q 247 276 190 280 q 346 235 281 273 l 359 257 q 363 271 357 263 q 363 335 397 309 q 214 405 330 360 q 46 596 42 470 q 207 804 50 722 q 369 889 305 850 q 466 989 433 928 q 477 995 469 996 q 737 906 618 977 l 810 1030 q 825 1034 814 1039 m 444 169 q 683 81 583 67 q 850 189 783 94 q 883 438 913 277 q 691 716 854 600 l 686 720 l 387 209 q 444 169 414 191 m 457 819 q 238 780 338 841 q 184 672 175 741 q 292 566 193 602 q 473 454 437 512 l 644 747 q 457 819 552 802 z "},"":{"ha":990,"x_min":33,"x_max":951,"o":"m 782 -9 q 690 53 713 24 q 663 168 666 85 q 657 179 663 177 q 644 174 650 181 q 587 114 616 144 q 530 53 558 83 q 251 70 397 -85 q 151 141 200 123 q 54 117 101 158 q 34 117 42 107 q 38 138 25 126 l 210 282 l 210 283 q 274 427 296 366 q 192 549 251 488 q 107 673 142 600 q 127 837 73 746 q 240 940 170 908 q 363 969 311 971 q 483 891 458 965 q 442 768 507 818 q 417 769 427 756 q 422 795 406 781 q 449 885 477 838 q 364 937 421 933 q 288 909 323 939 q 252 837 253 879 q 281 728 249 758 q 335 677 313 699 q 432 478 446 563 q 256 283 417 393 q 250 272 249 279 q 260 264 250 266 q 325 229 302 254 q 374 180 348 203 q 528 127 461 98 q 659 229 595 155 q 662 236 662 232 l 658 726 q 620 791 658 776 q 621 823 589 805 q 757 890 689 856 q 893 958 825 924 q 915 955 905 964 q 909 933 924 946 q 839 831 857 895 q 821 682 821 767 l 826 204 q 930 133 827 96 q 951 129 943 138 q 948 111 958 120 l 819 -6 q 800 -14 810 -13 q 782 -9 790 -14 m 508 1086 q 456 1171 456 1137 q 521 1219 456 1219 q 569 1202 549 1219 q 608 1123 587 1187 l 663 962 l 637 962 l 508 1086 z "},"":{"ha":990,"x_min":33,"x_max":951,"o":"m 782 -9 q 690 53 713 24 q 663 168 666 85 q 657 179 663 177 q 644 174 650 181 q 587 114 616 144 q 530 53 558 83 q 251 70 397 -85 q 151 141 200 123 q 54 117 101 158 q 34 117 42 107 q 38 138 25 126 l 210 282 l 210 283 q 274 427 296 366 q 192 549 251 488 q 107 673 142 600 q 127 837 73 746 q 240 940 170 908 q 363 969 311 971 q 483 891 458 965 q 442 768 507 818 q 417 769 427 756 q 422 795 406 781 q 449 885 477 838 q 364 937 421 933 q 288 909 323 939 q 252 837 253 879 q 281 728 249 758 q 335 677 313 699 q 432 478 446 563 q 256 283 417 393 q 250 272 249 279 q 260 264 250 266 q 325 229 302 254 q 374 180 348 203 q 528 127 461 98 q 659 229 595 155 q 662 236 662 232 l 658 726 q 620 791 658 776 q 621 823 589 805 q 757 890 689 856 q 893 958 825 924 q 915 955 905 964 q 909 933 924 946 q 839 831 857 895 q 821 682 821 767 l 826 204 q 930 133 827 96 q 951 129 943 138 q 948 111 958 120 l 819 -6 q 800 -14 810 -13 q 782 -9 790 -14 m 578 941 l 553 941 l 608 1103 q 647 1181 629 1166 q 695 1199 667 1199 q 760 1150 760 1199 q 708 1066 760 1116 l 578 941 z "},"":{"ha":990,"x_min":33,"x_max":951,"o":"m 782 -9 q 690 53 713 24 q 663 168 666 85 q 657 179 663 177 q 644 174 650 181 q 587 114 616 144 q 530 53 558 83 q 251 70 397 -85 q 151 141 200 123 q 54 117 101 158 q 34 117 42 107 q 38 138 25 126 l 210 282 l 210 283 q 274 427 296 366 q 192 549 251 488 q 107 673 142 600 q 127 837 73 746 q 240 940 170 908 q 363 969 311 971 q 483 891 458 965 q 442 768 507 818 q 417 769 427 756 q 422 795 406 781 q 449 885 477 838 q 364 937 421 933 q 288 909 323 939 q 252 837 253 879 q 281 728 249 758 q 335 677 313 699 q 432 478 446 563 q 256 283 417 393 q 250 272 249 279 q 260 264 250 266 q 325 229 302 254 q 374 180 348 203 q 528 127 461 98 q 659 229 595 155 q 662 236 662 232 l 658 726 q 620 791 658 776 q 621 823 589 805 q 757 890 689 856 q 893 958 825 924 q 915 955 905 964 q 909 933 924 946 q 839 831 857 895 q 821 682 821 767 l 826 204 q 930 133 827 96 q 951 129 943 138 q 948 111 958 120 l 819 -6 q 800 -14 810 -13 q 782 -9 790 -14 m 659 1011 l 659 994 q 656 987 659 989 q 648 989 652 986 l 499 1114 q 490 1114 494 1119 l 342 989 q 334 987 338 986 q 330 994 330 989 l 330 1011 q 332 1015 330 1015 l 489 1225 q 495 1227 492 1227 q 500 1225 498 1227 l 658 1015 q 659 1011 659 1014 z "},"":{"ha":990,"x_min":33,"x_max":951,"o":"m 755 1231 q 823 1158 830 1231 q 778 1085 819 1122 q 711 1048 736 1048 q 674 1087 687 1048 q 664 1158 661 1126 q 694 1210 666 1190 q 755 1231 722 1231 m 463 1231 q 532 1158 538 1231 q 486 1085 528 1122 q 420 1048 444 1048 q 382 1087 395 1048 q 372 1158 370 1126 q 402 1210 374 1190 q 463 1231 431 1231 m 782 20 q 690 82 713 53 q 663 197 666 114 q 657 208 663 206 q 644 203 650 210 q 587 143 616 173 q 530 82 558 113 q 251 99 397 -56 q 151 170 200 153 q 54 146 101 187 q 34 146 42 136 q 38 167 25 155 l 210 311 l 210 312 q 274 456 296 395 q 192 578 251 517 q 107 702 142 629 q 127 866 73 775 q 240 969 170 937 q 363 998 311 1000 q 483 921 458 994 q 442 798 507 847 q 417 798 427 785 q 422 824 406 810 q 449 915 477 867 q 364 966 421 962 q 288 938 323 968 q 252 866 253 908 q 281 758 249 787 q 335 707 313 728 q 432 507 446 592 q 256 313 417 422 q 250 301 249 308 q 260 293 250 295 q 325 258 302 283 q 374 209 348 233 q 528 156 461 127 q 659 258 595 184 q 662 265 662 261 l 658 755 q 620 820 658 805 q 621 852 589 834 q 757 919 689 885 q 893 987 825 953 q 915 984 905 994 q 909 962 924 975 q 839 860 857 924 q 821 711 821 796 l 826 233 q 930 162 827 125 q 951 158 943 168 q 948 140 958 149 l 819 23 q 800 16 810 16 q 782 20 790 15 z "},"":{"ha":1190,"x_min":31,"x_max":1154,"o":"m 258 481 q 409 529 349 477 q 431 533 420 541 q 431 517 441 526 q 271 446 355 444 q 98 518 165 448 q 31 701 31 587 q 124 905 31 815 q 357 995 217 995 q 527 954 448 995 q 650 838 606 912 q 699 936 660 892 q 801 996 737 979 q 963 970 888 1018 q 1067 831 1039 922 q 1133 710 1105 705 q 1153 700 1149 713 q 1133 678 1157 687 q 990 574 1004 625 q 1057 384 975 523 q 1117 101 1150 221 q 964 -111 1084 -18 q 810 -192 888 -165 q 653 -216 732 -218 q 435 -165 528 -213 q 273 -29 343 -117 q 274 -11 264 -18 q 294 -16 283 -3 q 448 -133 365 -93 q 645 -173 532 -173 q 921 -22 858 -163 q 869 304 983 119 q 829 486 802 413 q 976 622 856 558 q 982 632 982 627 q 976 642 982 637 q 926 685 951 654 q 887 787 901 717 q 846 882 875 842 q 758 916 817 922 q 690 864 710 909 q 682 762 671 819 q 681 602 699 684 q 594 387 650 464 q 475 253 537 309 q 471 243 471 250 q 478 235 472 236 q 547 192 501 224 q 655 151 611 141 q 736 203 699 161 q 764 210 751 219 q 766 184 777 201 q 704 112 730 144 q 661 56 679 80 q 558 3 621 -1 q 433 64 495 7 q 317 89 365 127 q 294 88 302 78 q 300 114 285 98 q 384 195 340 156 q 461 283 429 234 q 531 438 505 349 q 555 602 558 528 q 477 779 551 688 q 281 859 404 869 q 142 808 203 861 q 81 675 81 755 q 127 540 81 596 q 258 481 174 484 m 644 981 l 619 981 l 673 1143 q 713 1221 695 1206 q 761 1239 733 1239 q 825 1190 825 1239 q 774 1106 825 1156 l 644 981 z "},"":{"ha":1236,"x_min":21,"x_max":1198,"o":"m 1067 719 q 1096 716 1087 728 q 1091 694 1105 705 q 1064 601 1043 660 q 1147 495 1086 543 q 1197 380 1209 447 q 1094 188 1185 314 q 888 0 989 46 q 695 9 804 -39 l 692 10 q 652 31 673 19 q 642 32 647 35 q 636 24 637 29 q 601 -119 626 -62 q 526 -225 576 -177 q 508 -228 516 -234 q 507 -210 500 -222 q 541 82 559 -101 q 534 91 541 88 q 332 79 399 144 q 310 75 320 67 q 309 96 299 83 q 515 241 414 233 q 523 245 520 242 q 525 254 525 248 q 508 428 517 341 q 492 603 500 515 q 425 774 481 702 q 283 848 368 846 q 130 803 192 852 q 67 665 67 754 q 124 525 67 576 q 277 473 182 473 q 390 509 346 472 q 414 511 404 521 q 407 482 425 500 q 345 450 380 458 q 273 441 309 442 q 93 506 165 439 q 21 690 21 574 q 111 890 21 806 q 356 973 201 973 q 513 926 450 971 q 611 825 577 882 q 651 723 646 769 q 658 650 656 677 q 659 513 660 576 l 1067 719 m 720 173 q 939 110 858 94 q 1069 203 1020 126 q 1005 426 1116 348 q 890 570 895 503 q 885 580 890 578 q 874 579 880 582 l 659 473 q 656 405 658 437 q 648 221 650 304 q 654 211 648 213 q 720 173 684 197 z "},"":{"ha":676,"x_min":-5,"x_max":634,"o":"m 78 621 l 5 621 q -5 630 -5 621 q 3 642 -5 640 q 76 687 47 649 q 101 786 105 725 q 126 948 96 882 q 245 984 156 1013 q 359 950 318 962 q 417 964 400 937 q 437 974 427 978 q 430 949 437 973 q 367 845 406 872 q 222 863 328 819 q 129 826 143 899 q 159 731 115 753 q 245 646 230 694 q 254 582 255 614 q 281 582 256 564 q 357 641 334 619 q 421 705 391 671 q 458 706 445 727 q 477 689 465 692 q 497 678 490 685 q 563 520 609 592 q 422 385 516 448 q 415 374 414 380 q 425 366 416 368 q 530 334 468 361 q 617 253 591 307 q 634 90 644 199 q 517 -137 627 -45 q 256 -264 410 -227 q 246 -261 250 -264 q 242 -254 243 -258 q 244 -245 241 -250 q 252 -240 247 -241 q 437 -140 368 -212 q 506 45 506 -67 q 421 246 497 199 q 276 290 345 292 q 272 313 245 297 q 404 410 347 357 q 439 533 460 464 q 386 580 427 572 q 274 541 359 588 q 258 527 264 536 q 252 504 253 517 l 183 -210 q 169 -231 180 -233 q 156 -208 157 -229 q 121 206 139 -1 q 85 614 104 410 q 78 621 83 621 z "},"":{"ha":640,"x_min":36,"x_max":604,"o":"m 362 96 q 286 38 328 69 q 210 -20 245 6 q 190 -28 197 -30 q 184 -16 183 -27 q 142 38 184 -2 q 36 308 32 142 q 168 549 40 450 q 242 612 208 578 q 302 692 276 645 q 332 694 313 713 q 538 556 435 577 q 545 530 571 550 q 511 473 513 507 l 511 472 l 513 162 q 535 119 513 131 q 585 137 558 108 q 604 143 595 149 q 604 122 613 137 q 557 50 580 85 q 519 -23 534 15 l 518 -24 q 495 -24 509 -39 q 477 -13 488 -16 q 380 90 400 4 q 373 98 378 94 q 362 96 367 98 m 370 495 q 271 560 328 507 q 228 566 244 593 q 172 330 156 459 q 302 101 193 144 q 303 100 302 101 q 370 134 331 92 q 373 141 373 138 q 372 173 372 151 l 378 484 q 370 495 378 492 m 332 840 q 281 924 281 890 q 345 972 281 972 q 393 955 373 972 q 433 876 411 940 l 487 715 l 462 715 l 332 840 z "},"":{"ha":640,"x_min":36,"x_max":604,"o":"m 362 96 q 286 38 328 69 q 210 -20 245 6 q 190 -28 197 -30 q 184 -16 183 -27 q 142 38 184 -2 q 36 308 32 142 q 168 549 40 450 q 242 612 208 578 q 302 692 276 645 q 332 694 313 713 q 538 556 435 577 q 545 530 571 550 q 511 473 513 507 l 511 472 l 513 162 q 535 119 513 131 q 585 137 558 108 q 604 143 595 149 q 604 122 613 137 q 557 50 580 85 q 519 -23 534 15 l 518 -24 q 495 -24 509 -39 q 477 -13 488 -16 q 380 90 400 4 q 373 98 378 94 q 362 96 367 98 m 370 495 q 271 560 328 507 q 228 566 244 593 q 172 330 156 459 q 302 101 193 144 q 303 100 302 101 q 370 134 331 92 q 373 141 373 138 q 372 173 372 151 l 378 484 q 370 495 378 492 m 205 714 l 180 714 l 234 876 q 273 954 256 939 q 321 972 294 972 q 386 923 386 972 q 334 839 386 889 l 205 714 z "},"":{"ha":640,"x_min":36,"x_max":604,"o":"m 362 96 q 286 38 328 69 q 210 -20 245 6 q 190 -28 197 -30 q 184 -16 183 -27 q 142 38 184 -2 q 36 308 32 142 q 168 549 40 450 q 242 612 208 578 q 302 692 276 645 q 332 694 313 713 q 538 556 435 577 q 545 530 571 550 q 511 473 513 507 l 511 472 l 513 162 q 535 119 513 131 q 585 137 558 108 q 604 143 595 149 q 604 122 613 137 q 557 50 580 85 q 519 -23 534 15 l 518 -24 q 495 -24 509 -39 q 477 -13 488 -16 q 380 90 400 4 q 373 98 378 94 q 362 96 367 98 m 370 495 q 271 560 328 507 q 228 566 244 593 q 172 330 156 459 q 302 101 193 144 q 303 100 302 101 q 370 134 331 92 q 373 141 373 138 q 372 173 372 151 l 378 484 q 370 495 378 492 m 484 764 l 484 747 q 481 741 484 742 q 473 742 477 739 l 324 867 q 315 867 319 872 l 167 742 q 159 741 163 739 q 155 747 155 742 l 155 764 q 157 768 155 768 l 314 978 q 320 981 317 981 q 326 978 323 981 l 483 768 q 484 764 484 767 z "},"":{"ha":640,"x_min":36,"x_max":604,"o":"m 362 96 q 286 38 328 69 q 210 -20 245 6 q 190 -28 197 -30 q 184 -16 183 -27 q 142 38 184 -2 q 36 308 32 142 q 168 549 40 450 q 242 612 208 578 q 302 692 276 645 q 332 694 313 713 q 538 556 435 577 q 545 530 571 550 q 511 473 513 507 l 511 472 l 513 162 q 535 119 513 131 q 585 137 558 108 q 604 143 595 149 q 604 122 613 137 q 557 50 580 85 q 519 -23 534 15 l 518 -24 q 495 -24 509 -39 q 477 -13 488 -16 q 380 90 400 4 q 373 98 378 94 q 362 96 367 98 m 370 495 q 271 560 328 507 q 228 566 244 593 q 172 330 156 459 q 302 101 193 144 q 303 100 302 101 q 370 134 331 92 q 373 141 373 138 q 372 173 372 151 l 378 484 q 370 495 378 492 m 490 935 l 517 935 q 486 859 507 888 q 390 809 449 809 q 257 840 353 809 q 195 852 219 852 q 149 812 160 852 l 123 812 q 150 885 134 860 q 247 937 186 937 q 319 925 277 937 q 378 907 337 920 q 441 894 420 894 q 476 908 464 894 q 490 935 483 916 z "},"":{"ha":640,"x_min":36,"x_max":604,"o":"m 245 984 q 314 911 321 984 q 268 838 310 875 q 202 802 227 801 q 165 840 178 802 q 155 911 152 879 q 185 963 157 943 q 245 984 213 984 m 503 984 q 571 911 578 984 q 525 838 567 875 q 459 802 484 801 q 422 840 435 802 q 412 911 409 879 q 442 963 414 943 q 503 984 470 984 m 362 127 q 286 70 328 101 q 210 12 245 38 q 190 3 197 2 q 184 16 183 5 q 142 70 184 30 q 36 340 32 174 q 168 581 40 482 q 242 644 208 610 q 302 724 276 677 q 332 726 313 745 q 538 588 435 609 q 545 562 571 582 q 511 505 513 539 l 511 504 l 513 194 q 535 151 513 163 q 585 169 558 140 q 604 175 595 180 q 604 154 613 169 q 557 82 580 117 q 519 9 534 47 l 518 8 q 495 8 509 -7 q 477 19 488 16 q 380 121 400 36 q 373 130 378 125 q 362 127 367 130 m 370 527 q 271 592 328 538 q 228 598 244 625 q 172 361 156 491 q 302 133 193 176 q 303 132 302 133 q 370 165 331 123 q 373 173 373 170 q 372 205 372 183 l 378 516 q 370 527 378 524 z "},"":{"ha":640,"x_min":36,"x_max":604,"o":"m 326 1052 q 439 1007 392 1052 q 486 899 486 962 q 439 791 486 836 q 326 746 392 746 q 212 791 259 746 q 165 899 165 836 q 212 1007 165 962 q 326 1052 259 1052 m 326 1006 q 283 974 290 1006 q 277 897 277 942 q 283 820 277 852 q 326 788 290 788 q 368 820 361 788 q 375 897 375 852 q 368 974 375 942 q 326 1006 361 1006 m 362 96 q 286 38 328 69 q 210 -20 245 6 q 190 -28 197 -30 q 184 -16 183 -27 q 142 38 184 -2 q 36 308 32 142 q 168 549 40 450 q 242 612 208 578 q 302 692 276 645 q 332 694 313 713 q 538 556 435 577 q 545 530 571 550 q 511 473 513 507 l 511 472 l 513 162 q 535 119 513 131 q 585 137 558 108 q 604 143 595 149 q 604 122 613 137 q 557 50 580 85 q 519 -23 534 15 l 518 -24 q 495 -24 509 -39 q 477 -13 488 -16 q 380 90 400 4 q 373 98 378 94 q 362 96 367 98 m 370 495 q 271 560 328 507 q 228 566 244 593 q 172 330 156 459 q 302 101 193 144 q 303 100 302 101 q 370 134 331 92 q 373 141 373 138 q 372 173 372 151 l 378 484 q 370 495 378 492 z "},"":{"ha":806,"x_min":36,"x_max":767,"o":"m 531 -19 q 514 5 530 -3 q 487 22 498 14 q 393 119 426 63 q 286 37 321 64 q 210 -20 245 6 q 190 -28 197 -30 q 184 -16 183 -27 q 142 38 184 -2 q 36 308 32 142 q 168 549 40 450 q 242 612 208 578 q 302 692 276 645 q 332 694 313 713 q 437 600 385 634 q 445 607 441 603 q 537 666 485 643 q 644 703 589 688 q 669 686 661 706 l 767 456 q 762 433 774 438 l 761 433 l 483 326 q 476 313 475 321 q 587 120 509 162 q 743 107 665 77 q 760 105 756 113 q 755 93 764 97 q 650 36 700 65 q 561 -25 600 7 q 543 -28 555 -29 q 531 -19 531 -26 m 271 560 q 228 566 244 593 q 172 330 156 459 q 302 101 193 144 q 303 100 302 101 q 382 139 322 94 q 376 151 379 144 q 340 313 345 227 q 367 496 336 418 l 349 500 q 271 560 328 507 m 468 364 q 473 356 469 359 q 483 355 477 353 l 627 410 q 633 424 637 414 l 551 627 q 526 631 545 642 q 473 526 487 608 q 468 364 458 444 z "},"":{"ha":492,"x_min":40,"x_max":458,"o":"m 231 -20 q 213 5 229 -3 q 186 21 197 13 q 76 150 109 74 q 40 312 44 227 q 144 606 32 505 q 237 665 184 642 q 344 702 289 688 q 369 685 359 705 l 448 525 q 444 503 458 505 q 352 467 393 495 q 321 479 333 455 l 250 626 q 226 630 243 640 q 169 504 181 604 q 174 321 157 404 q 285 120 206 164 q 442 106 363 76 q 458 105 452 111 q 454 92 463 96 q 350 35 399 64 q 260 -26 300 6 q 242 -28 254 -30 q 231 -20 231 -27 m 244 0 l 290 0 l 223 -104 q 288 -94 260 -94 q 371 -119 337 -94 q 408 -190 408 -146 q 348 -279 408 -252 q 240 -298 307 -298 q 138 -287 196 -298 q 86 -273 105 -281 l 100 -243 q 180 -256 138 -256 q 242 -242 219 -256 q 270 -193 270 -226 q 253 -156 270 -169 q 213 -144 237 -144 q 176 -153 193 -144 l 156 -133 l 244 0 z "},"":{"ha":503,"x_min":40,"x_max":467,"o":"m 231 -19 q 213 5 229 -3 q 186 22 197 14 q 76 151 109 75 q 40 313 44 227 q 144 607 32 506 q 237 666 184 643 q 344 703 289 688 q 369 686 361 706 l 467 456 q 462 433 473 438 l 460 433 l 182 326 q 176 313 174 321 q 287 120 209 162 q 442 107 365 77 q 459 105 456 113 q 454 93 463 97 q 350 36 399 65 q 260 -25 300 7 q 242 -28 254 -29 q 231 -19 231 -26 m 168 364 q 172 356 168 359 q 182 355 176 353 l 327 410 q 333 424 337 414 l 250 627 q 226 631 244 642 q 172 526 186 608 q 168 364 158 444 m 290 838 q 238 922 238 888 q 302 970 238 970 q 351 953 330 970 q 390 874 368 938 l 444 713 l 419 713 l 290 838 z "},"":{"ha":503,"x_min":40,"x_max":467,"o":"m 231 -19 q 213 5 229 -3 q 186 22 197 14 q 76 151 109 75 q 40 313 44 227 q 144 607 32 506 q 237 666 184 643 q 344 703 289 688 q 369 686 361 706 l 467 456 q 462 433 473 438 l 460 433 l 182 326 q 176 313 174 321 q 287 120 209 162 q 442 107 365 77 q 459 105 456 113 q 454 93 463 97 q 350 36 399 65 q 260 -25 300 7 q 242 -28 254 -29 q 231 -19 231 -26 m 168 364 q 172 356 168 359 q 182 355 176 353 l 327 410 q 333 424 337 414 l 250 627 q 226 631 244 642 q 172 526 186 608 q 168 364 158 444 m 136 714 l 111 714 l 165 876 q 205 954 187 939 q 253 972 225 972 q 317 923 317 972 q 266 839 317 889 l 136 714 z "},"":{"ha":503,"x_min":40,"x_max":467,"o":"m 231 -19 q 213 5 229 -3 q 186 22 197 14 q 76 151 109 75 q 40 313 44 227 q 144 607 32 506 q 237 666 184 643 q 344 703 289 688 q 369 686 361 706 l 467 456 q 462 433 473 438 l 460 433 l 182 326 q 176 313 174 321 q 287 120 209 162 q 442 107 365 77 q 459 105 456 113 q 454 93 463 97 q 350 36 399 65 q 260 -25 300 7 q 242 -28 254 -29 q 231 -19 231 -26 m 168 364 q 172 356 168 359 q 182 355 176 353 l 327 410 q 333 424 337 414 l 250 627 q 226 631 244 642 q 172 526 186 608 q 168 364 158 444 m 416 764 l 416 747 q 413 741 416 742 q 406 742 409 739 l 256 867 q 248 867 252 872 l 99 742 q 92 741 95 739 q 87 747 87 742 l 87 764 q 89 768 87 768 l 246 978 q 252 981 249 981 q 258 978 255 981 l 415 768 q 416 764 416 767 z "},"":{"ha":503,"x_min":40,"x_max":475,"o":"m 185 968 q 254 895 260 968 q 208 822 250 859 q 142 785 166 785 q 104 824 117 785 q 94 895 92 863 q 124 947 96 926 q 185 968 153 968 m 406 967 q 475 895 481 967 q 429 821 471 858 q 363 785 387 784 q 326 823 338 785 q 315 895 313 862 q 346 946 317 926 q 406 967 374 967 m 231 -19 q 213 5 229 -3 q 186 22 197 14 q 76 151 109 75 q 40 313 44 227 q 144 607 32 506 q 237 666 184 643 q 344 703 289 688 q 369 686 361 706 l 467 456 q 462 433 473 438 l 460 433 l 182 326 q 176 313 174 321 q 287 120 209 162 q 442 107 365 77 q 459 105 456 113 q 454 93 463 97 q 350 36 399 65 q 260 -25 300 7 q 242 -28 254 -29 q 231 -19 231 -26 m 168 364 q 172 356 168 359 q 182 355 176 353 l 327 410 q 333 424 337 414 l 250 627 q 226 631 244 642 q 172 526 186 608 q 168 364 158 444 z "},"":{"ha":379,"x_min":14,"x_max":341,"o":"m 112 159 l 107 531 q 103 552 107 544 q 75 565 87 578 l 48 537 q 27 534 37 525 q 31 561 18 544 q 84 635 60 598 q 133 709 108 673 q 158 709 144 722 q 214 648 186 674 q 291 593 241 622 q 303 580 305 587 q 294 572 302 572 q 263 548 277 565 q 250 493 250 532 l 250 206 q 275 121 250 137 q 324 136 305 104 q 341 142 331 149 q 340 119 351 135 q 302 55 320 87 q 267 -9 285 22 q 235 -18 254 -28 q 143 54 174 12 q 112 159 112 96 m 65 890 q 14 974 14 940 q 78 1023 14 1023 q 126 1005 106 1023 q 165 926 144 990 l 220 765 l 195 765 l 65 890 z "},"":{"ha":379,"x_min":27,"x_max":341,"o":"m 112 159 l 107 531 q 103 552 107 544 q 75 565 87 578 l 48 537 q 27 534 37 525 q 31 561 18 544 q 84 635 60 598 q 133 709 108 673 q 158 709 144 722 q 214 648 186 674 q 291 593 241 622 q 303 580 305 587 q 294 572 302 572 q 263 548 277 565 q 250 493 250 532 l 250 206 q 275 121 250 137 q 324 136 305 104 q 341 142 331 149 q 340 119 351 135 q 302 55 320 87 q 267 -9 285 22 q 235 -18 254 -28 q 143 54 174 12 q 112 159 112 96 m 136 773 l 111 773 l 165 935 q 204 1013 186 998 q 252 1031 224 1031 q 317 982 317 1031 q 265 898 317 948 l 136 773 z "},"":{"ha":379,"x_min":25,"x_max":354,"o":"m 112 159 l 107 531 q 103 552 107 544 q 75 565 87 578 l 48 537 q 27 534 37 525 q 31 561 18 544 q 84 635 60 598 q 133 709 108 673 q 158 709 144 722 q 214 648 186 674 q 291 593 241 622 q 303 580 305 587 q 294 572 302 572 q 263 548 277 565 q 250 493 250 532 l 250 206 q 275 121 250 137 q 324 136 305 104 q 341 142 331 149 q 340 119 351 135 q 302 55 320 87 q 267 -9 285 22 q 235 -18 254 -28 q 143 54 174 12 q 112 159 112 96 m 354 764 l 354 747 q 351 741 354 742 q 343 742 347 739 l 194 867 q 185 867 189 872 l 37 742 q 29 741 33 739 q 25 747 25 742 l 25 764 q 26 768 25 768 l 184 978 q 190 981 186 981 q 195 978 193 981 l 353 768 q 354 764 354 767 z "},"":{"ha":379,"x_min":9,"x_max":356,"o":"m 112 159 l 107 531 q 103 552 107 544 q 75 565 87 578 l 48 537 q 27 534 37 525 q 31 561 18 544 q 84 635 60 598 q 133 709 108 673 q 158 709 144 722 q 214 648 186 674 q 291 593 241 622 q 303 580 305 587 q 294 572 302 572 q 263 548 277 565 q 250 493 250 532 l 250 206 q 275 121 250 137 q 324 136 305 104 q 341 142 331 149 q 340 119 351 135 q 302 55 320 87 q 267 -9 285 22 q 235 -18 254 -28 q 143 54 174 12 q 112 159 112 96 m 100 958 q 168 886 175 958 q 122 812 164 849 q 56 776 81 775 q 19 814 32 776 q 9 886 6 853 q 39 938 11 917 q 100 958 67 958 m 288 954 q 356 882 363 954 q 310 808 352 845 q 244 772 269 771 q 207 810 220 772 q 197 882 194 849 q 227 933 199 913 q 288 954 255 954 z "},"":{"ha":631,"x_min":34,"x_max":607,"o":"m 69 664 l 114 679 q 69 726 87 700 q 34 816 39 771 l 34 819 q 164 964 51 949 q 183 957 182 966 q 175 945 185 947 q 123 882 121 930 q 158 825 123 851 q 238 790 192 799 q 239 789 239 790 q 328 751 286 772 l 450 793 q 458 789 455 793 q 458 781 460 785 l 439 740 q 431 734 435 734 l 389 719 q 487 651 441 688 q 607 403 593 566 l 607 401 q 548 197 593 279 q 442 73 503 116 l 441 72 q 374 28 413 47 q 306 -11 336 9 q 281 -11 287 -24 q 72 127 243 79 q 61 137 62 129 q 68 149 60 145 q 111 239 111 165 l 110 521 q 132 543 110 545 q 267 589 199 534 q 271 600 271 592 q 264 608 270 605 q 213 629 239 618 q 173 646 193 637 l 50 605 q 42 608 43 605 q 42 618 39 612 l 60 658 q 69 664 63 663 m 307 589 q 296 587 301 591 l 264 562 q 250 538 250 552 l 253 203 q 261 189 253 193 l 408 102 q 440 111 425 92 q 487 339 501 197 q 370 555 473 482 q 307 589 351 568 z "},"":{"ha":700,"x_min":42,"x_max":659,"o":"m 271 245 q 311 119 270 136 q 316 110 316 115 q 311 101 316 104 q 212 -22 250 55 q 202 -27 208 -27 q 192 -22 196 -27 q 89 100 154 55 q 85 109 85 103 q 90 119 85 115 q 134 245 134 136 l 134 470 q 108 555 134 539 q 59 541 78 574 q 42 534 52 526 q 43 557 33 541 q 80 621 62 589 q 117 686 98 654 q 148 694 128 706 l 149 694 q 268 571 248 644 q 275 562 269 564 q 286 565 280 561 q 362 631 323 596 q 416 694 401 665 q 440 694 423 712 q 510 626 481 651 q 608 589 538 601 q 620 578 620 586 q 612 568 621 570 q 581 544 594 561 q 567 489 567 528 l 567 202 q 593 117 567 133 q 641 132 623 99 q 658 138 648 145 q 658 115 668 131 q 620 51 637 83 q 583 -14 602 18 q 553 -22 571 -33 q 429 155 429 37 l 430 502 q 420 528 430 522 l 419 528 l 419 530 l 361 577 q 346 578 354 583 l 275 523 q 271 515 271 519 l 271 245 m 519 935 l 547 935 q 515 859 536 888 q 419 809 478 809 q 286 840 382 809 q 224 852 248 852 q 178 812 189 852 l 153 812 q 179 885 163 860 q 276 937 215 937 q 349 925 306 937 q 408 907 366 920 q 470 894 449 894 q 505 908 493 894 q 519 935 512 916 z "},"":{"ha":574,"x_min":-1,"x_max":539,"o":"m 262 -12 q 237 -12 252 -29 q 11 127 163 81 q -1 138 -1 131 q 7 149 -1 146 q 50 239 50 164 l 48 585 q 47 597 48 593 q 48 605 45 602 q 57 610 50 609 q 378 708 237 625 q 389 710 384 711 q 395 701 394 709 q 467 557 406 627 q 522 446 500 516 q 539 328 544 375 q 503 230 532 273 q 437 149 474 186 q 342 76 393 106 q 262 -12 291 46 m 189 594 l 191 203 q 199 189 191 193 l 319 115 q 352 121 337 103 q 410 288 416 191 q 387 395 409 348 q 332 479 365 443 q 252 612 279 533 q 245 618 250 616 q 237 618 241 621 q 196 606 216 611 q 189 594 189 603 m 111 840 q 60 924 60 890 q 124 972 60 972 q 172 955 152 972 q 212 876 190 940 l 266 715 l 241 715 l 111 840 z "},"":{"ha":574,"x_min":-1,"x_max":539,"o":"m 262 -12 q 237 -12 252 -29 q 11 127 163 81 q -1 138 -1 131 q 7 149 -1 146 q 50 239 50 164 l 48 585 q 47 597 48 593 q 48 605 45 602 q 57 610 50 609 q 378 708 237 625 q 389 710 384 711 q 395 701 394 709 q 467 557 406 627 q 522 446 500 516 q 539 328 544 375 q 503 230 532 273 q 437 149 474 186 q 342 76 393 106 q 262 -12 291 46 m 189 594 l 191 203 q 199 189 191 193 l 319 115 q 352 121 337 103 q 410 288 416 191 q 387 395 409 348 q 332 479 365 443 q 252 612 279 533 q 245 618 250 616 q 237 618 241 621 q 196 606 216 611 q 189 594 189 603 m 172 714 l 147 714 l 201 876 q 241 954 223 939 q 289 972 261 972 q 353 923 353 972 q 302 839 353 889 l 172 714 z "},"":{"ha":574,"x_min":-1,"x_max":539,"o":"m 262 -12 q 237 -12 252 -29 q 11 127 163 81 q -1 138 -1 131 q 7 149 -1 146 q 50 239 50 164 l 48 585 q 47 597 48 593 q 48 605 45 602 q 57 610 50 609 q 378 708 237 625 q 389 710 384 711 q 395 701 394 709 q 467 557 406 627 q 522 446 500 516 q 539 328 544 375 q 503 230 532 273 q 437 149 474 186 q 342 76 393 106 q 262 -12 291 46 m 189 594 l 191 203 q 199 189 191 193 l 319 115 q 352 121 337 103 q 410 288 416 191 q 387 395 409 348 q 332 479 365 443 q 252 612 279 533 q 245 618 250 616 q 237 618 241 621 q 196 606 216 611 q 189 594 189 603 m 418 764 l 418 747 q 414 741 418 742 q 407 742 410 739 l 258 867 q 249 867 253 872 l 100 742 q 93 741 96 739 q 89 747 89 742 l 89 764 q 90 768 89 768 l 248 978 q 254 981 250 981 q 259 978 256 981 l 416 768 q 418 764 418 767 z "},"":{"ha":574,"x_min":-1,"x_max":539,"o":"m 262 -12 q 237 -12 252 -29 q 11 127 163 81 q -1 138 -1 131 q 7 149 -1 146 q 50 239 50 164 l 48 585 q 47 597 48 593 q 48 605 45 602 q 57 610 50 609 q 378 708 237 625 q 389 710 384 711 q 395 701 394 709 q 467 557 406 627 q 522 446 500 516 q 539 328 544 375 q 503 230 532 273 q 437 149 474 186 q 342 76 393 106 q 262 -12 291 46 m 189 594 l 191 203 q 199 189 191 193 l 319 115 q 352 121 337 103 q 410 288 416 191 q 387 395 409 348 q 332 479 365 443 q 252 612 279 533 q 245 618 250 616 q 237 618 241 621 q 196 606 216 611 q 189 594 189 603 m 457 935 l 485 935 q 453 859 474 888 q 357 809 416 809 q 224 840 321 809 q 163 852 186 852 q 117 812 127 852 l 91 812 q 117 885 101 860 q 214 937 153 937 q 287 925 244 937 q 346 907 304 920 q 408 894 387 894 q 444 908 431 894 q 457 935 450 916 z "},"":{"ha":574,"x_min":-1,"x_max":539,"o":"m 151 984 q 219 911 226 984 q 173 838 215 875 q 107 802 132 801 q 70 840 83 802 q 60 911 57 879 q 90 963 62 943 q 151 984 118 984 m 401 984 q 470 911 477 984 q 424 838 466 875 q 358 802 382 801 q 321 840 334 802 q 311 911 308 879 q 341 963 313 943 q 401 984 369 984 m 262 11 q 237 11 252 -6 q 11 151 163 104 q -1 161 -1 154 q 7 172 -1 169 q 50 262 50 187 l 48 608 q 47 620 48 616 q 48 628 45 625 q 57 633 50 632 q 378 731 237 648 q 389 733 384 734 q 395 724 394 732 q 467 580 406 650 q 522 469 500 539 q 539 351 544 398 q 503 253 532 296 q 437 172 474 209 q 342 99 393 129 q 262 11 291 69 m 189 617 l 191 227 q 199 212 191 216 l 319 138 q 352 144 337 126 q 410 311 416 214 q 387 418 409 371 q 332 503 365 466 q 252 635 279 556 q 245 641 250 639 q 237 642 241 644 q 196 629 216 634 q 189 617 189 626 z "},"":{"ha":574,"x_min":-1,"x_max":539,"o":"m 484 724 l 507 711 q 510 695 515 704 l 445 584 q 467 557 455 570 q 522 446 500 516 q 539 328 544 375 q 503 230 532 273 q 437 149 474 186 q 342 76 393 106 q 262 -12 291 46 q 237 -12 252 -29 q 144 68 200 34 l 84 -35 q 69 -40 79 -45 l 46 -26 q 42 -11 37 -22 l 102 92 q 11 127 60 112 q -1 138 -1 131 q 7 149 -1 146 q 50 239 50 164 l 48 585 q 47 597 48 593 q 48 605 45 602 q 57 610 50 609 q 378 708 237 625 q 389 710 384 711 q 395 701 394 709 q 416 631 400 665 l 468 720 q 484 724 472 729 m 319 115 q 352 121 337 103 q 410 288 416 191 q 387 395 409 348 q 361 441 376 419 l 211 182 l 319 115 m 189 594 l 191 244 l 330 482 q 252 612 279 535 q 245 618 250 616 q 237 618 241 621 q 196 606 216 611 q 189 594 189 603 z "},"":{"ha":700,"x_min":41,"x_max":658,"o":"m 429 168 l 429 450 q 388 576 429 564 q 383 585 383 580 q 388 594 383 590 q 488 716 448 637 q 497 722 490 722 q 507 716 504 722 q 610 595 543 638 q 615 585 615 591 q 610 576 615 579 q 566 450 565 564 l 566 212 q 592 126 566 142 q 640 141 621 107 q 657 147 648 154 q 657 123 667 140 q 619 60 637 92 q 583 -4 601 27 q 551 -12 571 -24 q 432 111 450 37 q 424 118 431 116 q 414 116 417 120 q 337 51 376 85 q 284 -12 298 16 q 259 -12 273 -28 q 186 55 222 32 q 92 92 151 78 q 79 104 79 97 q 88 114 80 111 q 119 137 105 120 q 133 192 133 153 l 133 479 q 107 564 133 548 q 58 549 77 582 q 41 543 51 536 q 42 567 32 551 q 80 630 62 597 q 117 695 98 663 q 147 703 128 715 l 148 703 q 271 526 271 638 l 269 179 q 279 153 269 159 l 338 104 q 353 103 345 98 q 425 159 408 146 q 429 168 429 161 m 270 831 q 218 916 218 882 q 283 964 218 964 q 331 947 311 964 q 370 868 349 932 l 425 707 l 399 707 l 270 831 z "},"":{"ha":700,"x_min":41,"x_max":658,"o":"m 429 168 l 429 450 q 388 576 429 564 q 383 585 383 580 q 388 594 383 590 q 488 716 448 637 q 497 722 490 722 q 507 716 504 722 q 610 595 543 638 q 615 585 615 591 q 610 576 615 579 q 566 450 565 564 l 566 212 q 592 126 566 142 q 640 141 621 107 q 657 147 648 154 q 657 123 667 140 q 619 60 637 92 q 583 -4 601 27 q 551 -12 571 -24 q 432 111 450 37 q 424 118 431 116 q 414 116 417 120 q 337 51 376 85 q 284 -12 298 16 q 259 -12 273 -28 q 186 55 222 32 q 92 92 151 78 q 79 104 79 97 q 88 114 80 111 q 119 137 105 120 q 133 192 133 153 l 133 479 q 107 564 133 548 q 58 549 77 582 q 41 543 51 536 q 42 567 32 551 q 80 630 62 597 q 117 695 98 663 q 147 703 128 715 l 148 703 q 271 526 271 638 l 269 179 q 279 153 269 159 l 338 104 q 353 103 345 98 q 425 159 408 146 q 429 168 429 161 m 235 714 l 210 714 l 264 876 q 303 954 286 939 q 351 972 323 972 q 416 923 416 972 q 364 839 416 889 l 235 714 z "},"":{"ha":700,"x_min":41,"x_max":658,"o":"m 429 168 l 429 450 q 388 576 429 564 q 383 585 383 580 q 388 594 383 590 q 488 716 448 637 q 497 722 490 722 q 507 716 504 722 q 610 595 543 638 q 615 585 615 591 q 610 576 615 579 q 566 450 565 564 l 566 212 q 592 126 566 142 q 640 141 621 107 q 657 147 648 154 q 657 123 667 140 q 619 60 637 92 q 583 -4 601 27 q 551 -12 571 -24 q 432 111 450 37 q 424 118 431 116 q 414 116 417 120 q 337 51 376 85 q 284 -12 298 16 q 259 -12 273 -28 q 186 55 222 32 q 92 92 151 78 q 79 104 79 97 q 88 114 80 111 q 119 137 105 120 q 133 192 133 153 l 133 479 q 107 564 133 548 q 58 549 77 582 q 41 543 51 536 q 42 567 32 551 q 80 630 62 597 q 117 695 98 663 q 147 703 128 715 l 148 703 q 271 526 271 638 l 269 179 q 279 153 269 159 l 338 104 q 353 103 345 98 q 425 159 408 146 q 429 168 429 161 m 514 764 l 514 747 q 511 741 514 742 q 503 742 507 739 l 354 867 q 345 867 349 872 l 197 742 q 189 741 193 739 q 185 747 185 742 l 185 764 q 186 768 185 768 l 344 978 q 350 981 347 981 q 355 978 353 981 l 513 768 q 514 764 514 767 z "},"":{"ha":700,"x_min":41,"x_max":658,"o":"m 505 984 q 573 911 580 984 q 527 838 569 875 q 461 802 486 801 q 424 840 437 802 q 414 911 411 879 q 444 963 416 943 q 505 984 472 984 m 213 984 q 281 911 288 984 q 236 838 277 875 q 170 802 194 801 q 132 840 145 802 q 122 911 119 879 q 152 963 124 943 q 213 984 180 984 m 429 168 l 429 450 q 388 576 429 564 q 383 585 383 580 q 388 594 383 590 q 488 716 448 637 q 497 722 490 722 q 507 716 504 722 q 610 595 543 638 q 615 585 615 591 q 610 576 615 579 q 566 450 565 564 l 566 212 q 592 126 566 142 q 640 141 621 107 q 657 147 648 154 q 657 123 667 140 q 619 60 637 92 q 583 -4 601 27 q 551 -12 571 -24 q 432 111 450 37 q 424 118 431 116 q 414 116 417 120 q 337 51 376 85 q 284 -12 298 16 q 259 -12 273 -28 q 186 55 222 32 q 92 92 151 78 q 79 104 79 97 q 88 114 80 111 q 119 137 105 120 q 133 192 133 153 l 133 479 q 107 564 133 548 q 58 549 77 582 q 41 543 51 536 q 42 567 32 551 q 80 630 62 597 q 117 695 98 663 q 147 703 128 715 l 148 703 q 271 526 271 638 l 269 179 q 279 153 269 159 l 338 104 q 353 103 345 98 q 425 159 408 146 q 429 168 429 161 z "},"":{"ha":650,"x_min":41,"x_max":620,"o":"m 282 595 q 365 644 323 618 q 441 704 406 670 q 470 695 465 729 q 491 650 472 670 q 526 612 510 631 q 620 359 616 496 q 479 7 624 160 q 215 -227 334 -146 q 192 -229 199 -237 q 195 -212 184 -221 q 389 -27 291 -127 q 477 291 486 73 q 450 452 473 376 q 370 578 428 528 q 276 569 338 604 q 271 559 271 566 q 273 338 272 428 q 275 157 274 248 q 319 112 277 95 l 350 136 q 370 137 361 144 q 369 120 379 130 q 302 53 334 85 q 250 -16 270 20 q 225 -16 243 -32 q 176 36 193 21 q 94 81 159 51 q 81 94 81 86 q 90 104 81 101 q 133 193 134 119 q 135 350 133 271 q 134 504 136 429 q 118 551 133 535 q 90 580 104 568 q 42 692 29 631 q 123 818 54 754 q 145 824 136 831 q 145 807 154 817 q 118 746 115 776 q 167 703 121 717 q 240 662 220 687 q 266 604 260 637 q 272 596 267 599 q 282 595 277 593 m 308 723 l 283 723 l 337 884 q 376 963 359 948 q 425 981 397 981 q 489 932 489 981 q 437 848 489 898 l 308 723 z "},"":{"ha":626,"x_min":5,"x_max":596,"o":"m 102 643 q 81 797 102 741 q 22 891 60 853 q 21 909 13 901 q 43 906 30 918 q 75 865 58 887 q 103 821 92 844 q 113 814 106 814 q 123 819 119 814 q 234 929 163 887 q 388 968 305 970 q 404 955 404 967 q 388 942 405 942 q 280 903 321 942 q 240 762 240 865 l 240 594 l 241 588 q 247 579 241 581 q 257 579 252 577 q 434 699 343 629 q 445 701 439 703 q 452 692 450 698 q 479 630 458 656 q 522 579 500 604 q 596 368 606 485 q 496 149 587 225 q 343 -9 397 65 q 328 -12 336 -18 q 294 8 311 -1 q 260 28 277 18 q 249 28 254 31 q 244 19 244 26 q 223 -125 236 -54 q 197 -267 211 -195 q 185 -276 194 -276 q 174 -267 176 -275 q 148 -91 160 -184 q 128 88 135 2 q 121 98 127 96 q 24 92 52 123 q 11 88 18 85 q 5 100 5 90 q 99 216 5 210 q 109 227 109 216 l 107 262 l 102 643 m 252 189 q 258 178 252 180 q 326 141 293 161 q 393 102 359 121 q 408 106 403 98 q 446 185 429 138 q 465 302 464 232 q 437 432 467 374 q 373 541 408 489 q 249 549 337 591 q 242 538 242 545 q 252 245 243 530 q 252 189 252 226 z "},"":{"ha":650,"x_min":41,"x_max":620,"o":"m 264 983 q 332 911 339 983 q 287 837 328 874 q 220 801 245 800 q 183 840 196 801 q 173 911 170 878 q 203 963 175 942 q 264 983 231 983 m 480 984 q 549 911 555 984 q 503 838 545 875 q 437 802 461 801 q 399 840 412 802 q 389 911 387 879 q 419 963 391 943 q 480 984 448 984 m 282 595 q 365 644 323 618 q 441 704 406 670 q 470 695 465 729 q 491 650 472 670 q 526 612 510 631 q 620 359 616 496 q 479 7 624 160 q 215 -227 334 -146 q 192 -229 199 -237 q 195 -212 184 -221 q 389 -27 291 -127 q 477 291 486 73 q 450 452 473 376 q 370 578 428 528 q 276 569 338 604 q 271 559 271 566 q 273 338 272 428 q 275 157 274 248 q 319 112 277 95 l 350 136 q 370 137 361 144 q 369 120 379 130 q 302 53 334 85 q 250 -16 270 20 q 225 -16 243 -32 q 176 36 193 21 q 94 81 159 51 q 81 94 81 86 q 90 104 81 101 q 133 193 134 119 q 135 350 133 271 q 134 504 136 429 q 118 551 133 535 q 90 580 104 568 q 42 692 29 631 q 123 818 54 754 q 145 824 136 831 q 145 807 154 817 q 118 746 115 776 q 167 703 121 717 q 240 662 220 687 q 266 604 260 637 q 272 596 267 599 q 282 595 277 593 z "},"":{"ha":1537,"x_min":37,"x_max":1516,"o":"m 1130 852 q 1104 835 1117 845 q 1048 749 1048 791 q 1131 623 1046 696 q 1188 571 1166 591 q 1197 568 1193 567 q 1204 572 1201 568 q 1248 625 1221 593 q 1322 665 1286 669 q 1393 633 1358 660 q 1487 606 1454 585 q 1515 608 1505 618 q 1514 580 1526 598 q 1479 534 1497 557 q 1439 491 1462 511 q 1335 498 1392 450 q 1242 541 1274 548 q 1234 534 1236 540 q 1236 523 1232 528 q 1318 377 1312 439 q 1095 164 1325 290 q 1070 165 1078 155 q 1076 188 1063 176 q 1157 288 1155 246 q 1132 353 1159 315 q 1035 454 1104 391 q 896 666 895 582 q 1013 816 896 743 q 1046 835 1017 818 q 1088 862 1075 852 q 1093 874 1094 867 q 976 967 1073 967 q 826 846 879 967 q 798 747 806 802 q 789 631 796 698 q 797 518 790 578 q 957 199 821 311 q 1267 87 1093 87 q 1469 138 1363 87 q 1493 135 1486 146 q 1485 111 1500 124 q 1115 -17 1323 -17 q 812 102 937 -17 q 585 -9 702 9 q 282 64 433 -32 q 159 139 215 106 q 54 141 103 172 q 37 143 44 135 q 41 162 30 152 q 247 276 190 280 q 444 169 304 272 q 683 81 583 67 q 790 125 742 89 q 771 146 781 136 q 625 467 635 311 q 657 739 616 618 q 457 819 559 800 q 238 780 338 841 q 184 672 175 741 q 292 566 193 602 q 486 423 477 498 q 383 256 494 348 q 362 253 370 245 q 363 271 354 260 q 363 335 397 309 q 214 405 330 360 q 46 596 42 470 q 207 804 50 722 q 369 889 305 850 q 466 989 433 928 q 477 995 469 996 q 747 900 624 976 q 965 1008 838 1008 q 1065 977 1027 1008 q 1117 901 1103 945 q 1124 895 1119 895 q 1131 894 1127 893 l 1134 895 q 1244 992 1194 939 q 1296 994 1267 1009 q 1349 966 1324 979 q 1405 936 1371 954 q 1473 934 1439 918 q 1497 936 1489 944 q 1495 916 1505 927 q 1430 855 1460 882 q 1372 802 1400 828 q 1356 797 1365 797 q 1332 806 1347 798 q 1170 863 1215 863 q 1130 852 1150 862 z "},"":{"ha":867,"x_min":-1,"x_max":838,"o":"m 602 -19 q 584 5 600 -3 q 557 22 568 14 q 447 151 479 75 l 444 157 q 437 149 441 153 q 342 76 393 106 q 262 -12 291 46 q 237 -12 252 -29 q 11 127 163 81 q -1 138 -1 131 q 7 149 -1 146 q 50 239 50 164 l 48 585 q 47 597 48 593 q 48 605 45 602 q 57 610 50 609 q 378 708 237 625 q 389 710 384 711 q 395 701 394 709 q 467 557 406 627 q 469 554 467 555 q 515 607 489 583 q 608 666 555 643 q 715 703 660 688 q 740 686 732 706 l 838 456 q 833 433 844 438 l 831 433 l 553 326 q 547 313 545 321 q 658 120 580 162 q 813 107 736 77 q 830 105 827 113 q 825 93 834 97 q 721 36 770 65 q 631 -25 671 7 q 613 -28 625 -29 q 602 -19 602 -26 m 189 594 l 191 203 q 199 189 191 193 l 319 115 q 352 121 337 103 q 410 288 416 191 q 387 395 409 348 q 332 479 365 443 q 252 612 279 533 q 245 618 250 616 q 237 618 241 621 q 196 606 216 611 q 189 594 189 603 m 539 360 q 543 355 541 357 q 553 355 547 353 l 698 410 q 704 424 708 414 l 621 627 q 597 631 615 642 q 543 526 557 608 q 536 388 531 456 q 539 360 538 373 z "},"":{"ha":1053,"x_min":38,"x_max":1002,"o":"m 382 1241 l 382 1258 q 386 1265 382 1263 q 393 1263 390 1266 l 543 1139 q 551 1139 547 1133 l 700 1263 q 707 1265 704 1266 q 711 1258 711 1263 l 711 1241 q 710 1237 711 1238 l 553 1027 q 547 1025 550 1025 q 541 1027 544 1025 l 384 1237 q 382 1241 382 1238 m 937 914 q 969 921 953 933 q 966 890 985 908 q 881 810 915 842 q 817 762 846 779 q 714 744 764 732 q 571 804 663 757 q 396 856 475 852 q 249 794 317 860 q 162 665 182 730 q 144 531 142 600 q 289 259 149 368 q 635 155 429 149 q 884 220 779 157 q 971 406 988 282 q 869 511 957 505 q 675 450 782 517 q 473 371 536 361 q 298 535 410 381 q 297 560 284 553 q 322 549 310 568 q 427 513 363 489 q 568 582 491 537 q 667 635 621 611 q 784 642 713 659 q 917 570 852 625 q 1002 429 981 514 q 999 293 1019 354 q 947 183 979 232 q 784 38 886 92 q 551 -16 682 -16 q 196 114 358 -16 q 38 472 34 243 q 522 987 43 795 q 570 984 545 996 q 847 882 781 880 q 937 914 914 884 z "},"":{"ha":580,"x_min":35,"x_max":545,"o":"m 88 1087 l 88 1104 q 92 1111 88 1109 q 99 1109 96 1112 l 248 985 q 257 985 253 979 l 406 1109 q 413 1111 410 1112 q 417 1104 417 1109 l 417 1087 q 416 1083 417 1084 l 258 873 q 252 871 256 871 q 247 873 250 871 l 90 1083 q 88 1087 88 1084 m 263 840 q 437 829 358 865 q 521 758 491 803 q 545 656 551 712 q 508 572 538 600 q 457 530 477 545 q 420 499 437 515 q 414 441 385 467 q 520 307 506 361 q 500 212 534 253 q 402 103 454 155 q 300 0 351 52 q 269 3 275 -24 q 190 68 260 40 q 40 122 119 96 q 38 142 26 127 q 76 180 56 161 q 115 218 96 199 q 136 268 146 246 q 100 318 126 290 q 36 448 33 387 q 79 554 38 508 q 166 632 118 597 q 258 712 215 668 q 273 709 264 717 q 424 627 363 628 q 503 663 485 627 q 500 741 522 701 q 429 808 478 781 q 267 814 355 844 q 246 822 250 808 q 263 840 243 836 m 155 231 q 159 214 148 220 q 255 170 207 191 q 352 127 303 148 q 420 166 386 113 q 309 342 462 233 q 250 329 285 357 l 155 231 m 248 372 q 263 373 256 366 l 389 496 q 393 509 395 503 q 382 515 391 515 q 297 545 344 519 q 199 603 222 588 q 140 576 176 618 q 139 473 94 522 q 248 372 184 425 z "},"":{"ha":1190,"x_min":31,"x_max":1154,"o":"m 258 481 q 409 529 349 477 q 431 533 420 541 q 431 517 441 526 q 271 446 355 444 q 98 518 165 448 q 31 701 31 587 q 124 905 31 815 q 357 995 217 995 q 527 954 448 995 q 650 838 606 912 q 699 936 660 892 q 801 996 737 979 q 963 970 888 1018 q 1067 831 1039 922 q 1133 710 1105 705 q 1153 700 1149 713 q 1133 678 1157 687 q 990 574 1004 625 q 1057 384 975 523 q 1117 101 1150 221 q 964 -111 1084 -18 q 810 -192 888 -165 q 653 -216 732 -218 q 435 -165 528 -213 q 273 -29 343 -117 q 274 -11 264 -18 q 294 -16 283 -3 q 448 -133 365 -93 q 645 -173 532 -173 q 921 -22 858 -163 q 869 304 983 119 q 829 486 802 413 q 976 622 856 558 q 982 632 982 627 q 976 642 982 637 q 926 685 951 654 q 887 787 901 717 q 846 882 875 842 q 758 916 817 922 q 690 864 710 909 q 682 762 671 819 q 681 602 699 684 q 594 387 650 464 q 475 253 537 309 q 471 243 471 250 q 478 235 472 236 q 547 192 501 224 q 655 151 611 141 q 736 203 699 161 q 764 210 751 219 q 766 184 777 201 q 704 112 730 144 q 661 56 679 80 q 558 3 621 -1 q 433 64 495 7 q 317 89 365 127 q 294 88 302 78 q 300 114 285 98 q 384 195 340 156 q 461 283 429 234 q 531 438 505 349 q 555 602 558 528 q 477 779 551 688 q 281 859 404 869 q 142 808 203 861 q 81 675 81 755 q 127 540 81 596 q 258 481 174 484 m 458 1231 q 527 1158 534 1231 q 481 1085 523 1122 q 415 1048 439 1048 q 378 1087 391 1048 q 368 1158 365 1126 q 398 1210 370 1190 q 458 1231 426 1231 m 750 1231 q 819 1158 825 1231 q 773 1085 814 1122 q 707 1048 731 1048 q 669 1087 682 1048 q 659 1158 656 1126 q 689 1210 661 1190 q 750 1231 718 1231 z "},"":{"ha":925,"x_min":32,"x_max":888,"o":"m 309 1261 l 309 1278 q 313 1285 309 1284 q 320 1284 317 1286 l 469 1159 q 478 1159 474 1154 l 627 1284 q 634 1285 631 1286 q 638 1278 638 1284 l 638 1261 q 637 1257 638 1258 l 479 1048 q 473 1045 477 1045 q 468 1048 471 1045 l 311 1257 q 309 1261 309 1259 m 353 576 q 373 558 375 575 q 345 542 372 542 q 206 598 264 543 q 157 765 149 652 q 262 948 166 878 q 517 1015 359 1017 q 727 942 633 1015 q 823 768 821 869 q 777 626 823 678 q 661 545 730 574 q 654 533 653 541 q 664 524 654 526 q 825 427 764 496 q 888 262 886 357 q 850 78 890 157 q 743 -50 809 -1 q 431 -156 551 -187 q 222 -35 310 -125 q 130 41 163 24 q 56 28 96 58 q 32 29 42 17 q 41 58 22 41 q 229 150 149 159 q 383 56 310 142 q 553 -79 477 -54 q 705 -34 629 -105 q 762 101 762 19 q 709 265 762 184 q 373 418 577 464 q 343 433 347 414 q 369 457 340 453 q 590 539 507 481 q 678 691 672 597 q 614 829 684 779 q 422 877 544 878 q 275 836 326 876 q 217 725 223 796 q 249 617 212 654 q 353 576 286 580 z "},"":{"ha":463,"x_min":38,"x_max":429,"o":"m 65 977 l 65 994 q 68 1001 65 1000 q 76 1000 73 1002 l 225 875 q 234 875 230 869 l 382 1000 q 390 1001 387 1002 q 394 994 394 1000 l 394 977 q 393 973 394 974 l 235 764 q 229 761 233 761 q 224 764 227 761 l 66 973 q 65 977 65 975 m 90 561 q 72 563 76 553 q 79 581 68 572 q 144 641 111 611 q 208 705 177 671 q 231 719 220 721 q 245 706 241 718 q 258 689 248 690 q 283 678 269 688 q 349 520 395 592 q 208 385 302 448 q 203 375 202 381 q 211 366 203 369 q 278 336 248 353 q 290 338 285 334 q 404 405 345 376 q 427 403 422 412 q 419 387 431 393 q 318 330 355 356 q 317 312 304 322 q 398 220 369 273 q 429 54 427 166 q 356 -159 431 -63 q 203 -255 281 -255 q 91 -197 144 -255 q 38 -50 38 -138 q 169 239 38 113 q 167 257 180 252 q 62 290 122 281 q 58 313 32 297 q 190 414 133 357 q 231 520 246 471 q 178 580 216 570 q 90 561 140 590 m 203 -231 q 282 -176 252 -231 q 301 12 313 -122 q 208 228 288 158 q 193 227 200 236 q 97 -51 98 117 q 121 -176 97 -122 q 203 -231 144 -231 z "},"":{"ha":339,"x_min":-3,"x_max":413,"o":"m 76 621 l 7 621 q -3 630 -3 621 q 5 642 -3 640 q 78 687 49 649 q 103 786 107 725 q 128 948 98 882 q 248 984 158 1013 q 338 955 297 967 q 396 968 379 942 q 413 982 404 985 q 412 954 422 980 q 346 850 385 877 q 224 863 307 823 q 131 826 145 899 q 161 731 117 753 q 247 646 232 694 q 254 504 262 597 l 185 -210 q 171 -231 182 -233 q 158 -208 159 -229 q 123 206 141 -1 q 87 610 106 408 q 84 618 86 615 q 76 621 82 621 z "},"":{"ha":339,"x_min":-72,"x_max":403,"o":"m 83 621 l -2 621 q -13 630 -12 621 q -5 642 -13 640 q 68 687 39 649 q 94 786 98 725 q 119 948 89 882 q 238 984 149 1013 q 329 955 288 967 q 387 968 370 942 q 402 980 394 983 q 402 952 411 977 q 336 850 375 877 q 215 863 297 823 q 122 826 136 899 q 151 731 108 753 q 206 693 193 708 q 222 686 214 686 l 339 686 q 350 675 350 686 l 350 633 q 339 622 350 622 l 248 625 q 240 622 243 625 q 237 612 237 618 l 233 60 q 252 -81 231 -24 q 311 -175 273 -137 q 312 -196 323 -188 q 290 -190 301 -203 q 258 -149 275 -171 q 230 -104 241 -127 q 220 -98 227 -98 q 210 -103 214 -98 q 99 -213 170 -171 q -55 -252 28 -254 q -72 -239 -71 -252 q -55 -226 -72 -226 q 53 -187 12 -226 q 93 -46 93 -149 l 92 613 q 83 621 90 621 z "},"":{"ha":581,"x_min":126,"x_max":455,"o":"m 455 764 l 455 747 q 452 741 455 742 q 444 742 448 739 l 295 867 q 286 867 290 872 l 138 742 q 130 741 134 739 q 126 747 126 742 l 126 764 q 127 768 126 768 l 285 978 q 291 981 288 981 q 296 978 294 981 l 454 768 q 455 764 455 767 z "},"":{"ha":581,"x_min":126,"x_max":455,"o":"m 126 956 l 126 973 q 130 980 126 979 q 137 979 134 981 l 286 854 q 295 854 291 848 l 444 979 q 451 980 448 981 q 455 973 455 979 l 455 956 q 454 952 455 953 l 296 743 q 290 740 294 740 q 285 743 288 740 l 127 952 q 126 956 126 954 z "},"":{"ha":640,"x_min":165,"x_max":486,"o":"m 326 1052 q 439 1007 392 1052 q 486 899 486 962 q 439 791 486 836 q 326 746 392 746 q 212 791 259 746 q 165 899 165 836 q 212 1007 165 962 q 326 1052 259 1052 m 326 1006 q 283 974 290 1006 q 277 897 277 942 q 283 820 277 852 q 326 788 290 788 q 368 820 361 788 q 375 897 375 852 q 368 974 375 942 q 326 1006 361 1006 z "},"":{"ha":694,"x_min":135,"x_max":529,"o":"m 501 935 l 529 935 q 497 859 518 888 q 401 809 460 809 q 269 840 365 809 q 207 852 231 852 q 161 812 172 852 l 135 812 q 161 885 145 860 q 258 937 197 937 q 331 925 288 937 q 390 907 349 920 q 452 894 431 894 q 488 908 475 894 q 501 935 494 916 z "},"":{"ha":0,"x_min":-469,"x_max":-263,"o":"m -418 840 q -469 924 -469 890 q -405 972 -469 972 q -357 955 -377 972 q -317 876 -339 940 l -263 715 l -288 715 l -418 840 z "},"":{"ha":0,"x_min":-405,"x_max":-199,"o":"m -380 714 l -405 714 l -351 876 q -311 954 -329 939 q -263 972 -291 972 q -199 923 -199 972 q -250 839 -199 889 l -380 714 z "},"":{"ha":0,"x_min":-455,"x_max":-126,"o":"m -126 764 l -126 747 q -130 741 -126 742 q -137 742 -134 739 l -286 867 q -295 867 -291 872 l -444 742 q -451 741 -448 739 q -455 747 -455 742 l -455 764 q -454 768 -455 768 l -296 978 q -290 981 -294 981 q -285 978 -288 981 l -127 768 q -126 764 -126 767 z "},"":{"ha":0,"x_min":-559,"x_max":-165,"o":"m -193 935 l -165 935 q -197 859 -176 888 q -293 809 -234 809 q -426 840 -330 809 q -488 852 -464 852 q -534 812 -523 852 l -559 812 q -533 885 -549 860 q -436 937 -497 937 q -363 925 -406 937 q -304 907 -346 920 q -242 894 -263 894 q -207 908 -219 894 q -193 935 -200 916 z "},"":{"ha":0,"x_min":-650,"x_max":-62,"o":"m -639 905 l -73 905 q -62 894 -62 905 l -62 817 q -73 805 -62 805 l -639 805 q -650 817 -650 805 l -650 894 q -639 905 -650 905 z "},"":{"ha":0,"x_min":-519,"x_max":-68,"o":"m -429 984 q -360 911 -353 984 q -406 838 -364 875 q -472 802 -448 801 q -509 840 -496 802 q -519 911 -522 879 q -489 963 -517 943 q -429 984 -461 984 m -137 984 q -68 911 -62 984 q -114 838 -73 875 q -180 802 -156 801 q -218 840 -205 802 q -228 911 -231 879 q -198 963 -226 943 q -137 984 -170 984 z "},"":{"ha":0,"x_min":-474,"x_max":-153,"o":"m -314 1052 q -200 1007 -248 1052 q -153 899 -153 962 q -200 791 -153 836 q -314 746 -248 746 q -427 791 -380 746 q -474 899 -474 836 q -427 1007 -474 962 q -314 1052 -380 1052 m -314 1006 q -356 974 -349 1006 q -363 897 -363 942 q -356 820 -363 852 q -314 788 -349 788 q -272 820 -279 788 q -264 897 -264 852 q -272 974 -264 942 q -314 1006 -279 1006 z "},"":{"ha":0,"x_min":-455,"x_max":-126,"o":"m -455 956 l -455 973 q -452 980 -455 979 q -444 979 -448 981 l -295 854 q -286 854 -290 848 l -138 979 q -130 980 -134 981 q -126 973 -126 979 l -126 956 q -127 952 -126 953 l -285 743 q -291 740 -288 740 q -296 743 -294 740 l -454 952 q -455 956 -455 954 z "},"":{"ha":0,"x_min":-476,"x_max":-154,"o":"m -318 0 l -272 0 l -339 -104 q -275 -94 -302 -94 q -191 -119 -225 -94 q -154 -190 -154 -146 q -214 -279 -154 -252 q -322 -298 -256 -298 q -425 -287 -366 -298 q -476 -273 -457 -281 l -463 -243 q -382 -256 -425 -256 q -320 -242 -343 -256 q -292 -193 -292 -226 q -309 -156 -292 -169 q -349 -144 -326 -144 q -386 -153 -369 -144 l -406 -133 l -318 0 z "},"":{"ha":881,"x_min":-3,"x_max":855,"o":"m 224 55 q 132 117 155 88 q 105 232 108 149 q 98 711 105 241 q 60 777 98 762 q 62 809 29 791 q 225 872 184 814 q 321 973 265 930 q 473 1015 377 1016 q 687 945 597 1020 q 779 768 777 869 q 733 626 779 678 q 617 545 686 574 q 610 533 609 541 q 620 524 610 526 q 785 368 718 471 q 855 128 851 264 q 707 -207 859 -69 q 395 -313 516 -344 q 187 -191 275 -281 q 94 -115 128 -132 q 21 -128 60 -98 q -3 -127 7 -140 q 5 -98 -14 -115 q 194 -6 113 2 q 348 -100 275 -15 q 517 -236 441 -210 q 669 -191 593 -262 q 742 -11 745 -113 q 673 219 738 92 q 373 429 533 464 q 343 445 347 425 q 369 469 340 465 q 546 539 463 481 q 634 691 628 597 q 580 855 640 779 q 431 941 520 930 q 305 905 342 951 q 270 739 268 860 l 268 269 q 372 197 269 160 q 393 194 385 203 q 390 175 400 184 l 260 58 q 242 51 252 52 q 224 55 232 50 z "},"":{"ha":1,"x_min":0,"x_max":0,"o":""},"":{"ha":1,"x_min":0,"x_max":0,"o":"z "},"":{"ha":538,"x_min":32,"x_max":510,"o":"m 43 465 l 499 465 q 510 453 510 465 l 510 376 q 499 364 510 364 l 43 364 q 32 376 32 364 l 32 453 q 43 465 32 465 z "},"":{"ha":719,"x_min":32,"x_max":688,"o":"m 43 465 l 677 465 q 688 453 688 465 l 688 376 q 677 364 688 364 l 43 364 q 32 376 32 364 l 32 453 q 43 465 32 465 z "},"":{"ha":275,"x_min":30,"x_max":233,"o":"m 233 714 q 144 625 180 680 q 124 625 133 608 q 35 714 92 685 q 30 724 30 717 q 70 857 30 781 q 147 983 110 934 q 161 987 153 990 q 167 974 171 981 q 133 844 125 910 q 233 733 141 778 q 233 714 251 726 z "},"":{"ha":304,"x_min":51,"x_max":254,"o":"m 51 884 q 140 974 104 918 q 159 974 151 990 q 248 884 191 913 q 254 875 254 882 q 214 741 254 818 q 136 615 174 665 q 123 612 130 608 q 117 625 113 618 q 150 754 158 688 q 51 865 142 821 q 51 884 33 872 z "},"":{"ha":267,"x_min":31,"x_max":234,"o":"m 31 108 q 120 197 84 142 q 140 197 131 214 q 229 108 172 137 q 234 98 234 105 q 194 -35 234 41 q 117 -161 154 -112 q 103 -165 111 -168 q 97 -152 93 -159 q 131 -22 138 -88 q 31 89 123 44 q 31 108 13 96 z "},"":{"ha":545,"x_min":39,"x_max":501,"o":"m 241 714 q 153 625 189 680 q 133 625 142 608 q 44 714 101 685 q 39 724 39 717 q 79 857 39 781 q 156 983 119 934 q 170 987 162 990 q 176 974 180 981 q 142 844 134 910 q 241 733 150 778 q 241 714 260 726 m 501 714 q 412 625 448 680 q 393 625 401 608 q 304 714 361 685 q 298 724 298 717 q 338 857 298 781 q 416 983 378 934 q 429 987 422 990 q 435 974 439 981 q 402 844 394 910 q 501 733 410 778 q 501 714 519 726 z "},"":{"ha":567,"x_min":51,"x_max":513,"o":"m 311 884 q 399 974 363 918 q 419 974 410 990 q 508 884 451 913 q 513 875 513 882 q 473 741 513 818 q 396 615 433 665 q 382 612 390 608 q 376 625 372 618 q 410 754 418 688 q 311 865 402 821 q 311 884 292 872 m 51 884 q 140 974 104 918 q 159 974 151 990 q 248 884 191 913 q 254 875 254 882 q 214 741 254 818 q 136 615 174 665 q 123 612 130 608 q 117 625 113 618 q 150 754 158 688 q 51 865 142 821 q 51 884 33 872 z "},"":{"ha":511,"x_min":28,"x_max":488,"o":"m 286 108 q 374 197 338 142 q 394 197 385 214 q 483 108 426 137 q 488 98 488 105 q 448 -35 488 41 q 371 -161 408 -112 q 357 -165 365 -168 q 351 -152 347 -159 q 385 -22 393 -88 q 286 89 377 44 q 286 108 267 96 m 28 108 q 117 197 81 142 q 137 197 128 214 q 226 108 169 137 q 231 98 231 105 q 191 -35 231 41 q 114 -161 151 -112 q 100 -165 108 -168 q 94 -152 90 -159 q 128 -22 136 -88 q 28 89 120 44 q 28 108 10 96 z "},"":{"ha":618,"x_min":37,"x_max":583,"o":"m 401 900 q 401 882 415 890 q 345 821 365 864 q 322 727 326 777 q 325 720 322 722 q 333 716 328 716 q 427 739 384 720 q 486 795 469 759 q 503 795 494 814 q 583 715 531 749 q 583 697 596 705 q 498 612 528 668 q 480 612 488 596 q 421 661 463 644 q 334 683 380 679 q 325 680 330 684 q 323 673 321 676 q 347 582 327 623 q 401 526 366 542 q 401 508 415 517 q 321 -212 355 412 q 303 -212 311 -226 q 220 514 273 417 q 220 532 203 523 q 266 587 249 548 q 288 671 283 625 q 285 679 289 675 q 277 682 281 682 q 195 659 233 677 q 139 612 157 642 q 122 612 130 599 q 37 697 92 667 q 37 715 24 705 q 116 795 88 750 q 133 795 125 810 q 191 742 151 761 q 278 717 231 722 q 286 720 283 717 q 289 728 290 724 q 268 817 285 776 q 220 876 251 857 q 220 894 203 885 q 303 980 273 924 q 321 980 311 994 q 401 900 354 928 z "},"":{"ha":618,"x_min":37,"x_max":583,"o":"m 401 900 q 401 882 415 890 q 345 821 365 864 q 322 727 326 777 q 325 720 322 722 q 333 716 328 716 q 427 739 384 720 q 486 795 469 759 q 503 795 494 814 q 583 715 531 749 q 583 697 596 705 q 498 612 528 668 q 480 612 488 596 q 421 661 463 644 q 334 683 380 679 q 325 680 330 684 q 323 673 321 676 q 347 582 327 623 q 401 526 366 542 q 401 508 415 517 q 335 368 331 470 q 400 221 338 267 q 400 203 416 212 q 354 149 371 187 q 332 64 336 110 q 335 56 331 60 q 342 54 338 53 q 425 76 387 58 q 481 123 463 94 q 498 123 490 136 q 583 38 528 68 q 583 20 596 30 q 504 -60 532 -15 q 487 -60 494 -75 q 429 -6 469 -26 q 342 18 389 13 q 334 15 337 18 q 331 7 330 12 q 352 -81 335 -41 q 400 -141 369 -122 q 400 -159 416 -150 q 317 -245 347 -189 q 299 -245 309 -258 q 219 -165 266 -193 q 219 -147 205 -155 q 275 -85 255 -129 q 298 8 294 -42 q 295 16 298 14 q 287 19 292 19 q 193 -4 236 16 q 134 -60 151 -24 q 117 -60 126 -79 q 37 20 89 -14 q 37 38 24 30 q 122 123 92 67 q 140 123 132 139 q 198 74 157 92 q 286 52 239 56 q 295 56 290 52 q 297 62 298 59 q 273 153 293 113 q 219 210 254 193 q 219 227 205 218 q 282 366 278 266 q 220 514 286 467 q 220 532 203 523 q 266 587 249 548 q 288 671 283 625 q 285 679 289 675 q 277 682 281 682 q 195 659 233 677 q 139 612 157 642 q 122 612 130 599 q 37 697 92 667 q 37 715 24 705 q 116 795 88 750 q 133 795 125 810 q 191 742 151 761 q 278 717 231 722 q 286 720 283 717 q 289 728 290 724 q 268 817 285 776 q 220 876 251 857 q 220 894 203 885 q 303 980 273 924 q 321 980 311 994 q 401 900 354 928 z "},"":{"ha":418,"x_min":54,"x_max":350,"o":"m 54 465 q 187 599 133 515 q 216 599 203 623 q 350 465 264 508 q 350 436 378 450 q 216 302 260 392 q 187 302 201 273 q 54 436 143 384 q 54 465 29 448 z "},"":{"ha":836,"x_min":36,"x_max":791,"o":"m 36 108 q 125 197 89 142 q 144 197 136 214 q 233 108 176 137 q 233 89 252 98 q 144 0 174 60 q 125 0 134 -20 q 36 89 96 54 q 36 108 20 97 m 315 108 q 404 197 368 142 q 423 197 414 214 q 512 108 455 137 q 512 89 531 98 q 423 0 452 60 q 404 0 413 -20 q 315 89 374 54 q 315 108 298 97 m 593 108 q 682 197 646 142 q 702 197 693 214 q 791 108 734 137 q 791 89 810 98 q 702 0 731 60 q 682 0 692 -20 q 593 89 653 54 q 593 108 577 97 z "},"":{"ha":1426,"x_min":37,"x_max":1388,"o":"m 1192 521 q 1054 447 1111 521 q 997 269 997 373 q 1054 92 997 165 q 1192 18 1111 18 q 1331 92 1274 18 q 1388 269 1388 165 q 1331 447 1388 373 q 1192 521 1274 521 m 1192 478 q 1244 417 1236 478 q 1253 269 1253 356 q 1244 121 1253 182 q 1192 60 1236 60 q 1141 121 1149 60 q 1133 269 1133 182 q 1141 417 1133 356 q 1192 478 1149 478 m 912 977 l 932 960 q 933 944 940 951 l 134 21 q 119 20 127 12 l 98 37 q 97 53 90 43 l 897 976 q 912 977 902 984 m 233 972 q 371 899 313 972 q 428 722 428 825 q 371 544 428 617 q 233 470 313 470 q 94 544 151 470 q 37 722 37 617 q 94 899 37 825 q 233 972 151 972 m 233 930 q 181 869 189 930 q 173 722 173 808 q 181 574 173 635 q 233 513 189 513 q 284 574 275 513 q 293 722 293 635 q 284 869 293 808 q 233 930 275 930 m 755 521 q 617 447 674 521 q 560 269 560 373 q 617 92 560 165 q 755 18 674 18 q 894 92 837 18 q 951 269 951 165 q 894 447 951 373 q 755 521 837 521 m 755 478 q 807 417 799 478 q 816 269 816 356 q 807 121 816 182 q 755 60 799 60 q 704 121 712 60 q 696 269 696 182 q 704 417 696 356 q 755 478 712 478 z "},"":{"ha":401,"x_min":5,"x_max":379,"o":"m 342 648 l 369 648 q 379 642 377 648 q 378 631 382 636 l 182 399 q 182 385 175 391 l 378 153 q 379 142 382 147 q 369 136 377 136 l 342 136 q 336 138 337 136 l 10 383 q 5 392 5 387 q 10 401 5 396 l 336 646 q 342 648 338 648 z "},"":{"ha":401,"x_min":8,"x_max":382,"o":"m 45 136 l 18 136 q 8 142 10 136 q 9 153 5 148 l 205 385 q 205 399 212 393 l 9 631 q 8 642 5 637 q 18 648 10 648 l 45 648 q 52 646 50 648 l 377 401 q 382 392 382 397 q 377 383 382 388 l 52 138 q 45 136 50 136 z "},"":{"ha":817,"x_min":28,"x_max":778,"o":"m 500 956 q 646 926 575 956 q 687 918 662 918 q 726 955 711 918 q 736 962 730 962 q 755 954 747 960 q 758 939 762 948 q 730 838 748 915 q 715 692 713 762 q 706 680 715 680 q 687 679 698 680 q 667 679 675 678 q 659 690 659 680 q 632 847 661 773 q 500 922 602 922 q 346 824 409 922 q 264 587 283 726 q 267 578 263 582 q 276 574 271 574 l 484 574 q 493 570 490 574 q 495 560 497 565 l 490 542 q 479 534 487 534 l 270 534 q 259 524 259 534 q 258 482 258 496 q 258 434 258 450 q 270 422 258 422 l 437 422 q 447 418 443 422 q 448 408 450 413 l 444 391 q 433 382 439 382 l 273 382 q 264 379 267 382 q 261 371 261 375 q 321 139 271 235 q 500 44 371 44 q 596 70 556 44 q 624 160 636 96 q 621 184 621 171 q 644 254 621 225 q 700 283 667 283 q 755 254 732 283 q 778 184 778 225 q 669 46 778 84 q 500 8 561 8 q 241 112 353 8 q 98 374 130 216 q 87 382 95 382 l 38 382 q 30 387 32 382 q 28 397 26 392 l 33 414 q 44 422 35 422 l 78 422 q 86 427 82 422 q 90 435 90 430 q 87 482 87 455 q 89 522 87 503 q 85 531 89 528 q 77 534 82 534 l 53 534 q 44 539 47 534 q 43 549 41 543 l 47 566 q 58 574 50 574 l 85 574 q 96 583 95 574 q 239 850 127 743 q 500 956 351 956 z "},"":{"ha":568,"x_min":15,"x_max":547,"o":"m 418 447 l 427 493 q 430 538 429 515 q 432 585 432 561 l 432 614 q 429 664 432 639 q 417 711 425 690 q 394 744 408 732 q 359 757 380 757 q 335 744 342 754 q 329 718 329 734 l 329 713 q 354 595 332 654 q 405 473 376 536 l 418 447 m 501 458 q 483 401 490 425 q 468 357 476 376 q 547 92 547 203 q 524 -16 547 31 q 458 -96 500 -63 q 359 -149 416 -129 q 237 -175 302 -170 q 220 -177 229 -175 q 204 -178 212 -178 q 153 -170 180 -178 q 103 -148 126 -161 q 65 -115 81 -134 q 50 -75 50 -96 q 59 -46 50 -61 q 80 -17 68 -31 q 106 6 93 -3 q 127 15 119 15 q 144 -19 144 15 l 144 -26 q 167 -87 144 -61 q 231 -113 191 -113 q 260 -111 242 -113 q 296 -104 278 -109 q 404 -48 367 -85 q 441 40 441 -12 l 441 49 q 401 241 435 154 q 332 162 370 196 q 257 107 294 129 q 183 74 220 85 q 118 62 147 62 q 60 78 86 62 q 35 137 35 94 q 42 191 35 161 q 65 264 50 222 q 104 356 89 315 q 126 424 119 396 q 125 425 126 425 q 102 409 122 425 q 58 366 83 393 l 40 390 q 26 410 33 398 q 15 425 18 422 q 203 525 144 525 q 249 473 249 525 q 207 330 249 428 q 172 223 183 261 q 161 170 161 184 q 166 156 161 157 q 179 155 172 155 q 268 198 216 155 q 367 320 319 241 q 224 661 224 544 q 228 696 224 679 q 272 787 241 753 q 347 821 302 821 l 361 821 q 441 804 410 821 q 492 761 473 788 q 519 700 511 734 q 526 628 526 665 l 526 618 q 519 536 526 576 q 501 458 513 496 z "},"":{"ha":751,"x_min":-32,"x_max":700,"o":"m 536 504 q 461 509 505 504 q 359 524 418 514 q 257 539 301 534 q 186 543 214 543 q 33 469 33 543 q 64 419 33 437 q 73 416 66 418 q 85 412 79 415 q 105 406 94 410 q 135 395 115 401 q 156 452 144 424 q 179 510 167 479 l 292 504 q 274 450 285 484 q 248 371 262 416 q 298 366 271 368 q 374 358 326 363 q 380 378 376 367 q 387 399 385 390 q 403 447 395 422 q 416 490 411 471 l 538 478 l 496 349 q 654 207 654 328 q 644 148 654 175 q 614 93 633 121 q 440 -7 529 -7 q 365 11 400 -7 q 306 61 330 28 q 174 0 216 0 q 89 32 121 0 q 60 107 60 60 q 65 160 60 131 q 82 225 71 189 q 83 231 83 228 q 85 237 83 235 l 85 236 q 92 262 89 250 q 100 283 96 273 l 100 282 q 104 297 103 293 q 109 313 109 306 q 113 330 110 321 q -32 465 -32 371 q -14 532 -32 501 q 35 586 4 562 q 250 640 117 640 q 334 635 293 640 q 416 621 375 631 q 433 616 421 619 q 465 607 446 614 q 481 601 473 604 q 500 595 489 597 q 568 572 558 572 q 588 579 579 572 q 599 593 596 586 q 635 636 606 636 q 655 631 643 636 q 676 620 667 627 q 693 604 686 612 q 700 589 700 596 q 632 524 700 547 q 585 510 610 515 q 536 504 559 504 m 559 225 q 475 292 559 279 q 419 146 436 195 q 403 90 403 97 q 427 69 403 69 q 519 135 479 69 q 559 225 559 186 m 215 78 q 354 298 290 114 q 293 301 325 298 q 227 310 261 304 q 179 153 195 210 q 163 82 163 97 q 180 66 163 66 q 215 78 193 66 m 366 330 q 357 309 359 315 q 353 298 355 302 l 385 298 l 366 330 z "},"":{"ha":1360,"x_min":-4,"x_max":1280,"o":"m 1016 705 q 1195 622 1120 705 q 1269 422 1269 538 q 1195 221 1269 304 q 1016 138 1120 138 q 837 221 911 138 q 763 422 763 304 q 834 623 763 538 q 1016 705 906 707 m 300 685 l 300 118 q 252 22 299 60 q 117 -7 204 -17 q 7 77 44 -7 q -4 227 -29 161 q 149 303 63 342 q 157 155 235 264 q 154 54 117 83 q 226 51 191 26 q 262 121 262 75 l 262 763 q 255 834 262 817 q 199 895 248 852 q 99 943 151 937 q 32 949 47 949 q 19 966 19 949 q 32 983 20 983 l 290 983 q 378 922 350 983 l 606 424 q 618 417 609 415 q 627 429 627 419 l 632 847 q 669 944 633 904 q 791 993 705 983 q 949 928 895 989 q 958 785 1004 867 q 791 753 861 677 q 808 890 721 830 q 832 917 838 904 q 800 937 825 930 q 712 915 753 942 q 671 844 671 888 q 666 418 667 630 q 664 -6 664 206 q 655 -17 664 -15 q 642 -11 646 -19 l 322 690 q 309 696 318 698 q 300 685 300 694 m 1013 673 q 939 621 969 673 q 908 420 908 568 q 939 220 908 273 q 1013 168 969 168 q 1086 220 1056 168 q 1117 420 1117 273 q 1086 621 1117 568 q 1013 673 1056 673 m 774 102 l 1270 102 q 1280 91 1280 102 l 1280 14 q 1270 2 1280 2 l 774 2 q 764 14 764 2 l 764 91 q 774 102 764 102 z "},"":{"ha":743,"x_min":28,"x_max":707,"o":"m 218 905 l 218 627 l 248 627 l 248 606 l 92 606 l 92 627 l 121 627 l 121 905 q 68 885 87 905 q 46 820 50 864 l 28 820 l 28 926 l 311 926 l 311 820 l 293 820 q 218 905 289 909 m 444 926 l 514 730 l 583 926 l 707 926 l 707 905 l 677 905 l 677 627 l 707 627 l 707 606 l 553 606 l 553 627 l 583 627 l 583 876 l 489 606 l 467 606 l 372 868 l 372 663 q 379 629 372 634 q 401 627 384 627 l 401 606 l 321 606 l 321 627 q 330 627 328 627 q 348 633 344 627 q 353 663 353 638 l 353 905 l 328 905 l 328 926 l 444 926 z "},"":{"ha":1083,"x_min":11,"x_max":1064,"o":"m 513 380 q 526 436 518 407 q 544 500 533 466 q 506 410 525 456 q 464 311 488 364 q 178 -16 320 -16 q 123 -3 153 -16 q 70 33 94 9 q 28 90 45 56 q 11 168 11 123 q 35 234 11 211 q 90 257 58 257 q 161 189 161 257 q 153 157 161 174 q 135 120 146 139 q 131 109 132 115 q 129 96 129 102 q 146 69 129 79 q 178 58 164 58 q 405 353 268 58 q 426 399 410 361 q 464 490 441 437 q 513 605 486 543 q 563 722 539 666 q 608 820 587 778 q 637 879 628 863 q 653 908 642 889 q 681 944 665 926 q 713 974 696 961 q 746 987 730 987 q 766 976 757 987 q 774 957 774 964 q 760 920 774 939 q 704 753 736 871 q 635 458 672 635 q 620 366 628 412 q 606 280 612 320 q 594 207 600 240 q 587 155 588 174 q 602 190 595 171 q 618 237 610 210 q 701 461 668 370 q 757 604 734 553 q 942 950 847 815 q 959 975 944 961 q 988 988 975 988 q 1018 957 1018 988 q 1016 941 1018 949 q 1010 924 1014 934 q 997 883 1007 918 q 972 786 987 847 q 925 586 944 669 q 892 441 905 503 q 874 329 880 379 q 868 224 868 278 q 870 177 868 205 q 875 124 872 150 q 883 80 878 98 q 895 62 888 62 q 924 83 903 62 q 939 106 926 86 q 971 163 951 127 l 971 160 q 1003 228 972 174 l 1003 227 q 1029 249 1010 249 q 1064 214 1064 249 q 1061 197 1064 207 q 1051 176 1059 187 q 1022 106 1035 136 q 998 61 1008 76 q 890 -7 950 -7 q 754 193 754 -7 q 827 585 754 346 q 672 184 755 422 q 564 5 615 24 l 561 4 q 547 1 550 1 q 472 127 472 1 q 483 239 472 176 q 513 380 493 301 z "},"":{"ha":658,"x_min":0,"x_max":612,"o":"m 408 670 q 408 650 424 659 q 346 582 368 630 q 319 478 323 534 q 323 470 319 472 q 332 467 326 467 q 436 492 389 470 q 503 554 484 513 q 523 554 512 574 q 612 465 553 503 q 612 446 627 454 q 516 351 551 413 q 496 351 506 333 q 431 406 477 386 q 332 429 385 425 q 323 426 328 430 q 320 418 319 422 q 347 318 325 363 q 408 255 369 273 q 408 235 424 246 q 318 146 356 204 q 298 146 307 131 q 205 242 265 209 q 205 262 186 252 q 257 323 237 280 q 281 416 276 366 q 278 425 282 420 q 269 428 274 429 q 177 403 219 422 q 115 351 134 384 q 95 351 104 336 q 0 446 61 412 q 0 465 -15 454 q 88 554 57 504 q 108 554 99 570 q 172 495 127 516 q 270 467 217 473 q 279 471 275 467 q 282 479 283 475 q 259 577 278 532 q 205 644 239 623 q 205 663 186 654 q 298 759 265 697 q 318 759 307 774 q 408 670 355 702 z "},"":{"ha":1425,"x_min":32,"x_max":1388,"o":"m 1388 557 q 1326 496 1388 496 q 1264 539 1282 496 l 1265 539 q 1251 557 1256 547 q 1244 552 1249 557 q 1223 536 1239 547 q 1256 478 1247 505 q 1264 411 1264 450 q 1243 319 1264 359 q 1185 252 1222 279 q 1095 211 1147 225 q 981 196 1042 196 q 876 184 903 196 q 849 147 849 172 q 932 106 849 106 l 944 106 q 1027 106 981 106 q 1112 110 1072 106 q 1270 72 1222 110 q 1318 -54 1318 33 q 988 -263 1318 -263 q 724 -125 724 -263 q 747 -56 724 -85 q 832 -4 771 -26 q 788 16 804 5 q 765 40 772 26 q 755 71 757 54 q 753 110 753 87 q 777 190 753 155 q 864 241 802 224 q 791 315 811 273 q 771 411 771 357 q 790 499 771 459 q 843 567 810 539 q 921 609 876 595 q 1017 624 966 624 q 1102 613 1064 624 q 1177 576 1140 602 l 1181 581 q 1184 584 1181 581 q 1192 588 1186 586 l 1190 588 q 1307 646 1251 646 q 1388 557 1388 646 m 1134 407 q 1106 522 1134 486 q 1017 557 1079 557 q 925 520 954 557 q 897 407 897 483 q 924 293 897 330 q 1015 256 951 256 q 1106 291 1079 256 q 1134 407 1134 327 m 1215 -89 q 1186 -31 1215 -50 q 1092 -12 1157 -12 l 934 -12 q 867 -48 893 -24 q 840 -111 840 -72 q 997 -195 840 -195 q 1215 -89 1215 -195 m 403 4 l 403 74 l 446 75 q 467 77 459 76 q 478 79 475 78 q 483 83 482 81 q 485 89 483 85 q 476 100 482 94 q 471 113 471 106 q 400 216 433 167 q 329 319 368 265 l 313 301 q 289 277 300 289 q 264 254 278 265 l 264 118 q 271 85 264 94 q 298 75 278 76 l 323 75 q 341 75 330 75 q 359 74 353 74 l 359 4 l 39 4 l 39 74 l 103 75 q 130 85 122 76 q 137 118 137 94 l 137 866 q 124 904 137 895 q 76 913 111 913 l 69 913 q 64 913 66 913 q 59 913 62 913 l 32 913 l 32 978 l 264 993 l 264 353 q 306 393 286 374 q 347 435 325 412 q 378 463 359 447 q 412 496 396 479 q 440 527 429 513 q 452 551 452 542 q 440 559 452 554 q 400 564 429 564 l 350 564 l 350 629 l 681 629 l 679 564 q 481 461 581 564 l 422 405 q 518 271 471 337 q 610 136 566 204 q 662 92 629 109 q 733 74 694 76 l 733 4 l 403 4 z "},"":{"ha":387,"x_min":30,"x_max":359,"o":"m 174 231 q 184 203 163 217 l 298 138 q 342 172 308 132 q 359 174 351 180 q 359 158 368 168 q 251 2 287 78 q 226 2 242 -10 q 149 73 193 44 q 42 113 105 101 q 30 123 31 115 q 39 135 29 131 q 151 242 73 147 q 230 435 229 337 q 102 578 231 532 q 54 564 68 591 q 36 557 45 550 q 37 581 26 565 q 75 645 57 612 q 111 710 93 677 q 142 718 123 730 q 310 617 265 671 q 347 502 355 563 q 294 371 340 440 q 174 231 248 302 z "},"":{"ha":726,"x_min":29,"x_max":693,"o":"m 629 500 q 567 543 587 500 l 568 543 q 562 551 566 546 q 555 561 558 557 q 542 553 547 558 l 541 551 q 535 548 538 549 q 529 546 532 547 l 529 545 q 526 542 529 542 q 558 483 550 511 q 566 415 566 454 q 541 319 566 363 q 475 248 517 275 q 286 199 401 199 q 199 193 221 199 q 154 150 154 182 q 236 110 154 110 l 249 110 l 416 113 q 574 75 526 113 q 623 -50 623 37 q 293 -258 623 -258 q 29 -121 29 -258 q 52 -52 29 -81 q 135 0 74 -22 q 92 20 107 9 q 68 44 77 31 q 58 75 60 58 q 56 113 56 92 q 79 195 56 160 q 167 245 103 229 q 96 318 118 275 q 74 415 74 361 q 94 506 74 465 q 150 574 114 546 q 321 628 221 628 q 406 618 370 628 q 479 581 443 608 l 484 585 q 487 588 485 586 q 496 593 489 590 l 494 593 q 554 634 524 621 q 611 647 585 647 q 693 561 693 647 q 629 500 693 500 m 321 561 q 229 524 258 561 q 200 410 200 488 q 228 296 200 334 q 319 258 256 258 q 411 294 383 258 q 439 410 439 330 q 411 525 439 489 q 321 561 383 561 m 239 -8 q 171 -44 197 -20 q 144 -107 144 -68 q 301 -191 144 -191 q 519 -86 519 -191 q 490 -27 519 -46 q 395 -8 461 -8 l 239 -8 z "},"":{"ha":1364,"x_min":21,"x_max":1349,"o":"m 52 -2 q 32 1 42 -2 q 21 24 21 4 q 22 40 21 31 q 28 54 24 49 q 60 112 37 69 q 114 213 83 154 q 183 345 146 273 q 258 489 221 416 q 331 631 296 562 q 393 753 366 700 q 438 840 421 807 q 456 876 454 873 l 227 876 q 201 861 212 876 q 179 828 195 852 q 144 773 163 803 q 111 716 126 744 q 89 672 96 688 q 72 659 83 659 q 60 664 66 659 q 49 672 54 669 q 40 688 40 681 q 41 696 40 693 l 100 930 q 123 957 109 957 q 146 954 132 957 q 192 949 163 951 q 257 947 222 947 q 329 946 293 946 q 395 946 366 946 q 426 947 410 946 q 458 949 442 949 l 493 950 q 591 954 539 954 q 618 930 618 954 q 610 903 618 920 q 587 860 607 897 q 538 767 568 823 q 471 638 509 710 q 394 492 433 567 q 318 345 355 418 q 251 215 281 273 q 201 119 221 157 q 178 74 180 81 l 475 74 q 507 113 488 86 q 545 169 526 140 q 580 224 564 198 q 600 258 596 250 q 614 271 605 271 q 628 265 618 271 l 640 256 q 648 232 648 248 q 635 189 644 221 q 615 122 625 157 q 595 54 604 87 q 581 7 586 21 q 571 -13 579 -4 q 555 -21 564 -21 q 546 -20 554 -21 q 530 -16 537 -19 q 476 -9 511 -11 q 401 -5 441 -7 q 320 -2 361 -3 q 248 -2 279 -2 l 52 -2 m 828 500 q 833 455 828 472 q 843 430 838 439 q 857 418 849 421 q 871 415 865 415 q 906 417 889 415 q 933 427 924 418 q 947 431 942 431 q 966 421 954 431 l 972 408 q 974 400 974 405 q 968 381 974 393 q 952 369 964 378 q 923 352 940 361 q 885 338 907 344 q 839 332 864 332 q 795 342 817 332 q 757 368 774 353 q 730 402 741 383 q 720 441 720 422 q 720 484 720 458 q 720 532 720 509 q 721 576 720 555 q 725 603 722 596 l 725 757 l 673 757 q 644 783 644 757 q 651 803 644 798 q 669 815 659 808 q 696 838 679 821 q 732 875 713 854 q 765 917 750 896 q 787 951 781 937 q 799 966 791 961 q 814 971 807 971 q 835 962 831 971 q 839 940 839 953 l 833 842 l 970 842 q 991 825 991 842 q 990 817 991 819 l 979 779 q 972 764 978 771 q 956 757 966 757 l 831 757 q 828 685 828 720 q 828 614 828 649 l 828 500 m 1063 661 q 1061 692 1063 681 q 1056 711 1059 703 q 1046 724 1053 720 q 1032 734 1040 729 l 1012 747 q 997 768 997 753 l 997 774 q 1011 796 997 788 q 1042 815 1025 804 q 1077 837 1059 827 q 1111 854 1095 847 q 1137 861 1126 861 q 1153 853 1149 861 q 1160 835 1157 844 l 1160 787 q 1217 844 1186 821 q 1280 868 1249 868 q 1332 848 1315 868 q 1349 804 1349 828 q 1329 753 1349 772 q 1290 733 1308 733 q 1258 742 1272 733 l 1249 747 q 1225 753 1242 753 q 1200 743 1214 753 q 1175 711 1186 734 q 1167 692 1171 703 q 1164 681 1164 682 l 1164 439 q 1181 407 1164 407 l 1231 407 q 1248 400 1244 407 q 1251 381 1251 393 l 1251 363 q 1234 337 1251 337 l 1218 337 q 1179 340 1204 339 q 1120 342 1153 342 q 1056 339 1083 342 q 1015 337 1029 337 l 1005 337 q 991 342 997 337 q 986 363 986 347 l 986 381 q 990 401 986 396 q 1011 407 995 407 l 1053 407 q 1061 415 1061 407 q 1063 475 1063 442 q 1063 553 1063 509 l 1063 661 m 673 279 l 1337 279 l 1337 170 l 673 170 l 673 279 z "},"":{"ha":659,"x_min":-13,"x_max":720,"o":"m -13 630 q -5 642 -13 640 q 68 687 39 649 q 94 786 98 725 q 119 948 89 882 q 238 984 149 1013 q 329 955 288 967 q 387 968 370 942 q 403 979 395 983 q 401 954 411 976 q 336 850 375 877 q 215 863 297 823 q 122 826 136 899 q 151 731 108 753 q 206 693 193 708 q 222 686 214 686 l 373 686 q 391 694 385 686 q 412 786 416 725 q 437 948 408 882 q 557 984 467 1013 q 647 955 606 967 q 705 968 688 942 q 720 981 713 983 q 719 954 728 978 q 655 850 694 877 q 534 863 616 823 q 440 826 454 899 q 470 731 427 753 q 525 693 512 708 q 541 686 532 686 l 658 686 q 669 675 669 686 l 669 633 q 658 622 669 622 l 576 622 q 565 610 563 623 q 563 504 569 572 l 494 -210 q 480 -231 492 -233 q 467 -208 469 -229 q 433 206 450 -1 q 397 597 416 403 q 390 614 397 606 q 374 623 384 623 l 257 622 q 246 610 245 622 q 244 504 250 572 l 176 -210 q 161 -231 173 -233 q 149 -208 150 -229 q 114 206 132 -1 q 79 597 97 403 q 72 613 78 606 q 59 621 66 621 l -2 621 q -13 630 -12 621 z "},"":{"ha":665,"x_min":-15,"x_max":658,"o":"m -15 631 q -5 642 -15 640 q 68 687 39 649 q 94 786 98 725 q 119 948 89 882 q 238 984 149 1013 q 329 955 288 967 q 387 968 370 942 q 406 979 396 983 q 399 954 407 978 q 336 850 375 877 q 215 863 297 823 q 122 826 136 899 q 151 731 108 753 q 206 693 193 708 q 222 686 214 686 l 395 686 q 418 693 406 686 q 450 729 430 700 q 475 728 460 742 q 530 668 503 694 q 608 612 557 642 q 618 604 618 607 q 611 591 618 592 q 580 568 593 585 q 566 513 566 551 l 566 226 q 592 141 566 157 q 641 156 622 123 q 657 162 648 169 q 657 138 667 155 q 619 74 637 106 q 583 10 602 42 q 551 2 570 -9 q 459 67 490 31 q 429 178 427 103 l 424 530 l 424 551 q 420 572 424 564 q 357 622 377 623 l 257 622 q 246 610 245 622 q 244 504 250 572 l 176 -210 q 161 -231 173 -233 q 149 -208 150 -229 q 114 206 132 -1 q 78 604 97 405 q 73 616 77 611 q 62 621 68 621 l -2 621 q -15 631 -15 621 m 527 984 q 595 911 602 984 q 550 838 591 875 q 484 802 508 801 q 446 840 459 802 q 436 911 433 879 q 466 963 438 943 q 527 984 494 984 z "},"":{"ha":675,"x_min":-13,"x_max":692,"o":"m -13 630 q -5 642 -13 640 q 68 687 39 649 q 94 786 98 725 q 119 948 89 882 q 238 984 149 1013 q 329 955 288 967 q 387 968 370 942 q 407 981 397 986 q 410 964 418 975 q 380 887 380 913 q 390 840 380 861 q 399 833 393 833 q 410 839 406 833 q 521 948 450 907 q 675 987 592 990 q 691 975 691 987 q 675 962 692 962 q 567 923 608 962 q 527 782 527 884 l 526 195 q 536 167 526 173 l 585 139 q 632 172 595 133 q 651 176 642 182 q 650 158 661 169 q 541 2 578 79 q 516 2 530 -14 q 447 71 481 48 q 349 107 413 94 q 337 117 338 109 q 345 129 337 125 q 389 207 389 147 l 389 663 q 365 818 389 760 q 346 855 355 844 q 314 844 336 866 q 215 863 292 823 q 122 826 136 899 q 151 731 108 753 q 206 693 193 708 q 222 686 214 686 l 339 686 q 350 675 350 686 l 350 633 q 339 622 350 622 l 257 622 q 246 610 245 621 q 244 504 250 572 l 176 -210 q 161 -231 173 -233 q 149 -208 150 -229 q 114 206 132 -1 q 79 600 97 404 q 71 614 77 608 q 60 621 65 621 l -2 621 q -13 630 -12 621 z "},"":{"ha":991,"x_min":-13,"x_max":979,"o":"m -13 630 q -5 642 -13 640 q 68 687 39 649 q 94 786 98 725 q 119 948 89 882 q 238 984 149 1013 q 329 955 288 967 q 387 968 370 942 q 403 979 395 983 q 401 954 411 976 q 336 850 375 877 q 215 863 297 823 q 122 826 136 899 q 151 731 108 753 q 206 693 193 708 q 222 686 214 686 l 373 686 q 391 694 385 686 q 412 786 416 725 q 437 948 408 882 q 557 984 467 1013 q 647 955 606 967 q 705 968 688 942 q 720 981 713 983 q 719 954 728 978 q 655 850 694 877 q 534 863 616 823 q 440 826 454 899 q 470 731 427 753 q 525 693 512 708 q 541 686 532 686 l 716 686 q 739 693 726 686 q 770 729 751 700 q 795 728 781 742 q 851 668 824 694 q 928 612 878 642 q 939 604 939 607 q 932 591 939 592 q 901 568 914 585 q 887 513 887 551 l 887 226 q 913 141 887 157 q 962 156 943 123 q 978 162 968 169 q 978 138 988 155 q 940 74 958 106 q 904 10 922 42 q 872 2 891 -9 q 780 67 811 31 q 750 178 748 103 l 745 530 l 745 551 q 741 572 745 564 q 678 622 698 623 l 576 622 q 565 610 563 623 q 563 504 569 572 l 494 -210 q 480 -231 492 -233 q 467 -208 469 -229 q 433 206 450 -1 q 397 597 416 403 q 390 614 397 606 q 374 623 384 623 l 257 622 q 246 610 245 622 q 244 504 250 572 l 176 -210 q 161 -231 173 -233 q 149 -208 150 -229 q 114 206 132 -1 q 79 597 97 403 q 72 613 78 606 q 59 621 66 621 l -2 621 q -13 630 -12 621 m 848 984 q 916 911 923 984 q 870 838 912 875 q 804 802 829 801 q 767 840 780 802 q 757 911 754 879 q 787 963 759 943 q 848 984 815 984 z "},"":{"ha":995,"x_min":-13,"x_max":1010,"o":"m 411 821 q 437 947 412 895 q 556 984 467 1013 q 647 955 606 967 q 705 968 688 942 q 725 981 715 986 q 728 964 736 975 q 698 887 698 913 q 708 840 698 861 q 718 833 711 833 q 728 839 724 833 q 839 948 768 907 q 993 987 910 990 q 1009 975 1009 987 q 993 962 1010 962 q 885 923 926 962 q 845 782 845 884 l 844 195 q 854 167 844 173 l 903 139 q 950 172 913 133 q 969 176 960 182 q 968 158 979 169 q 859 2 897 79 q 834 2 848 -14 q 765 71 800 48 q 667 107 731 94 q 655 117 656 109 q 663 129 655 125 q 707 207 707 147 l 707 663 q 683 818 707 760 q 664 855 673 844 q 632 844 654 866 q 533 863 610 823 q 444 842 463 895 q 440 826 441 835 q 470 731 427 753 q 525 693 512 708 q 541 686 532 686 l 658 686 q 669 675 669 686 l 669 633 q 658 622 669 622 l 576 622 q 565 610 563 623 q 563 504 569 572 l 494 -210 q 480 -231 492 -233 q 467 -208 469 -229 q 433 206 450 -1 q 397 597 416 403 q 390 614 397 606 q 374 623 384 623 l 257 622 q 246 610 245 622 q 244 504 250 572 l 176 -210 q 161 -231 173 -233 q 149 -208 150 -229 q 114 206 132 -1 q 79 597 97 403 q 72 613 78 606 q 59 621 66 621 l -2 621 q -13 630 -12 621 q -5 642 -13 640 q 68 687 39 649 q 94 786 98 725 q 119 948 89 882 q 238 984 149 1013 q 329 955 288 967 q 387 968 370 942 q 403 979 395 983 q 401 954 411 976 q 336 850 375 877 q 215 863 297 823 q 122 826 136 899 q 151 731 108 753 q 206 693 193 708 q 222 686 214 686 l 373 686 q 391 694 385 686 q 412 786 416 725 q 411 821 412 804 z "},"":{"ha":697,"x_min":-3,"x_max":684,"o":"m 76 621 l 7 621 q -3 630 -3 621 q 5 642 -3 640 q 78 687 49 649 q 103 786 107 725 q 128 948 98 882 q 248 984 158 1013 q 536 902 496 915 q 609 914 576 890 q 628 935 618 924 q 645 938 637 944 q 646 922 654 932 q 583 821 614 883 q 545 709 551 760 q 545 699 543 702 q 555 694 549 694 l 672 694 q 680 691 677 694 q 684 682 684 686 l 681 631 q 669 621 680 621 l 552 621 q 543 609 543 621 l 542 195 q 552 167 542 174 l 601 139 q 648 172 615 127 q 665 174 654 180 q 666 158 675 168 q 557 2 593 79 q 532 2 545 -12 q 461 69 494 47 q 364 107 429 92 q 353 117 353 109 q 361 129 352 125 q 406 207 406 140 l 405 608 q 395 621 406 621 l 315 621 q 302 628 305 621 q 309 641 300 635 q 449 757 390 699 q 448 796 484 790 q 224 863 401 804 q 131 826 145 899 q 161 731 117 753 q 247 646 232 694 q 254 504 262 597 l 185 -210 q 171 -231 182 -233 q 158 -208 159 -229 q 123 206 141 -1 q 87 610 106 408 q 84 618 86 615 q 76 621 82 621 z "}}}
